{"glyphs":{"0":{"ha":663,"x_min":49,"x_max":614,"o":"m 333 -18 q 187 19 251 -18 q 85 123 122 57 q 49 272 49 189 q 85 418 49 354 q 188 518 122 482 q 335 554 253 554 q 479 517 415 554 q 578 415 543 481 q 614 268 614 350 q 578 121 614 186 q 478 19 542 56 q 333 -18 414 -18 m 349 1 q 474 69 432 1 q 517 251 517 136 q 460 463 517 390 q 319 535 404 535 q 191 465 238 535 q 144 283 144 396 q 200 81 144 160 q 349 1 256 1 z "},"1":{"ha":461,"x_min":63,"x_max":431,"o":"m 76 0 q 72 8 72 0 q 76 17 72 17 q 164 24 136 17 q 202 51 192 31 q 213 113 213 71 l 213 371 q 206 445 213 424 q 176 467 199 467 q 75 432 151 467 l 74 432 q 65 439 68 432 q 68 447 63 446 l 278 549 q 282 550 279 550 q 289 547 286 550 q 292 539 292 543 l 292 113 q 301 50 292 69 q 338 24 310 31 q 426 17 365 17 q 431 8 431 17 q 426 0 431 0 q 354 1 381 0 l 251 3 l 150 1 q 76 0 124 0 z "},"2":{"ha":558,"x_min":46,"x_max":518,"o":"m 51 21 q 240 184 174 121 q 336 297 307 247 q 365 397 365 347 q 331 488 365 453 q 243 524 297 524 q 85 351 133 524 q 79 350 85 350 q 68 356 67 350 l 122 567 q 128 569 122 569 q 135 567 132 569 q 138 564 139 565 q 136 549 136 558 q 157 526 136 526 q 199 536 169 526 q 300 554 256 554 q 412 516 371 554 q 453 417 453 478 q 422 319 453 368 q 330 216 390 271 q 161 78 269 161 q 158 71 156 74 q 167 68 160 68 q 379 72 319 68 q 465 94 439 76 q 501 158 492 113 q 508 161 501 161 q 518 157 518 161 l 497 15 q 494 5 497 10 q 485 0 490 0 l 61 0 q 50 8 54 0 q 51 21 46 15 z "},"3":{"ha":540,"x_min":44,"x_max":485,"o":"m 297 182 q 437 117 389 172 q 485 -12 485 61 q 440 -152 485 -81 q 305 -285 396 -224 q 82 -382 214 -346 q 73 -376 76 -383 q 75 -367 69 -368 q 313 -221 242 -315 q 385 -28 385 -126 q 346 99 385 47 q 228 150 307 150 q 161 142 189 150 q 154 149 157 140 q 156 158 151 157 q 309 236 264 186 q 354 372 354 286 q 324 483 354 443 q 233 524 294 524 q 63 358 110 524 q 57 357 61 357 q 46 363 44 357 l 97 565 q 103 568 100 568 q 111 566 107 568 q 114 563 115 564 q 111 547 111 551 q 135 524 111 524 q 176 533 147 524 q 279 554 233 554 q 400 508 357 554 q 443 396 443 461 q 404 269 443 328 q 297 182 365 210 z "},"4":{"ha":626,"x_min":25,"x_max":581,"o":"m 575 61 q 581 35 581 61 q 578 13 581 24 q 574 1 576 1 q 457 7 532 4 l 457 -212 q 446 -232 457 -228 l 388 -261 q 379 -264 379 -264 q 375 -253 375 -264 l 375 8 q 40 11 288 11 q 29 17 33 11 q 31 28 25 22 l 436 550 q 444 553 439 553 q 453 551 449 553 q 457 544 457 549 l 457 58 q 575 61 489 58 m 108 53 q 375 56 228 53 l 375 413 l 101 63 q 99 56 97 58 q 108 53 101 53 z "},"5":{"ha":568,"x_min":79,"x_max":496,"o":"m 165 451 q 144 432 147 451 l 115 272 q 397 202 307 271 q 488 13 488 133 q 447 -131 488 -67 q 322 -256 407 -196 q 94 -382 236 -317 l 93 -382 q 84 -376 88 -382 q 86 -367 81 -369 q 326 -195 257 -282 q 396 -11 396 -108 q 318 168 396 104 q 94 232 240 232 q 83 237 88 232 q 81 249 79 242 l 125 496 q 129 508 126 506 q 143 511 132 510 q 378 540 318 532 q 455 558 438 549 q 479 588 472 567 q 488 591 481 592 q 494 585 496 590 l 467 482 q 453 462 461 467 q 428 457 446 457 l 165 451 z "},"6":{"ha":646,"x_min":65,"x_max":597,"o":"m 415 393 q 553 343 508 393 q 597 221 597 293 q 560 101 597 156 q 458 14 522 46 q 319 -18 394 -18 q 133 63 201 -18 q 65 289 65 143 q 124 543 65 418 q 294 767 183 668 q 556 918 406 865 q 564 913 561 919 q 563 903 567 906 q 340 747 432 843 q 201 537 247 650 q 154 313 154 424 q 209 95 154 182 q 358 8 264 8 q 467 56 426 8 q 508 183 508 103 q 473 307 508 260 q 368 354 438 354 q 300 339 332 354 q 229 289 268 324 q 225 288 228 288 q 217 292 221 288 q 215 299 214 296 q 415 393 290 393 z "},"7":{"ha":596,"x_min":31,"x_max":546,"o":"m 226 -303 q 215 -322 222 -315 q 197 -336 208 -328 l 126 -382 q 119 -379 124 -383 q 117 -372 115 -375 l 488 456 q 481 465 492 465 q 195 460 275 465 q 89 436 115 454 q 49 371 63 418 q 42 368 46 368 q 34 370 38 368 q 32 375 31 372 l 81 574 q 90 576 82 576 q 97 572 99 575 q 96 558 96 567 q 109 540 96 544 q 163 536 122 536 l 531 536 q 541 530 536 536 q 543 518 546 524 l 226 -303 z "},"8":{"ha":679,"x_min":65,"x_max":629,"o":"m 411 478 q 526 408 482 439 q 599 332 569 378 q 629 225 629 286 q 590 101 629 157 q 483 14 550 46 q 336 -18 415 -18 q 194 13 256 -18 q 99 97 133 44 q 65 208 65 149 q 124 360 65 289 q 268 469 183 432 q 176 542 208 504 q 143 631 143 579 q 176 722 143 685 q 260 778 210 760 q 361 797 310 797 q 458 776 417 797 q 523 721 500 754 q 546 654 546 688 q 509 565 546 614 q 411 478 472 517 m 221 672 q 265 574 221 614 q 396 486 308 533 q 450 559 433 524 q 467 638 467 594 q 428 734 467 693 q 339 775 389 775 q 253 748 285 775 q 221 672 221 721 m 375 7 q 499 54 450 7 q 549 181 549 101 q 517 292 549 246 q 442 369 486 339 q 325 439 399 399 q 288 458 313 444 q 190 368 224 424 q 156 244 156 313 q 183 128 156 182 q 261 40 211 74 q 375 7 311 7 z "},"9":{"ha":646,"x_min":49,"x_max":581,"o":"m 246 143 q 133 172 178 143 q 69 247 89 201 q 49 339 49 292 q 82 450 49 401 q 173 526 115 499 q 301 554 231 554 q 505 465 429 554 q 581 231 581 376 q 522 -19 581 104 q 353 -240 464 -143 q 90 -382 242 -336 q 83 -376 86 -383 q 85 -367 79 -369 q 307 -219 215 -314 q 445 -14 399 -125 q 492 203 492 97 q 470 351 492 276 q 401 477 449 426 q 279 528 353 528 q 175 485 213 528 q 138 365 138 442 q 177 234 138 286 q 290 182 217 182 q 354 193 326 182 q 417 233 382 204 q 421 235 418 235 q 429 231 425 235 q 432 224 433 226 q 246 143 363 143 z "},"\u0000":{"ha":0,"x_min":0,"x_max":0,"o":""},"\r":{"ha":325,"x_min":0,"x_max":0,"o":""}," ":{"ha":325,"x_min":0,"x_max":0,"o":""},"A":{"ha":900,"x_min":-17,"x_max":907,"o":"m 903 17 q 907 8 907 17 q 903 0 907 0 q 832 3 879 0 q 746 6 776 6 q 665 3 715 6 q 597 0 621 0 q 592 8 592 0 q 597 17 592 17 q 668 26 647 17 q 689 60 689 36 q 675 117 689 78 l 550 458 l 318 458 l 206 183 q 179 82 179 118 q 206 31 179 44 q 288 17 233 17 q 293 8 293 17 q 286 0 293 0 q 219 3 269 0 q 131 6 161 6 q 53 3 97 6 q -11 0 14 0 q -17 8 -17 0 q -11 17 -17 17 q 77 53 33 17 q 157 171 121 89 l 457 882 q 469 886 460 886 q 486 881 482 886 l 767 117 q 797 54 783 74 q 833 26 810 35 q 903 17 857 17 m 331 488 l 539 488 l 440 756 l 331 488 z "},"Á":{"ha":900,"x_min":-17,"x_max":907,"o":"m 903 17 q 907 8 907 17 q 903 0 907 0 q 832 3 879 0 q 746 6 776 6 q 665 3 715 6 q 597 0 621 0 q 592 8 592 0 q 597 17 592 17 q 668 26 647 17 q 689 60 689 36 q 675 117 689 78 l 550 458 l 318 458 l 206 183 q 179 82 179 118 q 206 31 179 44 q 288 17 233 17 q 293 8 293 17 q 286 0 293 0 q 219 3 269 0 q 131 6 161 6 q 53 3 97 6 q -11 0 14 0 q -17 8 -17 0 q -11 17 -17 17 q 77 53 33 17 q 157 171 121 89 l 457 882 q 469 886 460 886 q 486 881 482 886 l 767 117 q 797 54 783 74 q 833 26 810 35 q 903 17 857 17 m 331 488 l 539 488 l 440 756 l 331 488 m 385 942 q 376 948 379 942 q 378 957 374 954 q 515 1046 433 989 q 542 1065 526 1054 q 579 1089 558 1076 q 614 1083 585 1092 q 665 1063 643 1074 q 676 1050 686 1051 q 388 943 528 1011 l 385 942 z "},"Ă":{"ha":900,"x_min":-17,"x_max":907,"o":"m 903 17 q 907 8 907 17 q 903 0 907 0 q 832 3 879 0 q 746 6 776 6 q 665 3 715 6 q 597 0 621 0 q 592 8 592 0 q 597 17 592 17 q 668 26 647 17 q 689 60 689 36 q 675 117 689 78 l 550 458 l 318 458 l 206 183 q 179 82 179 118 q 206 31 179 44 q 288 17 233 17 q 293 8 293 17 q 286 0 293 0 q 219 3 269 0 q 131 6 161 6 q 53 3 97 6 q -11 0 14 0 q -17 8 -17 0 q -11 17 -17 17 q 77 53 33 17 q 157 171 121 89 l 457 882 q 469 886 460 886 q 486 881 482 886 l 767 117 q 797 54 783 74 q 833 26 810 35 q 903 17 857 17 m 331 488 l 539 488 l 440 756 l 331 488 m 458 924 q 377 956 414 924 q 329 1044 340 988 q 347 1060 328 1053 q 382 1067 365 1067 q 396 1063 396 1067 q 432 998 407 1021 q 486 975 457 975 q 538 997 514 975 q 575 1057 563 1018 q 583 1061 576 1061 q 594 1058 589 1061 q 599 1053 600 1056 q 543 957 582 990 q 458 924 504 924 z "},"Ắ":{"ha":900,"x_min":-17,"x_max":907,"o":"m 903 17 q 907 8 907 17 q 903 0 907 0 q 832 3 879 0 q 746 6 776 6 q 665 3 715 6 q 597 0 621 0 q 592 8 592 0 q 597 17 592 17 q 668 26 647 17 q 689 60 689 36 q 675 117 689 78 l 550 458 l 318 458 l 206 183 q 179 82 179 118 q 206 31 179 44 q 288 17 233 17 q 293 8 293 17 q 286 0 293 0 q 219 3 269 0 q 131 6 161 6 q 53 3 97 6 q -11 0 14 0 q -17 8 -17 0 q -11 17 -17 17 q 77 53 33 17 q 157 171 121 89 l 457 882 q 469 886 460 886 q 486 881 482 886 l 767 117 q 797 54 783 74 q 833 26 810 35 q 903 17 857 17 m 331 488 l 539 488 l 440 756 l 331 488 m 456 924 q 374 956 411 924 q 326 1044 338 988 q 344 1060 325 1053 q 379 1067 363 1067 q 393 1063 393 1067 q 429 998 404 1021 q 483 975 454 975 q 535 997 511 975 q 572 1057 560 1018 q 581 1061 574 1061 q 592 1058 586 1061 q 596 1053 597 1056 q 540 957 579 990 q 456 924 501 924 m 467 1047 q 463 1046 465 1046 q 456 1051 458 1046 q 457 1060 454 1056 q 563 1194 519 1126 q 594 1191 567 1200 q 642 1169 621 1182 q 653 1154 663 1157 q 467 1047 563 1118 z "},"Ặ":{"ha":900,"x_min":-17,"x_max":907,"o":"m 903 17 q 907 8 907 17 q 903 0 907 0 q 832 3 879 0 q 746 6 776 6 q 665 3 715 6 q 597 0 621 0 q 592 8 592 0 q 597 17 592 17 q 668 26 647 17 q 689 60 689 36 q 675 117 689 78 l 550 458 l 318 458 l 206 183 q 179 82 179 118 q 206 31 179 44 q 288 17 233 17 q 293 8 293 17 q 286 0 293 0 q 219 3 269 0 q 131 6 161 6 q 53 3 97 6 q -11 0 14 0 q -17 8 -17 0 q -11 17 -17 17 q 77 53 33 17 q 157 171 121 89 l 457 882 q 469 886 460 886 q 486 881 482 886 l 767 117 q 797 54 783 74 q 833 26 810 35 q 903 17 857 17 m 331 488 l 539 488 l 440 756 l 331 488 m 464 -264 q 418 -248 435 -264 q 401 -203 401 -232 q 418 -161 401 -176 q 464 -146 435 -146 q 506 -161 490 -146 q 522 -203 522 -176 q 507 -248 522 -232 q 464 -264 492 -264 m 458 924 q 377 956 414 924 q 329 1044 340 988 q 347 1060 328 1053 q 382 1067 365 1067 q 396 1063 396 1067 q 432 998 407 1021 q 486 975 457 975 q 538 997 514 975 q 575 1057 563 1018 q 583 1061 576 1061 q 594 1058 589 1061 q 599 1053 600 1056 q 543 957 582 990 q 458 924 504 924 z "},"Ằ":{"ha":900,"x_min":-17,"x_max":907,"o":"m 903 17 q 907 8 907 17 q 903 0 907 0 q 832 3 879 0 q 746 6 776 6 q 665 3 715 6 q 597 0 621 0 q 592 8 592 0 q 597 17 592 17 q 668 26 647 17 q 689 60 689 36 q 675 117 689 78 l 550 458 l 318 458 l 206 183 q 179 82 179 118 q 206 31 179 44 q 288 17 233 17 q 293 8 293 17 q 286 0 293 0 q 219 3 269 0 q 131 6 161 6 q 53 3 97 6 q -11 0 14 0 q -17 8 -17 0 q -11 17 -17 17 q 77 53 33 17 q 157 171 121 89 l 457 882 q 469 886 460 886 q 486 881 482 886 l 767 117 q 797 54 783 74 q 833 26 810 35 q 903 17 857 17 m 331 488 l 539 488 l 440 756 l 331 488 m 460 924 q 378 956 415 924 q 331 1044 342 988 q 348 1060 329 1053 q 383 1067 367 1067 q 397 1063 397 1067 q 433 998 408 1021 q 488 975 458 975 q 540 997 515 975 q 576 1057 564 1018 q 585 1061 578 1061 q 596 1058 590 1061 q 600 1053 601 1056 q 544 957 583 990 q 460 924 506 924 m 517 1047 q 332 1154 421 1117 q 343 1169 322 1157 q 391 1191 364 1182 q 422 1194 418 1200 q 528 1060 461 1133 q 529 1056 529 1058 q 526 1049 529 1051 q 517 1047 522 1046 z "},"Ẳ":{"ha":900,"x_min":-17,"x_max":907,"o":"m 903 17 q 907 8 907 17 q 903 0 907 0 q 832 3 879 0 q 746 6 776 6 q 665 3 715 6 q 597 0 621 0 q 592 8 592 0 q 597 17 592 17 q 668 26 647 17 q 689 60 689 36 q 675 117 689 78 l 550 458 l 318 458 l 206 183 q 179 82 179 118 q 206 31 179 44 q 288 17 233 17 q 293 8 293 17 q 286 0 293 0 q 219 3 269 0 q 131 6 161 6 q 53 3 97 6 q -11 0 14 0 q -17 8 -17 0 q -11 17 -17 17 q 77 53 33 17 q 157 171 121 89 l 457 882 q 469 886 460 886 q 486 881 482 886 l 767 117 q 797 54 783 74 q 833 26 810 35 q 903 17 857 17 m 331 488 l 539 488 l 440 756 l 331 488 m 454 924 q 373 956 410 924 q 325 1044 336 988 q 342 1060 324 1053 q 378 1067 361 1067 q 392 1063 392 1067 q 428 998 403 1021 q 482 975 453 975 q 534 997 510 975 q 571 1057 558 1018 q 579 1061 572 1061 q 590 1058 585 1061 q 594 1053 596 1056 q 539 957 578 990 q 454 924 500 924 m 471 1036 q 468 1054 468 1043 q 488 1106 468 1072 q 501 1133 494 1118 q 507 1160 507 1147 q 492 1192 507 1181 q 460 1204 478 1204 q 429 1196 443 1204 l 428 1196 q 418 1201 422 1196 q 418 1207 414 1206 q 462 1226 439 1219 q 503 1233 485 1233 q 550 1216 533 1233 q 567 1175 567 1199 q 556 1140 567 1156 q 522 1100 546 1125 q 492 1066 501 1081 q 486 1036 482 1051 q 480 1033 488 1033 q 471 1036 472 1033 z "},"Ẵ":{"ha":900,"x_min":-17,"x_max":907,"o":"m 903 17 q 907 8 907 17 q 903 0 907 0 q 832 3 879 0 q 746 6 776 6 q 665 3 715 6 q 597 0 621 0 q 592 8 592 0 q 597 17 592 17 q 668 26 647 17 q 689 60 689 36 q 675 117 689 78 l 550 458 l 318 458 l 206 183 q 179 82 179 118 q 206 31 179 44 q 288 17 233 17 q 293 8 293 17 q 286 0 293 0 q 219 3 269 0 q 131 6 161 6 q 53 3 97 6 q -11 0 14 0 q -17 8 -17 0 q -11 17 -17 17 q 77 53 33 17 q 157 171 121 89 l 457 882 q 469 886 460 886 q 486 881 482 886 l 767 117 q 797 54 783 74 q 833 26 810 35 q 903 17 857 17 m 331 488 l 539 488 l 440 756 l 331 488 m 453 924 q 372 956 408 924 q 324 1044 335 988 q 341 1060 322 1053 q 376 1067 360 1067 q 390 1063 390 1067 q 426 998 401 1021 q 481 975 451 975 q 533 997 508 975 q 569 1057 557 1018 q 578 1061 571 1061 q 589 1058 583 1061 q 593 1053 594 1056 q 538 957 576 990 q 453 924 499 924 m 297 1111 q 289 1115 293 1111 q 288 1121 285 1118 q 392 1207 336 1207 q 465 1192 417 1207 q 572 1172 532 1172 q 609 1181 596 1172 q 639 1210 622 1190 l 640 1210 q 647 1206 643 1210 q 650 1200 651 1203 q 600 1133 621 1150 q 551 1115 579 1115 q 499 1122 526 1115 q 465 1131 472 1129 q 364 1149 406 1149 q 326 1140 338 1149 q 299 1111 315 1132 l 297 1111 z "},"Ǎ":{"ha":900,"x_min":-17,"x_max":907,"o":"m 903 17 q 907 8 907 17 q 903 0 907 0 q 832 3 879 0 q 746 6 776 6 q 665 3 715 6 q 597 0 621 0 q 592 8 592 0 q 597 17 592 17 q 668 26 647 17 q 689 60 689 36 q 675 117 689 78 l 550 458 l 318 458 l 206 183 q 179 82 179 118 q 206 31 179 44 q 288 17 233 17 q 293 8 293 17 q 286 0 293 0 q 219 3 269 0 q 131 6 161 6 q 53 3 97 6 q -11 0 14 0 q -17 8 -17 0 q -11 17 -17 17 q 77 53 33 17 q 157 171 121 89 l 457 882 q 469 886 460 886 q 486 881 482 886 l 767 117 q 797 54 783 74 q 833 26 810 35 q 903 17 857 17 m 331 488 l 539 488 l 440 756 l 331 488 m 326 1074 l 326 1075 q 330 1081 326 1078 q 335 1083 333 1085 l 468 1003 l 594 1085 q 602 1081 597 1086 q 604 1074 607 1075 l 479 938 q 467 932 475 932 q 453 938 458 932 l 326 1074 z "},"Â":{"ha":900,"x_min":-17,"x_max":907,"o":"m 903 17 q 907 8 907 17 q 903 0 907 0 q 832 3 879 0 q 746 6 776 6 q 665 3 715 6 q 597 0 621 0 q 592 8 592 0 q 597 17 592 17 q 668 26 647 17 q 689 60 689 36 q 675 117 689 78 l 550 458 l 318 458 l 206 183 q 179 82 179 118 q 206 31 179 44 q 288 17 233 17 q 293 8 293 17 q 286 0 293 0 q 219 3 269 0 q 131 6 161 6 q 53 3 97 6 q -11 0 14 0 q -17 8 -17 0 q -11 17 -17 17 q 77 53 33 17 q 157 171 121 89 l 457 882 q 469 886 460 886 q 486 881 482 886 l 767 117 q 797 54 783 74 q 833 26 810 35 q 903 17 857 17 m 331 488 l 539 488 l 440 756 l 331 488 m 342 917 q 334 920 338 917 q 333 926 331 924 l 458 1061 q 469 1068 463 1068 q 483 1061 476 1068 l 611 926 l 611 924 q 608 917 611 919 q 603 917 606 914 l 468 996 l 343 917 l 342 917 z "},"Ấ":{"ha":900,"x_min":-17,"x_max":907,"o":"m 903 17 q 907 8 907 17 q 903 0 907 0 q 832 3 879 0 q 746 6 776 6 q 665 3 715 6 q 597 0 621 0 q 592 8 592 0 q 597 17 592 17 q 668 26 647 17 q 689 60 689 36 q 675 117 689 78 l 550 458 l 318 458 l 206 183 q 179 82 179 118 q 206 31 179 44 q 288 17 233 17 q 293 8 293 17 q 286 0 293 0 q 219 3 269 0 q 131 6 161 6 q 53 3 97 6 q -11 0 14 0 q -17 8 -17 0 q -11 17 -17 17 q 77 53 33 17 q 157 171 121 89 l 457 882 q 469 886 460 886 q 486 881 482 886 l 767 117 q 797 54 783 74 q 833 26 810 35 q 903 17 857 17 m 331 488 l 539 488 l 440 756 l 331 488 m 342 917 q 334 920 338 917 q 333 926 331 924 l 458 1061 q 469 1068 463 1068 q 483 1061 476 1068 l 611 926 l 611 924 q 608 917 611 919 q 603 917 606 914 l 468 996 l 343 917 l 342 917 m 564 1011 q 560 1010 563 1010 q 553 1015 556 1010 q 554 1024 551 1019 q 660 1158 617 1090 q 691 1155 664 1164 q 739 1133 718 1146 q 750 1118 760 1121 q 564 1011 660 1082 z "},"Ậ":{"ha":900,"x_min":-17,"x_max":907,"o":"m 903 17 q 907 8 907 17 q 903 0 907 0 q 832 3 879 0 q 746 6 776 6 q 665 3 715 6 q 597 0 621 0 q 592 8 592 0 q 597 17 592 17 q 668 26 647 17 q 689 60 689 36 q 675 117 689 78 l 550 458 l 318 458 l 206 183 q 179 82 179 118 q 206 31 179 44 q 288 17 233 17 q 293 8 293 17 q 286 0 293 0 q 219 3 269 0 q 131 6 161 6 q 53 3 97 6 q -11 0 14 0 q -17 8 -17 0 q -11 17 -17 17 q 77 53 33 17 q 157 171 121 89 l 457 882 q 469 886 460 886 q 486 881 482 886 l 767 117 q 797 54 783 74 q 833 26 810 35 q 903 17 857 17 m 331 488 l 539 488 l 440 756 l 331 488 m 464 -264 q 418 -248 435 -264 q 401 -203 401 -232 q 418 -161 401 -176 q 464 -146 435 -146 q 506 -161 490 -146 q 522 -203 522 -176 q 507 -248 522 -232 q 464 -264 492 -264 m 342 917 q 334 920 338 917 q 333 926 331 924 l 458 1061 q 469 1068 463 1068 q 483 1061 476 1068 l 611 926 l 611 924 q 608 917 611 919 q 603 917 606 914 l 468 996 l 343 917 l 342 917 z "},"Ầ":{"ha":900,"x_min":-17,"x_max":907,"o":"m 903 17 q 907 8 907 17 q 903 0 907 0 q 832 3 879 0 q 746 6 776 6 q 665 3 715 6 q 597 0 621 0 q 592 8 592 0 q 597 17 592 17 q 668 26 647 17 q 689 60 689 36 q 675 117 689 78 l 550 458 l 318 458 l 206 183 q 179 82 179 118 q 206 31 179 44 q 288 17 233 17 q 293 8 293 17 q 286 0 293 0 q 219 3 269 0 q 131 6 161 6 q 53 3 97 6 q -11 0 14 0 q -17 8 -17 0 q -11 17 -17 17 q 77 53 33 17 q 157 171 121 89 l 457 882 q 469 886 460 886 q 486 881 482 886 l 767 117 q 797 54 783 74 q 833 26 810 35 q 903 17 857 17 m 331 488 l 539 488 l 440 756 l 331 488 m 342 917 q 334 920 338 917 q 333 926 331 924 l 458 1061 q 469 1068 463 1068 q 483 1061 476 1068 l 611 926 l 611 924 q 608 917 611 919 q 603 917 606 914 l 468 996 l 343 917 l 342 917 m 675 979 q 490 1086 579 1049 q 501 1101 481 1089 q 549 1123 522 1114 q 581 1126 576 1132 q 686 992 619 1065 q 688 988 688 990 q 684 981 688 983 q 675 979 681 978 z "},"Ẩ":{"ha":900,"x_min":-17,"x_max":907,"o":"m 903 17 q 907 8 907 17 q 903 0 907 0 q 832 3 879 0 q 746 6 776 6 q 665 3 715 6 q 597 0 621 0 q 592 8 592 0 q 597 17 592 17 q 668 26 647 17 q 689 60 689 36 q 675 117 689 78 l 550 458 l 318 458 l 206 183 q 179 82 179 118 q 206 31 179 44 q 288 17 233 17 q 293 8 293 17 q 286 0 293 0 q 219 3 269 0 q 131 6 161 6 q 53 3 97 6 q -11 0 14 0 q -17 8 -17 0 q -11 17 -17 17 q 77 53 33 17 q 157 171 121 89 l 457 882 q 469 886 460 886 q 486 881 482 886 l 767 117 q 797 54 783 74 q 833 26 810 35 q 903 17 857 17 m 331 488 l 539 488 l 440 756 l 331 488 m 342 903 q 334 906 338 903 q 333 913 331 910 l 458 1047 q 469 1054 463 1054 q 483 1047 476 1054 l 611 913 l 611 910 q 608 903 611 906 q 603 903 606 900 l 468 982 l 343 903 l 342 903 m 569 986 q 567 1004 567 993 q 586 1056 567 1022 q 599 1083 593 1068 q 606 1110 606 1097 q 591 1142 606 1131 q 558 1154 576 1154 q 528 1146 542 1154 l 526 1146 q 517 1151 521 1146 q 517 1157 513 1156 q 560 1176 538 1169 q 601 1183 583 1183 q 649 1166 632 1183 q 665 1125 665 1149 q 655 1090 665 1106 q 621 1050 644 1075 q 590 1016 600 1031 q 585 986 581 1001 q 578 983 586 983 q 569 986 571 983 z "},"Ẫ":{"ha":900,"x_min":-17,"x_max":907,"o":"m 903 17 q 907 8 907 17 q 903 0 907 0 q 832 3 879 0 q 746 6 776 6 q 665 3 715 6 q 597 0 621 0 q 592 8 592 0 q 597 17 592 17 q 668 26 647 17 q 689 60 689 36 q 675 117 689 78 l 550 458 l 318 458 l 206 183 q 179 82 179 118 q 206 31 179 44 q 288 17 233 17 q 293 8 293 17 q 286 0 293 0 q 219 3 269 0 q 131 6 161 6 q 53 3 97 6 q -11 0 14 0 q -17 8 -17 0 q -11 17 -17 17 q 77 53 33 17 q 157 171 121 89 l 457 882 q 469 886 460 886 q 486 881 482 886 l 767 117 q 797 54 783 74 q 833 26 810 35 q 903 17 857 17 m 331 488 l 539 488 l 440 756 l 331 488 m 343 917 q 335 920 339 917 q 335 926 332 924 l 460 1061 q 471 1068 464 1068 q 485 1061 478 1068 l 613 926 l 613 924 q 610 917 613 919 q 604 917 607 914 l 469 996 l 344 917 l 343 917 m 313 1079 q 306 1083 310 1079 q 303 1089 301 1086 q 349 1148 322 1122 q 410 1174 376 1174 q 483 1160 428 1174 q 589 1140 547 1140 q 628 1150 614 1140 q 654 1178 642 1160 l 656 1178 q 664 1174 660 1178 q 665 1168 668 1171 q 617 1100 638 1118 q 568 1082 596 1082 q 481 1099 539 1082 q 444 1108 475 1100 q 381 1117 413 1117 q 346 1110 357 1117 q 326 1093 335 1103 q 314 1079 318 1083 l 313 1079 z "},"Ä":{"ha":900,"x_min":-17,"x_max":907,"o":"m 903 17 q 907 8 907 17 q 903 0 907 0 q 832 3 879 0 q 746 6 776 6 q 665 3 715 6 q 597 0 621 0 q 592 8 592 0 q 597 17 592 17 q 668 26 647 17 q 689 60 689 36 q 675 117 689 78 l 550 458 l 318 458 l 206 183 q 179 82 179 118 q 206 31 179 44 q 288 17 233 17 q 293 8 293 17 q 286 0 293 0 q 219 3 269 0 q 131 6 161 6 q 53 3 97 6 q -11 0 14 0 q -17 8 -17 0 q -11 17 -17 17 q 77 53 33 17 q 157 171 121 89 l 457 882 q 469 886 460 886 q 486 881 482 886 l 767 117 q 797 54 783 74 q 833 26 810 35 q 903 17 857 17 m 331 488 l 539 488 l 440 756 l 331 488 m 364 996 q 319 1011 336 996 q 303 1053 303 1026 q 319 1094 303 1079 q 364 1110 336 1110 q 406 1095 392 1110 q 421 1053 421 1081 q 406 1011 421 1026 q 364 996 392 996 m 578 996 q 534 1011 550 996 q 518 1053 518 1026 q 534 1094 518 1079 q 578 1110 550 1110 q 620 1095 606 1110 q 635 1053 635 1081 q 620 1011 635 1026 q 578 996 606 996 z "},"Ạ":{"ha":900,"x_min":-17,"x_max":907,"o":"m 903 17 q 907 8 907 17 q 903 0 907 0 q 832 3 879 0 q 746 6 776 6 q 665 3 715 6 q 597 0 621 0 q 592 8 592 0 q 597 17 592 17 q 668 26 647 17 q 689 60 689 36 q 675 117 689 78 l 550 458 l 318 458 l 206 183 q 179 82 179 118 q 206 31 179 44 q 288 17 233 17 q 293 8 293 17 q 286 0 293 0 q 219 3 269 0 q 131 6 161 6 q 53 3 97 6 q -11 0 14 0 q -17 8 -17 0 q -11 17 -17 17 q 77 53 33 17 q 157 171 121 89 l 457 882 q 469 886 460 886 q 486 881 482 886 l 767 117 q 797 54 783 74 q 833 26 810 35 q 903 17 857 17 m 331 488 l 539 488 l 440 756 l 331 488 m 464 -264 q 418 -248 435 -264 q 401 -203 401 -232 q 418 -161 401 -176 q 464 -146 435 -146 q 506 -161 490 -146 q 522 -203 522 -176 q 507 -248 522 -232 q 464 -264 492 -264 z "},"À":{"ha":900,"x_min":-17,"x_max":907,"o":"m 903 17 q 907 8 907 17 q 903 0 907 0 q 832 3 879 0 q 746 6 776 6 q 665 3 715 6 q 597 0 621 0 q 592 8 592 0 q 597 17 592 17 q 668 26 647 17 q 689 60 689 36 q 675 117 689 78 l 550 458 l 318 458 l 206 183 q 179 82 179 118 q 206 31 179 44 q 288 17 233 17 q 293 8 293 17 q 286 0 293 0 q 219 3 269 0 q 131 6 161 6 q 53 3 97 6 q -11 0 14 0 q -17 8 -17 0 q -11 17 -17 17 q 77 53 33 17 q 157 171 121 89 l 457 882 q 469 886 460 886 q 486 881 482 886 l 767 117 q 797 54 783 74 q 833 26 810 35 q 903 17 857 17 m 331 488 l 539 488 l 440 756 l 331 488 m 604 947 q 464 1006 526 982 q 325 1050 401 1029 q 335 1064 314 1053 q 386 1083 357 1075 q 422 1089 415 1092 q 608 960 524 1014 q 611 951 614 958 q 604 947 608 944 z "},"Ả":{"ha":900,"x_min":-17,"x_max":907,"o":"m 903 17 q 907 8 907 17 q 903 0 907 0 q 832 3 879 0 q 746 6 776 6 q 665 3 715 6 q 597 0 621 0 q 592 8 592 0 q 597 17 592 17 q 668 26 647 17 q 689 60 689 36 q 675 117 689 78 l 550 458 l 318 458 l 206 183 q 179 82 179 118 q 206 31 179 44 q 288 17 233 17 q 293 8 293 17 q 286 0 293 0 q 219 3 269 0 q 131 6 161 6 q 53 3 97 6 q -11 0 14 0 q -17 8 -17 0 q -11 17 -17 17 q 77 53 33 17 q 157 171 121 89 l 457 882 q 469 886 460 886 q 486 881 482 886 l 767 117 q 797 54 783 74 q 833 26 810 35 q 903 17 857 17 m 331 488 l 539 488 l 440 756 l 331 488 m 476 903 q 469 900 478 900 q 460 903 461 900 q 454 935 454 918 q 460 969 454 954 q 481 1008 467 983 q 500 1046 494 1033 q 506 1075 506 1058 q 488 1120 506 1104 q 446 1136 471 1136 q 407 1128 424 1136 l 404 1126 q 397 1131 400 1126 q 399 1139 394 1136 q 488 1167 439 1167 q 553 1146 529 1167 q 578 1093 578 1125 q 564 1047 578 1068 q 524 999 550 1026 q 488 957 500 975 q 475 918 475 939 q 476 903 475 908 z "},"Ā":{"ha":900,"x_min":-17,"x_max":907,"o":"m 903 17 q 907 8 907 17 q 903 0 907 0 q 832 3 879 0 q 746 6 776 6 q 665 3 715 6 q 597 0 621 0 q 592 8 592 0 q 597 17 592 17 q 668 26 647 17 q 689 60 689 36 q 675 117 689 78 l 550 458 l 318 458 l 206 183 q 179 82 179 118 q 206 31 179 44 q 288 17 233 17 q 293 8 293 17 q 286 0 293 0 q 219 3 269 0 q 131 6 161 6 q 53 3 97 6 q -11 0 14 0 q -17 8 -17 0 q -11 17 -17 17 q 77 53 33 17 q 157 171 121 89 l 457 882 q 469 886 460 886 q 486 881 482 886 l 767 117 q 797 54 783 74 q 833 26 810 35 q 903 17 857 17 m 331 488 l 539 488 l 440 756 l 331 488 m 311 997 q 303 1017 303 997 q 311 1036 303 1036 l 642 1036 q 650 1017 650 1036 q 642 997 650 997 l 311 997 z "},"Ą":{"ha":901,"x_min":-17,"x_max":910,"o":"m 903 17 q 908 8 907 17 q 904 0 910 0 l 800 1 q 649 -50 706 1 q 593 -183 593 -101 q 635 -294 593 -250 q 751 -339 676 -339 q 794 -333 779 -339 q 824 -318 810 -328 l 825 -318 q 833 -322 829 -318 q 835 -329 836 -326 q 772 -369 801 -357 q 703 -382 742 -382 q 574 -342 621 -382 q 528 -228 528 -301 q 550 -134 528 -174 q 615 -44 572 -94 q 664 22 649 -4 q 679 76 679 47 q 671 117 679 96 l 547 458 l 321 458 l 211 183 q 183 79 183 118 q 209 30 183 43 q 288 17 235 17 q 293 8 293 17 q 286 0 293 0 q 219 3 269 0 q 133 6 164 6 q 54 3 101 6 q -11 0 13 0 q -17 8 -17 0 q -11 17 -17 17 q 81 53 33 17 q 164 171 128 89 l 457 882 q 469 886 460 886 q 486 881 482 886 l 763 131 q 797 58 781 82 q 836 26 813 35 q 903 17 860 17 m 333 488 l 536 488 l 440 754 l 333 488 z "},"Å":{"ha":900,"x_min":-17,"x_max":907,"o":"m 903 17 q 907 8 907 17 q 903 0 907 0 q 832 3 879 0 q 746 6 776 6 q 665 3 715 6 q 597 0 621 0 q 592 8 592 0 q 597 17 592 17 q 668 26 647 17 q 689 60 689 36 q 675 117 689 78 l 550 458 l 318 458 l 206 183 q 179 82 179 118 q 206 31 179 44 q 288 17 233 17 q 293 8 293 17 q 286 0 293 0 q 219 3 269 0 q 131 6 161 6 q 53 3 97 6 q -11 0 14 0 q -17 8 -17 0 q -11 17 -17 17 q 77 53 33 17 q 157 171 121 89 l 457 882 q 469 886 460 886 q 486 881 482 886 l 767 117 q 797 54 783 74 q 833 26 810 35 q 903 17 857 17 m 331 488 l 539 488 l 440 756 l 331 488 m 463 922 q 374 956 407 922 q 340 1033 340 989 q 383 1112 340 1083 q 476 1140 425 1140 q 563 1108 526 1140 q 599 1031 599 1076 q 557 952 599 982 q 463 922 515 922 m 485 938 q 535 1006 535 938 q 510 1090 535 1054 q 449 1126 485 1126 q 414 1110 425 1126 q 403 1061 403 1094 q 425 976 403 1014 q 485 938 447 938 z "},"Ǻ":{"ha":900,"x_min":-17,"x_max":907,"o":"m 903 17 q 907 8 907 17 q 903 0 907 0 q 832 3 879 0 q 746 6 776 6 q 665 3 715 6 q 597 0 621 0 q 592 8 592 0 q 597 17 592 17 q 668 26 647 17 q 689 60 689 36 q 675 117 689 78 l 550 458 l 318 458 l 206 183 q 179 82 179 118 q 206 31 179 44 q 288 17 233 17 q 293 8 293 17 q 286 0 293 0 q 219 3 269 0 q 131 6 161 6 q 53 3 97 6 q -11 0 14 0 q -17 8 -17 0 q -11 17 -17 17 q 77 53 33 17 q 157 171 121 89 l 457 882 q 469 886 460 886 q 486 881 482 886 l 767 117 q 797 54 783 74 q 833 26 810 35 q 903 17 857 17 m 331 488 l 539 488 l 440 756 l 331 488 m 340 1129 q 334 1135 336 1129 q 336 1143 332 1142 q 443 1197 426 1189 l 525 1239 q 555 1233 531 1243 q 599 1212 579 1224 q 608 1199 618 1200 q 343 1129 489 1176 l 340 1129 m 460 938 q 374 965 407 938 q 342 1032 342 993 q 383 1099 342 1074 q 474 1124 424 1124 q 560 1096 524 1124 q 596 1029 596 1068 q 554 963 596 988 q 460 938 513 938 m 482 953 q 532 1004 532 953 q 507 1078 532 1047 q 447 1108 482 1108 q 411 1097 422 1108 q 400 1060 400 1085 q 422 985 400 1018 q 482 953 444 953 z "},"Ã":{"ha":900,"x_min":-17,"x_max":907,"o":"m 903 17 q 907 8 907 17 q 903 0 907 0 q 832 3 879 0 q 746 6 776 6 q 665 3 715 6 q 597 0 621 0 q 592 8 592 0 q 597 17 592 17 q 668 26 647 17 q 689 60 689 36 q 675 117 689 78 l 550 458 l 318 458 l 206 183 q 179 82 179 118 q 206 31 179 44 q 288 17 233 17 q 293 8 293 17 q 286 0 293 0 q 219 3 269 0 q 131 6 161 6 q 53 3 97 6 q -11 0 14 0 q -17 8 -17 0 q -11 17 -17 17 q 77 53 33 17 q 157 171 121 89 l 457 882 q 469 886 460 886 q 486 881 482 886 l 767 117 q 797 54 783 74 q 833 26 810 35 q 903 17 857 17 m 331 488 l 539 488 l 440 756 l 331 488 m 306 965 q 297 969 301 965 q 296 975 293 972 q 400 1061 344 1061 q 474 1046 425 1061 q 581 1026 540 1026 q 617 1035 604 1026 q 647 1064 631 1044 l 649 1064 q 656 1060 651 1064 q 658 1054 660 1057 q 608 987 629 1004 q 560 969 588 969 q 508 976 535 969 q 474 985 481 983 q 372 1003 414 1003 q 335 994 346 1003 q 307 965 324 986 l 306 965 z "},"Æ":{"ha":1158,"x_min":-53,"x_max":1111,"o":"m 1093 207 q 1099 210 1093 210 q 1107 208 1103 210 q 1110 204 1111 206 q 1099 21 1099 107 q 1094 5 1099 10 q 1076 0 1089 0 l 504 0 q 497 8 497 0 q 504 17 497 17 q 579 24 554 17 q 613 51 604 32 q 621 113 622 71 l 604 438 l 374 438 l 206 171 q 167 76 167 113 q 276 17 167 17 q 283 8 283 17 q 276 0 283 0 q 199 3 251 0 q 101 6 140 6 q 21 3 68 6 q -46 0 -21 0 q -53 8 -53 0 q -46 17 -53 17 q 58 51 13 17 q 168 185 103 86 l 551 799 q 567 832 567 822 q 544 848 567 844 q 458 851 522 851 q 451 860 451 851 q 458 868 451 868 l 1035 868 q 1044 865 1042 868 q 1046 856 1046 863 l 1051 683 q 1041 678 1050 678 q 1033 683 1032 679 q 984 803 1028 758 q 868 849 940 849 l 810 849 q 722 841 750 849 q 683 814 693 833 q 675 754 674 794 l 690 467 l 865 467 q 954 490 929 467 q 981 567 979 513 q 990 572 981 572 q 999 567 999 572 l 999 451 q 1001 322 999 419 q 992 319 1001 319 q 983 324 983 319 q 955 411 983 385 q 860 438 926 438 l 692 438 l 710 118 q 719 58 711 78 q 749 32 726 39 q 821 25 772 25 l 929 25 q 1032 75 988 25 q 1093 207 1076 125 m 392 467 l 603 467 l 588 778 l 392 467 z "},"Ǽ":{"ha":1158,"x_min":-53,"x_max":1110,"o":"m 1093 207 q 1099 210 1093 210 q 1107 208 1103 210 q 1110 204 1111 206 q 1099 21 1099 107 q 1094 5 1099 10 q 1076 0 1089 0 l 504 0 q 497 8 497 0 q 504 17 497 17 q 579 24 554 17 q 613 51 604 32 q 621 113 622 71 l 604 438 l 374 438 l 206 171 q 167 76 167 113 q 276 17 167 17 q 283 8 283 17 q 276 0 283 0 q 199 3 251 0 q 101 6 140 6 q 21 3 68 6 q -46 0 -21 0 q -53 8 -53 0 q -46 17 -53 17 q 58 51 13 17 q 168 185 103 86 l 551 799 q 567 832 567 822 q 544 848 567 844 q 458 851 522 851 q 451 860 451 851 q 458 868 451 868 l 1035 868 q 1044 865 1042 868 q 1046 856 1046 863 l 1051 683 q 1041 678 1050 678 q 1033 683 1032 679 q 984 803 1028 758 q 868 849 940 849 l 810 849 q 722 841 750 849 q 683 814 693 833 q 675 754 674 794 l 690 467 l 865 467 q 954 490 929 467 q 981 567 979 513 q 990 572 981 572 q 999 567 999 572 l 999 451 q 1001 322 999 419 q 992 319 1001 319 q 983 324 983 319 q 955 411 983 385 q 860 438 926 438 l 692 438 l 710 118 q 719 58 711 78 q 749 32 726 39 q 821 25 772 25 l 929 25 q 1032 75 988 25 q 1093 207 1076 125 m 392 467 l 603 467 l 588 778 l 392 467 m 692 942 q 683 948 686 942 q 685 957 681 954 q 822 1046 740 989 q 849 1065 833 1054 q 886 1089 865 1076 q 921 1083 892 1092 q 972 1063 950 1074 q 983 1050 993 1051 q 694 943 835 1011 l 692 942 z "},"Ǣ":{"ha":1158,"x_min":-53,"x_max":1110,"o":"m 1093 207 q 1099 210 1093 210 q 1107 208 1103 210 q 1110 204 1111 206 q 1099 21 1099 107 q 1094 5 1099 10 q 1076 0 1089 0 l 504 0 q 497 8 497 0 q 504 17 497 17 q 579 24 554 17 q 613 51 604 32 q 621 113 622 71 l 604 438 l 374 438 l 206 171 q 167 76 167 113 q 276 17 167 17 q 283 8 283 17 q 276 0 283 0 q 199 3 251 0 q 101 6 140 6 q 21 3 68 6 q -46 0 -21 0 q -53 8 -53 0 q -46 17 -53 17 q 58 51 13 17 q 168 185 103 86 l 551 799 q 567 832 567 822 q 544 848 567 844 q 458 851 522 851 q 451 860 451 851 q 458 868 451 868 l 1035 868 q 1044 865 1042 868 q 1046 856 1046 863 l 1051 683 q 1041 678 1050 678 q 1033 683 1032 679 q 984 803 1028 758 q 868 849 940 849 l 810 849 q 722 841 750 849 q 683 814 693 833 q 675 754 674 794 l 690 467 l 865 467 q 954 490 929 467 q 981 567 979 513 q 990 572 981 572 q 999 567 999 572 l 999 451 q 1001 322 999 419 q 992 319 1001 319 q 983 324 983 319 q 955 411 983 385 q 860 438 926 438 l 692 438 l 710 118 q 719 58 711 78 q 749 32 726 39 q 821 25 772 25 l 929 25 q 1032 75 988 25 q 1093 207 1076 125 m 392 467 l 603 467 l 588 778 l 392 467 m 618 997 q 610 1017 610 997 q 618 1036 610 1036 l 949 1036 q 957 1017 957 1036 q 949 997 957 997 l 618 997 z "},"B":{"ha":776,"x_min":58,"x_max":700,"o":"m 460 489 q 634 416 568 481 q 700 256 700 351 q 665 122 700 182 q 567 28 629 63 q 426 -6 504 -6 q 329 -1 382 -6 q 283 1 310 0 q 224 3 257 3 l 131 1 q 61 0 106 0 q 58 8 58 0 q 61 17 58 17 q 137 24 113 17 q 170 51 161 31 q 179 113 179 71 l 179 756 q 171 817 179 797 q 139 844 163 836 q 63 851 115 851 q 60 860 60 851 q 63 868 60 868 l 131 867 q 224 864 189 864 q 270 865 249 864 q 307 868 292 867 q 388 872 350 872 q 558 822 501 872 q 615 689 615 771 q 574 570 615 622 q 460 489 532 518 m 357 853 q 303 847 321 853 q 278 819 286 840 q 269 753 269 799 l 269 489 l 332 488 q 477 540 431 488 q 524 678 524 592 q 483 805 524 757 q 357 853 443 853 m 406 18 q 554 71 506 18 q 603 221 603 124 q 542 392 603 328 q 374 458 482 457 q 269 456 329 460 l 269 113 q 280 56 269 76 q 319 27 290 36 q 406 18 349 18 z "},"C":{"ha":879,"x_min":58,"x_max":826,"o":"m 531 -17 q 262 51 368 -17 q 107 222 156 118 q 58 442 58 326 q 125 672 58 571 q 301 828 192 772 q 535 883 410 883 q 671 870 603 883 q 781 835 739 857 q 794 822 792 828 q 799 801 797 817 l 814 647 q 808 641 814 642 q 799 644 801 640 q 684 802 765 751 q 485 853 603 853 q 312 807 385 853 q 200 677 239 761 q 161 481 161 593 q 211 240 161 350 q 347 67 261 131 q 536 3 432 3 q 696 58 624 3 q 811 222 768 113 q 819 226 813 228 q 826 221 826 225 l 813 67 q 807 44 810 49 q 792 35 804 40 q 531 -17 667 -17 z "},"Ć":{"ha":879,"x_min":58,"x_max":826,"o":"m 531 -17 q 262 51 368 -17 q 107 222 156 118 q 58 442 58 326 q 125 672 58 571 q 301 828 192 772 q 535 883 410 883 q 671 870 603 883 q 781 835 739 857 q 794 822 792 828 q 799 801 797 817 l 814 647 q 808 641 814 642 q 799 644 801 640 q 684 802 765 751 q 485 853 603 853 q 312 807 385 853 q 200 677 239 761 q 161 481 161 593 q 211 240 161 350 q 347 67 261 131 q 536 3 432 3 q 696 58 624 3 q 811 222 768 113 q 819 226 813 228 q 826 221 826 225 l 813 67 q 807 44 810 49 q 792 35 804 40 q 531 -17 667 -17 m 431 942 q 422 948 425 942 q 424 957 419 954 q 561 1046 479 989 q 588 1065 572 1054 q 625 1089 604 1076 q 660 1083 631 1092 q 710 1063 689 1074 q 722 1050 732 1051 q 433 943 574 1011 l 431 942 z "},"Č":{"ha":879,"x_min":58,"x_max":826,"o":"m 531 -17 q 262 51 368 -17 q 107 222 156 118 q 58 442 58 326 q 125 672 58 571 q 301 828 192 772 q 535 883 410 883 q 671 870 603 883 q 781 835 739 857 q 794 822 792 828 q 799 801 797 817 l 814 647 q 808 641 814 642 q 799 644 801 640 q 684 802 765 751 q 485 853 603 853 q 312 807 385 853 q 200 677 239 761 q 161 481 161 593 q 211 240 161 350 q 347 67 261 131 q 536 3 432 3 q 696 58 624 3 q 811 222 768 113 q 819 226 813 228 q 826 221 826 225 l 813 67 q 807 44 810 49 q 792 35 804 40 q 531 -17 667 -17 m 372 1074 l 372 1075 q 376 1081 372 1078 q 381 1083 379 1085 l 514 1003 l 640 1085 q 648 1081 643 1086 q 650 1074 653 1075 l 525 938 q 513 932 521 932 q 499 938 504 932 l 372 1074 z "},"Ç":{"ha":879,"x_min":58,"x_max":826,"o":"m 811 222 q 819 226 813 228 q 826 221 826 225 l 813 67 q 807 44 810 49 q 792 35 804 40 q 531 -17 667 -17 q 526 -51 526 -36 q 538 -99 526 -78 q 572 -144 549 -119 q 621 -206 604 -179 q 636 -261 638 -233 q 606 -343 638 -304 q 515 -382 575 -382 q 453 -365 479 -382 q 428 -318 428 -349 q 437 -296 428 -304 q 461 -287 446 -287 q 487 -297 476 -287 q 508 -324 497 -307 q 530 -349 522 -342 q 550 -356 538 -356 q 590 -303 590 -356 q 518 -192 589 -260 q 486 -118 486 -160 q 492 -83 486 -100 l 513 -17 q 255 56 357 -12 q 106 226 153 124 q 58 442 58 329 q 125 672 58 571 q 301 828 192 772 q 535 883 410 883 q 671 870 603 883 q 781 835 739 857 q 794 822 792 828 q 799 801 797 817 l 814 647 q 808 641 814 642 q 799 644 801 640 q 684 802 765 751 q 485 853 603 853 q 312 807 385 853 q 200 677 239 761 q 161 481 161 593 q 211 240 161 350 q 347 67 261 131 q 536 3 432 3 q 696 58 624 3 q 811 222 768 113 z "},"Ĉ":{"ha":879,"x_min":58,"x_max":826,"o":"m 531 -17 q 262 51 368 -17 q 107 222 156 118 q 58 442 58 326 q 125 672 58 571 q 301 828 192 772 q 535 883 410 883 q 671 870 603 883 q 781 835 739 857 q 794 822 792 828 q 799 801 797 817 l 814 647 q 808 641 814 642 q 799 644 801 640 q 684 802 765 751 q 485 853 603 853 q 312 807 385 853 q 200 677 239 761 q 161 481 161 593 q 211 240 161 350 q 347 67 261 131 q 536 3 432 3 q 696 58 624 3 q 811 222 768 113 q 819 226 813 228 q 826 221 826 225 l 813 67 q 807 44 810 49 q 792 35 804 40 q 531 -17 667 -17 m 388 917 q 380 920 383 917 q 379 926 376 924 l 504 1061 q 515 1068 508 1068 q 529 1061 522 1068 l 657 926 l 657 924 q 654 917 657 919 q 649 917 651 914 l 514 996 l 389 917 l 388 917 z "},"Ċ":{"ha":879,"x_min":58,"x_max":826,"o":"m 531 -17 q 262 51 368 -17 q 107 222 156 118 q 58 442 58 326 q 125 672 58 571 q 301 828 192 772 q 535 883 410 883 q 671 870 603 883 q 781 835 739 857 q 794 822 792 828 q 799 801 797 817 l 814 647 q 808 641 814 642 q 799 644 801 640 q 684 802 765 751 q 485 853 603 853 q 312 807 385 853 q 200 677 239 761 q 161 481 161 593 q 211 240 161 350 q 347 67 261 131 q 536 3 432 3 q 696 58 624 3 q 811 222 768 113 q 819 226 813 228 q 826 221 826 225 l 813 67 q 807 44 810 49 q 792 35 804 40 q 531 -17 667 -17 m 515 982 q 471 998 488 982 q 454 1043 454 1014 q 471 1085 454 1069 q 515 1100 488 1100 q 559 1085 543 1100 q 575 1043 575 1069 q 559 998 575 1014 q 515 982 543 982 z "},"D":{"ha":919,"x_min":53,"x_max":860,"o":"m 407 -6 q 321 -1 369 -6 q 275 1 301 0 q 215 3 249 3 l 121 1 q 57 0 97 0 q 53 8 54 0 q 57 17 53 17 q 129 24 106 17 q 162 51 153 32 q 169 113 171 71 l 169 756 q 160 817 168 797 q 128 844 151 836 q 57 851 106 851 q 53 860 54 851 q 57 868 53 868 l 122 867 q 214 864 178 864 q 307 868 260 864 q 388 871 365 871 q 633 816 525 871 q 800 665 740 761 q 860 449 860 568 q 798 210 860 314 q 633 51 736 107 q 407 -6 529 -6 m 393 14 q 582 61 500 14 q 710 199 664 108 q 756 418 756 290 q 713 635 756 536 q 588 793 669 735 q 396 851 507 851 q 288 832 317 851 q 258 753 258 813 l 258 128 q 286 40 258 67 q 393 14 314 14 z "},"Ð":{"ha":919,"x_min":40,"x_max":860,"o":"m 388 871 q 633 816 525 871 q 800 665 740 761 q 860 449 860 568 q 798 210 860 314 q 633 51 736 107 q 407 -6 529 -6 q 321 -1 369 -6 q 275 1 301 0 q 215 3 249 3 l 121 1 q 57 0 97 0 q 53 8 54 0 q 57 17 53 17 q 129 24 106 17 q 162 51 153 32 q 169 113 171 71 l 169 418 l 46 418 q 42 422 44 418 q 40 432 40 426 q 42 442 40 438 q 46 446 44 446 l 169 446 l 169 756 q 160 817 168 797 q 128 844 151 836 q 57 851 106 851 q 53 860 54 851 q 57 868 53 868 l 122 867 q 214 864 178 864 q 307 868 260 864 q 388 871 365 871 m 393 14 q 582 61 500 14 q 710 199 664 108 q 756 418 756 290 q 713 635 756 536 q 588 793 669 735 q 396 851 507 851 q 288 832 317 851 q 258 753 258 813 l 258 446 l 410 446 q 415 442 413 446 q 417 432 417 438 q 415 422 417 426 q 410 418 413 418 l 258 418 l 258 128 q 286 40 258 67 q 393 14 314 14 z "},"Ď":{"ha":919,"x_min":53,"x_max":860,"o":"m 407 -6 q 321 -1 369 -6 q 275 1 301 0 q 215 3 249 3 l 121 1 q 57 0 97 0 q 53 8 54 0 q 57 17 53 17 q 129 24 106 17 q 162 51 153 32 q 169 113 171 71 l 169 756 q 160 817 168 797 q 128 844 151 836 q 57 851 106 851 q 53 860 54 851 q 57 868 53 868 l 122 867 q 214 864 178 864 q 307 868 260 864 q 388 871 365 871 q 633 816 525 871 q 800 665 740 761 q 860 449 860 568 q 798 210 860 314 q 633 51 736 107 q 407 -6 529 -6 m 393 14 q 582 61 500 14 q 710 199 664 108 q 756 418 756 290 q 713 635 756 536 q 588 793 669 735 q 396 851 507 851 q 288 832 317 851 q 258 753 258 813 l 258 128 q 286 40 258 67 q 393 14 314 14 m 233 1074 l 233 1075 q 237 1081 233 1078 q 242 1083 240 1085 l 375 1003 l 501 1085 q 509 1081 504 1086 q 511 1074 514 1075 l 386 938 q 374 932 382 932 q 360 938 365 932 l 233 1074 z "},"Đ":{"ha":919,"x_min":40,"x_max":860,"o":"m 388 871 q 633 816 525 871 q 800 665 740 761 q 860 449 860 568 q 798 210 860 314 q 633 51 736 107 q 407 -6 529 -6 q 321 -1 369 -6 q 275 1 301 0 q 215 3 249 3 l 121 1 q 57 0 97 0 q 53 8 54 0 q 57 17 53 17 q 129 24 106 17 q 162 51 153 32 q 169 113 171 71 l 169 418 l 46 418 q 42 422 44 418 q 40 432 40 426 q 42 442 40 438 q 46 446 44 446 l 169 446 l 169 756 q 160 817 168 797 q 128 844 151 836 q 57 851 106 851 q 53 860 54 851 q 57 868 53 868 l 122 867 q 214 864 178 864 q 307 868 260 864 q 388 871 365 871 m 393 14 q 582 61 500 14 q 710 199 664 108 q 756 418 756 290 q 713 635 756 536 q 588 793 669 735 q 396 851 507 851 q 288 832 317 851 q 258 753 258 813 l 258 446 l 410 446 q 415 442 413 446 q 417 432 417 438 q 415 422 417 426 q 410 418 413 418 l 258 418 l 258 128 q 286 40 258 67 q 393 14 314 14 z "},"Ḍ":{"ha":919,"x_min":53,"x_max":860,"o":"m 407 -6 q 321 -1 369 -6 q 275 1 301 0 q 215 3 249 3 l 121 1 q 57 0 97 0 q 53 8 54 0 q 57 17 53 17 q 129 24 106 17 q 162 51 153 32 q 169 113 171 71 l 169 756 q 160 817 168 797 q 128 844 151 836 q 57 851 106 851 q 53 860 54 851 q 57 868 53 868 l 122 867 q 214 864 178 864 q 307 868 260 864 q 388 871 365 871 q 633 816 525 871 q 800 665 740 761 q 860 449 860 568 q 798 210 860 314 q 633 51 736 107 q 407 -6 529 -6 m 393 14 q 582 61 500 14 q 710 199 664 108 q 756 418 756 290 q 713 635 756 536 q 588 793 669 735 q 396 851 507 851 q 288 832 317 851 q 258 753 258 813 l 258 128 q 286 40 258 67 q 393 14 314 14 m 454 -264 q 408 -248 425 -264 q 392 -203 392 -232 q 408 -161 392 -176 q 454 -146 425 -146 q 497 -161 481 -146 q 513 -203 513 -176 q 497 -248 513 -232 q 454 -264 482 -264 z "},"Ḏ":{"ha":919,"x_min":53,"x_max":860,"o":"m 407 -6 q 321 -1 369 -6 q 275 1 301 0 q 215 3 249 3 l 121 1 q 57 0 97 0 q 53 8 54 0 q 57 17 53 17 q 129 24 106 17 q 162 51 153 32 q 169 113 171 71 l 169 756 q 160 817 168 797 q 128 844 151 836 q 57 851 106 851 q 53 860 54 851 q 57 868 53 868 l 122 867 q 214 864 178 864 q 307 868 260 864 q 388 871 365 871 q 633 816 525 871 q 800 665 740 761 q 860 449 860 568 q 798 210 860 314 q 633 51 736 107 q 407 -6 529 -6 m 393 14 q 582 61 500 14 q 710 199 664 108 q 756 418 756 290 q 713 635 756 536 q 588 793 669 735 q 396 851 507 851 q 288 832 317 851 q 258 753 258 813 l 258 128 q 286 40 258 67 q 393 14 314 14 m 282 -162 q 274 -143 274 -162 q 282 -124 274 -124 l 613 -124 q 621 -143 621 -124 q 613 -162 621 -162 l 282 -162 z "},"E":{"ha":771,"x_min":60,"x_max":724,"o":"m 704 207 q 711 211 704 211 q 719 209 715 211 q 722 204 724 207 q 710 21 710 132 q 706 5 710 10 q 689 0 701 0 l 67 0 q 61 8 61 0 q 65 17 61 17 q 138 24 115 17 q 169 51 161 31 q 178 113 178 71 l 178 756 q 167 817 175 797 q 135 844 158 836 q 64 851 113 851 q 60 860 60 851 q 63 868 60 868 l 650 868 q 658 865 656 868 q 660 856 660 863 q 664 683 664 779 q 656 678 664 678 q 647 683 647 678 q 601 802 640 757 q 499 847 561 847 l 374 847 q 303 840 325 847 q 273 815 281 833 q 264 754 265 796 l 264 467 l 481 467 q 567 488 542 467 q 590 564 592 510 q 599 569 590 569 q 606 564 607 569 l 606 518 l 606 451 l 607 390 q 610 322 610 349 q 601 317 610 317 q 592 322 592 317 q 565 411 592 385 q 474 438 538 438 l 264 438 l 264 118 q 272 59 264 78 q 303 33 281 40 q 372 26 325 26 l 539 26 q 642 76 597 26 q 704 207 686 125 z "},"É":{"ha":771,"x_min":60,"x_max":722,"o":"m 704 207 q 711 211 704 211 q 719 209 715 211 q 722 204 724 207 q 710 21 710 132 q 706 5 710 10 q 689 0 701 0 l 67 0 q 61 8 61 0 q 65 17 61 17 q 138 24 115 17 q 169 51 161 31 q 178 113 178 71 l 178 756 q 167 817 175 797 q 135 844 158 836 q 64 851 113 851 q 60 860 60 851 q 63 868 60 868 l 650 868 q 658 865 656 868 q 660 856 660 863 q 664 683 664 779 q 656 678 664 678 q 647 683 647 678 q 601 802 640 757 q 499 847 561 847 l 374 847 q 303 840 325 847 q 273 815 281 833 q 264 754 265 796 l 264 467 l 481 467 q 567 488 542 467 q 590 564 592 510 q 599 569 590 569 q 606 564 607 569 l 606 518 l 606 451 l 607 390 q 610 322 610 349 q 601 317 610 317 q 592 322 592 317 q 565 411 592 385 q 474 438 538 438 l 264 438 l 264 118 q 272 59 264 78 q 303 33 281 40 q 372 26 325 26 l 539 26 q 642 76 597 26 q 704 207 686 125 m 303 942 q 294 948 297 942 q 296 957 292 954 q 433 1046 351 989 q 460 1065 444 1054 q 497 1089 476 1076 q 532 1083 503 1092 q 583 1063 561 1074 q 594 1050 604 1051 q 306 943 446 1011 l 303 942 z "},"Ĕ":{"ha":771,"x_min":60,"x_max":722,"o":"m 704 207 q 711 211 704 211 q 719 209 715 211 q 722 204 724 207 q 710 21 710 132 q 706 5 710 10 q 689 0 701 0 l 67 0 q 61 8 61 0 q 65 17 61 17 q 138 24 115 17 q 169 51 161 31 q 178 113 178 71 l 178 756 q 167 817 175 797 q 135 844 158 836 q 64 851 113 851 q 60 860 60 851 q 63 868 60 868 l 650 868 q 658 865 656 868 q 660 856 660 863 q 664 683 664 779 q 656 678 664 678 q 647 683 647 678 q 601 802 640 757 q 499 847 561 847 l 374 847 q 303 840 325 847 q 273 815 281 833 q 264 754 265 796 l 264 467 l 481 467 q 567 488 542 467 q 590 564 592 510 q 599 569 590 569 q 606 564 607 569 l 606 518 l 606 451 l 607 390 q 610 322 610 349 q 601 317 610 317 q 592 322 592 317 q 565 411 592 385 q 474 438 538 438 l 264 438 l 264 118 q 272 59 264 78 q 303 33 281 40 q 372 26 325 26 l 539 26 q 642 76 597 26 q 704 207 686 125 m 385 924 q 303 956 340 924 q 256 1044 267 988 q 273 1060 254 1053 q 308 1067 292 1067 q 322 1063 322 1067 q 358 998 333 1021 q 413 975 383 975 q 465 997 440 975 q 501 1057 489 1018 q 510 1061 504 1061 q 521 1058 515 1061 q 525 1053 526 1056 q 470 957 510 990 q 385 924 431 924 z "},"Ě":{"ha":771,"x_min":60,"x_max":722,"o":"m 704 207 q 711 211 704 211 q 719 209 715 211 q 722 204 724 207 q 710 21 710 132 q 706 5 710 10 q 689 0 701 0 l 67 0 q 61 8 61 0 q 65 17 61 17 q 138 24 115 17 q 169 51 161 31 q 178 113 178 71 l 178 756 q 167 817 175 797 q 135 844 158 836 q 64 851 113 851 q 60 860 60 851 q 63 868 60 868 l 650 868 q 658 865 656 868 q 660 856 660 863 q 664 683 664 779 q 656 678 664 678 q 647 683 647 678 q 601 802 640 757 q 499 847 561 847 l 374 847 q 303 840 325 847 q 273 815 281 833 q 264 754 265 796 l 264 467 l 481 467 q 567 488 542 467 q 590 564 592 510 q 599 569 590 569 q 606 564 607 569 l 606 518 l 606 451 l 607 390 q 610 322 610 349 q 601 317 610 317 q 592 322 592 317 q 565 411 592 385 q 474 438 538 438 l 264 438 l 264 118 q 272 59 264 78 q 303 33 281 40 q 372 26 325 26 l 539 26 q 642 76 597 26 q 704 207 686 125 m 244 1074 l 244 1075 q 248 1081 244 1078 q 253 1083 251 1085 l 386 1003 l 513 1085 q 520 1081 515 1086 q 522 1074 525 1075 l 397 938 q 385 932 393 932 q 371 938 376 932 l 244 1074 z "},"Ê":{"ha":771,"x_min":60,"x_max":722,"o":"m 704 207 q 711 211 704 211 q 719 209 715 211 q 722 204 724 207 q 710 21 710 132 q 706 5 710 10 q 689 0 701 0 l 67 0 q 61 8 61 0 q 65 17 61 17 q 138 24 115 17 q 169 51 161 31 q 178 113 178 71 l 178 756 q 167 817 175 797 q 135 844 158 836 q 64 851 113 851 q 60 860 60 851 q 63 868 60 868 l 650 868 q 658 865 656 868 q 660 856 660 863 q 664 683 664 779 q 656 678 664 678 q 647 683 647 678 q 601 802 640 757 q 499 847 561 847 l 374 847 q 303 840 325 847 q 273 815 281 833 q 264 754 265 796 l 264 467 l 481 467 q 567 488 542 467 q 590 564 592 510 q 599 569 590 569 q 606 564 607 569 l 606 518 l 606 451 l 607 390 q 610 322 610 349 q 601 317 610 317 q 592 322 592 317 q 565 411 592 385 q 474 438 538 438 l 264 438 l 264 118 q 272 59 264 78 q 303 33 281 40 q 372 26 325 26 l 539 26 q 642 76 597 26 q 704 207 686 125 m 260 917 q 252 920 256 917 q 251 926 249 924 l 376 1061 q 388 1068 381 1068 q 401 1061 394 1068 l 529 926 l 529 924 q 526 917 529 919 q 521 917 524 914 l 386 996 l 261 917 l 260 917 z "},"Ế":{"ha":771,"x_min":60,"x_max":722,"o":"m 704 207 q 711 211 704 211 q 719 209 715 211 q 722 204 724 207 q 710 21 710 132 q 706 5 710 10 q 689 0 701 0 l 67 0 q 61 8 61 0 q 65 17 61 17 q 138 24 115 17 q 169 51 161 31 q 178 113 178 71 l 178 756 q 167 817 175 797 q 135 844 158 836 q 64 851 113 851 q 60 860 60 851 q 63 868 60 868 l 650 868 q 658 865 656 868 q 660 856 660 863 q 664 683 664 779 q 656 678 664 678 q 647 683 647 678 q 601 802 640 757 q 499 847 561 847 l 374 847 q 303 840 325 847 q 273 815 281 833 q 264 754 265 796 l 264 467 l 481 467 q 567 488 542 467 q 590 564 592 510 q 599 569 590 569 q 606 564 607 569 l 606 518 l 606 451 l 607 390 q 610 322 610 349 q 601 317 610 317 q 592 322 592 317 q 565 411 592 385 q 474 438 538 438 l 264 438 l 264 118 q 272 59 264 78 q 303 33 281 40 q 372 26 325 26 l 539 26 q 642 76 597 26 q 704 207 686 125 m 260 917 q 252 920 256 917 q 251 926 249 924 l 376 1061 q 388 1068 381 1068 q 401 1061 394 1068 l 529 926 l 529 924 q 526 917 529 919 q 521 917 524 914 l 386 996 l 261 917 l 260 917 m 482 1011 q 478 1010 481 1010 q 472 1015 474 1010 q 472 1024 469 1019 q 578 1158 535 1090 q 609 1155 582 1164 q 657 1133 636 1146 q 668 1118 678 1121 q 482 1011 578 1082 z "},"Ệ":{"ha":771,"x_min":60,"x_max":722,"o":"m 704 207 q 711 211 704 211 q 719 209 715 211 q 722 204 724 207 q 710 21 710 132 q 706 5 710 10 q 689 0 701 0 l 67 0 q 61 8 61 0 q 65 17 61 17 q 138 24 115 17 q 169 51 161 31 q 178 113 178 71 l 178 756 q 167 817 175 797 q 135 844 158 836 q 64 851 113 851 q 60 860 60 851 q 63 868 60 868 l 650 868 q 658 865 656 868 q 660 856 660 863 q 664 683 664 779 q 656 678 664 678 q 647 683 647 678 q 601 802 640 757 q 499 847 561 847 l 374 847 q 303 840 325 847 q 273 815 281 833 q 264 754 265 796 l 264 467 l 481 467 q 567 488 542 467 q 590 564 592 510 q 599 569 590 569 q 606 564 607 569 l 606 518 l 606 451 l 607 390 q 610 322 610 349 q 601 317 610 317 q 592 322 592 317 q 565 411 592 385 q 474 438 538 438 l 264 438 l 264 118 q 272 59 264 78 q 303 33 281 40 q 372 26 325 26 l 539 26 q 642 76 597 26 q 704 207 686 125 m 418 -264 q 372 -248 389 -264 q 356 -203 356 -232 q 372 -161 356 -176 q 418 -146 389 -146 q 460 -161 444 -146 q 476 -203 476 -176 q 461 -248 476 -232 q 418 -264 446 -264 m 260 917 q 252 920 256 917 q 251 926 249 924 l 376 1061 q 388 1068 381 1068 q 401 1061 394 1068 l 529 926 l 529 924 q 526 917 529 919 q 521 917 524 914 l 386 996 l 261 917 l 260 917 z "},"Ề":{"ha":771,"x_min":60,"x_max":722,"o":"m 704 207 q 711 211 704 211 q 719 209 715 211 q 722 204 724 207 q 710 21 710 132 q 706 5 710 10 q 689 0 701 0 l 67 0 q 61 8 61 0 q 65 17 61 17 q 138 24 115 17 q 169 51 161 31 q 178 113 178 71 l 178 756 q 167 817 175 797 q 135 844 158 836 q 64 851 113 851 q 60 860 60 851 q 63 868 60 868 l 650 868 q 658 865 656 868 q 660 856 660 863 q 664 683 664 779 q 656 678 664 678 q 647 683 647 678 q 601 802 640 757 q 499 847 561 847 l 374 847 q 303 840 325 847 q 273 815 281 833 q 264 754 265 796 l 264 467 l 481 467 q 567 488 542 467 q 590 564 592 510 q 599 569 590 569 q 606 564 607 569 l 606 518 l 606 451 l 607 390 q 610 322 610 349 q 601 317 610 317 q 592 322 592 317 q 565 411 592 385 q 474 438 538 438 l 264 438 l 264 118 q 272 59 264 78 q 303 33 281 40 q 372 26 325 26 l 539 26 q 642 76 597 26 q 704 207 686 125 m 260 917 q 252 920 256 917 q 251 926 249 924 l 376 1061 q 388 1068 381 1068 q 401 1061 394 1068 l 529 926 l 529 924 q 526 917 529 919 q 521 917 524 914 l 386 996 l 261 917 l 260 917 m 593 979 q 408 1086 497 1049 q 419 1101 399 1089 q 467 1123 440 1114 q 499 1126 494 1132 q 604 992 538 1065 q 606 988 606 990 q 602 981 606 983 q 593 979 599 978 z "},"Ể":{"ha":771,"x_min":60,"x_max":722,"o":"m 704 207 q 711 211 704 211 q 719 209 715 211 q 722 204 724 207 q 710 21 710 132 q 706 5 710 10 q 689 0 701 0 l 67 0 q 61 8 61 0 q 65 17 61 17 q 138 24 115 17 q 169 51 161 31 q 178 113 178 71 l 178 756 q 167 817 175 797 q 135 844 158 836 q 64 851 113 851 q 60 860 60 851 q 63 868 60 868 l 650 868 q 658 865 656 868 q 660 856 660 863 q 664 683 664 779 q 656 678 664 678 q 647 683 647 678 q 601 802 640 757 q 499 847 561 847 l 374 847 q 303 840 325 847 q 273 815 281 833 q 264 754 265 796 l 264 467 l 481 467 q 567 488 542 467 q 590 564 592 510 q 599 569 590 569 q 606 564 607 569 l 606 518 l 606 451 l 607 390 q 610 322 610 349 q 601 317 610 317 q 592 322 592 317 q 565 411 592 385 q 474 438 538 438 l 264 438 l 264 118 q 272 59 264 78 q 303 33 281 40 q 372 26 325 26 l 539 26 q 642 76 597 26 q 704 207 686 125 m 260 903 q 252 906 256 903 q 251 913 249 910 l 376 1047 q 388 1054 381 1054 q 401 1047 394 1054 l 529 913 l 529 910 q 526 903 529 906 q 521 903 524 900 l 386 982 l 261 903 l 260 903 m 488 986 q 485 1004 485 993 q 504 1056 485 1022 q 517 1083 511 1068 q 524 1110 524 1097 q 509 1142 524 1131 q 476 1154 494 1154 q 446 1146 460 1154 l 444 1146 q 435 1151 439 1146 q 435 1157 431 1156 q 478 1176 456 1169 q 519 1183 501 1183 q 567 1166 550 1183 q 583 1125 583 1149 q 573 1090 583 1106 q 539 1050 563 1075 q 508 1016 518 1031 q 503 986 499 1001 q 497 983 504 983 q 488 986 489 983 z "},"Ễ":{"ha":771,"x_min":60,"x_max":722,"o":"m 704 207 q 711 211 704 211 q 719 209 715 211 q 722 204 724 207 q 710 21 710 132 q 706 5 710 10 q 689 0 701 0 l 67 0 q 61 8 61 0 q 65 17 61 17 q 138 24 115 17 q 169 51 161 31 q 178 113 178 71 l 178 756 q 167 817 175 797 q 135 844 158 836 q 64 851 113 851 q 60 860 60 851 q 63 868 60 868 l 650 868 q 658 865 656 868 q 660 856 660 863 q 664 683 664 779 q 656 678 664 678 q 647 683 647 678 q 601 802 640 757 q 499 847 561 847 l 374 847 q 303 840 325 847 q 273 815 281 833 q 264 754 265 796 l 264 467 l 481 467 q 567 488 542 467 q 590 564 592 510 q 599 569 590 569 q 606 564 607 569 l 606 518 l 606 451 l 607 390 q 610 322 610 349 q 601 317 610 317 q 592 322 592 317 q 565 411 592 385 q 474 438 538 438 l 264 438 l 264 118 q 272 59 264 78 q 303 33 281 40 q 372 26 325 26 l 539 26 q 642 76 597 26 q 704 207 686 125 m 261 917 q 253 920 257 917 q 253 926 250 924 l 378 1061 q 389 1068 382 1068 q 403 1061 396 1068 l 531 926 l 531 924 q 528 917 531 919 q 522 917 525 914 l 388 996 l 263 917 l 261 917 m 231 1079 q 224 1083 228 1079 q 221 1089 219 1086 q 267 1148 240 1122 q 328 1174 294 1174 q 401 1160 346 1174 q 507 1140 465 1140 q 546 1150 532 1140 q 572 1178 560 1160 l 574 1178 q 582 1174 578 1178 q 583 1168 586 1171 q 535 1100 556 1118 q 486 1082 514 1082 q 399 1099 457 1082 q 362 1108 393 1100 q 299 1117 331 1117 q 264 1110 275 1117 q 244 1093 253 1103 q 232 1079 236 1083 l 231 1079 z "},"Ë":{"ha":771,"x_min":60,"x_max":722,"o":"m 704 207 q 711 211 704 211 q 719 209 715 211 q 722 204 724 207 q 710 21 710 132 q 706 5 710 10 q 689 0 701 0 l 67 0 q 61 8 61 0 q 65 17 61 17 q 138 24 115 17 q 169 51 161 31 q 178 113 178 71 l 178 756 q 167 817 175 797 q 135 844 158 836 q 64 851 113 851 q 60 860 60 851 q 63 868 60 868 l 650 868 q 658 865 656 868 q 660 856 660 863 q 664 683 664 779 q 656 678 664 678 q 647 683 647 678 q 601 802 640 757 q 499 847 561 847 l 374 847 q 303 840 325 847 q 273 815 281 833 q 264 754 265 796 l 264 467 l 481 467 q 567 488 542 467 q 590 564 592 510 q 599 569 590 569 q 606 564 607 569 l 606 518 l 606 451 l 607 390 q 610 322 610 349 q 601 317 610 317 q 592 322 592 317 q 565 411 592 385 q 474 438 538 438 l 264 438 l 264 118 q 272 59 264 78 q 303 33 281 40 q 372 26 325 26 l 539 26 q 642 76 597 26 q 704 207 686 125 m 282 996 q 238 1011 254 996 q 221 1053 221 1026 q 238 1094 221 1079 q 282 1110 254 1110 q 324 1095 310 1110 q 339 1053 339 1081 q 324 1011 339 1026 q 282 996 310 996 m 496 996 q 452 1011 468 996 q 436 1053 436 1026 q 452 1094 436 1079 q 496 1110 468 1110 q 538 1095 524 1110 q 553 1053 553 1081 q 538 1011 553 1026 q 496 996 524 996 z "},"Ė":{"ha":771,"x_min":60,"x_max":722,"o":"m 704 207 q 711 211 704 211 q 719 209 715 211 q 722 204 724 207 q 710 21 710 132 q 706 5 710 10 q 689 0 701 0 l 67 0 q 61 8 61 0 q 65 17 61 17 q 138 24 115 17 q 169 51 161 31 q 178 113 178 71 l 178 756 q 167 817 175 797 q 135 844 158 836 q 64 851 113 851 q 60 860 60 851 q 63 868 60 868 l 650 868 q 658 865 656 868 q 660 856 660 863 q 664 683 664 779 q 656 678 664 678 q 647 683 647 678 q 601 802 640 757 q 499 847 561 847 l 374 847 q 303 840 325 847 q 273 815 281 833 q 264 754 265 796 l 264 467 l 481 467 q 567 488 542 467 q 590 564 592 510 q 599 569 590 569 q 606 564 607 569 l 606 518 l 606 451 l 607 390 q 610 322 610 349 q 601 317 610 317 q 592 322 592 317 q 565 411 592 385 q 474 438 538 438 l 264 438 l 264 118 q 272 59 264 78 q 303 33 281 40 q 372 26 325 26 l 539 26 q 642 76 597 26 q 704 207 686 125 m 388 982 q 343 998 360 982 q 326 1043 326 1014 q 343 1085 326 1069 q 388 1100 360 1100 q 431 1085 415 1100 q 447 1043 447 1069 q 431 998 447 1014 q 388 982 415 982 z "},"Ẹ":{"ha":771,"x_min":60,"x_max":722,"o":"m 704 207 q 711 211 704 211 q 719 209 715 211 q 722 204 724 207 q 710 21 710 132 q 706 5 710 10 q 689 0 701 0 l 67 0 q 61 8 61 0 q 65 17 61 17 q 138 24 115 17 q 169 51 161 31 q 178 113 178 71 l 178 756 q 167 817 175 797 q 135 844 158 836 q 64 851 113 851 q 60 860 60 851 q 63 868 60 868 l 650 868 q 658 865 656 868 q 660 856 660 863 q 664 683 664 779 q 656 678 664 678 q 647 683 647 678 q 601 802 640 757 q 499 847 561 847 l 374 847 q 303 840 325 847 q 273 815 281 833 q 264 754 265 796 l 264 467 l 481 467 q 567 488 542 467 q 590 564 592 510 q 599 569 590 569 q 606 564 607 569 l 606 518 l 606 451 l 607 390 q 610 322 610 349 q 601 317 610 317 q 592 322 592 317 q 565 411 592 385 q 474 438 538 438 l 264 438 l 264 118 q 272 59 264 78 q 303 33 281 40 q 372 26 325 26 l 539 26 q 642 76 597 26 q 704 207 686 125 m 418 -264 q 372 -248 389 -264 q 356 -203 356 -232 q 372 -161 356 -176 q 418 -146 389 -146 q 460 -161 444 -146 q 476 -203 476 -176 q 461 -248 476 -232 q 418 -264 446 -264 z "},"È":{"ha":771,"x_min":60,"x_max":722,"o":"m 704 207 q 711 211 704 211 q 719 209 715 211 q 722 204 724 207 q 710 21 710 132 q 706 5 710 10 q 689 0 701 0 l 67 0 q 61 8 61 0 q 65 17 61 17 q 138 24 115 17 q 169 51 161 31 q 178 113 178 71 l 178 756 q 167 817 175 797 q 135 844 158 836 q 64 851 113 851 q 60 860 60 851 q 63 868 60 868 l 650 868 q 658 865 656 868 q 660 856 660 863 q 664 683 664 779 q 656 678 664 678 q 647 683 647 678 q 601 802 640 757 q 499 847 561 847 l 374 847 q 303 840 325 847 q 273 815 281 833 q 264 754 265 796 l 264 467 l 481 467 q 567 488 542 467 q 590 564 592 510 q 599 569 590 569 q 606 564 607 569 l 606 518 l 606 451 l 607 390 q 610 322 610 349 q 601 317 610 317 q 592 322 592 317 q 565 411 592 385 q 474 438 538 438 l 264 438 l 264 118 q 272 59 264 78 q 303 33 281 40 q 372 26 325 26 l 539 26 q 642 76 597 26 q 704 207 686 125 m 522 947 q 382 1006 444 982 q 243 1050 319 1029 q 253 1064 232 1053 q 304 1083 275 1075 q 340 1089 333 1092 q 526 960 442 1014 q 529 951 532 958 q 522 947 526 944 z "},"Ẻ":{"ha":771,"x_min":60,"x_max":722,"o":"m 704 207 q 711 211 704 211 q 719 209 715 211 q 722 204 724 207 q 710 21 710 132 q 706 5 710 10 q 689 0 701 0 l 67 0 q 61 8 61 0 q 65 17 61 17 q 138 24 115 17 q 169 51 161 31 q 178 113 178 71 l 178 756 q 167 817 175 797 q 135 844 158 836 q 64 851 113 851 q 60 860 60 851 q 63 868 60 868 l 650 868 q 658 865 656 868 q 660 856 660 863 q 664 683 664 779 q 656 678 664 678 q 647 683 647 678 q 601 802 640 757 q 499 847 561 847 l 374 847 q 303 840 325 847 q 273 815 281 833 q 264 754 265 796 l 264 467 l 481 467 q 567 488 542 467 q 590 564 592 510 q 599 569 590 569 q 606 564 607 569 l 606 518 l 606 451 l 607 390 q 610 322 610 349 q 601 317 610 317 q 592 322 592 317 q 565 411 592 385 q 474 438 538 438 l 264 438 l 264 118 q 272 59 264 78 q 303 33 281 40 q 372 26 325 26 l 539 26 q 642 76 597 26 q 704 207 686 125 m 394 903 q 388 900 396 900 q 378 903 379 900 q 372 935 372 918 q 378 969 372 954 q 399 1008 385 983 q 418 1046 413 1033 q 424 1075 424 1058 q 406 1120 424 1104 q 364 1136 389 1136 q 325 1128 342 1136 l 322 1126 q 315 1131 318 1126 q 317 1139 313 1136 q 406 1167 357 1167 q 472 1146 447 1167 q 496 1093 496 1125 q 482 1047 496 1068 q 442 999 468 1026 q 406 957 418 975 q 393 918 393 939 q 394 903 393 908 z "},"Ē":{"ha":771,"x_min":60,"x_max":722,"o":"m 704 207 q 711 211 704 211 q 719 209 715 211 q 722 204 724 207 q 710 21 710 132 q 706 5 710 10 q 689 0 701 0 l 67 0 q 61 8 61 0 q 65 17 61 17 q 138 24 115 17 q 169 51 161 31 q 178 113 178 71 l 178 756 q 167 817 175 797 q 135 844 158 836 q 64 851 113 851 q 60 860 60 851 q 63 868 60 868 l 650 868 q 658 865 656 868 q 660 856 660 863 q 664 683 664 779 q 656 678 664 678 q 647 683 647 678 q 601 802 640 757 q 499 847 561 847 l 374 847 q 303 840 325 847 q 273 815 281 833 q 264 754 265 796 l 264 467 l 481 467 q 567 488 542 467 q 590 564 592 510 q 599 569 590 569 q 606 564 607 569 l 606 518 l 606 451 l 607 390 q 610 322 610 349 q 601 317 610 317 q 592 322 592 317 q 565 411 592 385 q 474 438 538 438 l 264 438 l 264 118 q 272 59 264 78 q 303 33 281 40 q 372 26 325 26 l 539 26 q 642 76 597 26 q 704 207 686 125 m 229 997 q 221 1017 221 997 q 229 1036 221 1036 l 560 1036 q 568 1017 568 1036 q 560 997 568 997 l 229 997 z "},"Ę":{"ha":771,"x_min":60,"x_max":725,"o":"m 710 -304 q 720 -309 715 -304 q 722 -317 725 -314 q 594 -382 663 -382 q 500 -344 536 -382 q 463 -246 464 -307 q 501 -130 464 -190 q 604 0 539 -69 l 67 0 q 61 8 61 0 q 65 17 61 17 q 138 24 115 17 q 169 51 161 31 q 178 113 178 71 l 178 756 q 167 817 175 797 q 135 844 158 836 q 64 851 113 851 q 60 860 60 851 q 63 868 60 868 l 650 868 q 658 865 656 868 q 660 856 660 863 q 664 683 664 779 q 656 678 664 678 q 647 683 647 678 q 601 802 640 757 q 499 847 561 847 l 374 847 q 303 840 325 847 q 273 815 281 833 q 264 754 265 796 l 264 467 l 481 467 q 567 488 542 467 q 590 564 592 510 q 599 569 590 569 q 606 564 607 569 l 606 518 l 606 451 l 607 390 q 610 322 610 349 q 601 317 610 317 q 592 322 592 317 q 565 411 592 385 q 474 438 538 438 l 264 438 l 264 118 q 272 59 264 78 q 303 33 281 40 q 372 26 325 26 l 539 26 q 642 76 597 26 q 704 207 686 125 q 711 211 704 211 q 719 209 715 211 q 722 204 724 207 q 710 21 710 132 q 706 5 710 10 q 689 0 701 0 l 629 0 q 554 -107 581 -57 q 529 -206 528 -157 q 556 -304 529 -268 q 633 -340 582 -340 q 674 -331 658 -340 q 708 -304 690 -322 l 710 -304 z "},"Ẽ":{"ha":771,"x_min":60,"x_max":722,"o":"m 704 207 q 711 211 704 211 q 719 209 715 211 q 722 204 724 207 q 710 21 710 132 q 706 5 710 10 q 689 0 701 0 l 67 0 q 61 8 61 0 q 65 17 61 17 q 138 24 115 17 q 169 51 161 31 q 178 113 178 71 l 178 756 q 167 817 175 797 q 135 844 158 836 q 64 851 113 851 q 60 860 60 851 q 63 868 60 868 l 650 868 q 658 865 656 868 q 660 856 660 863 q 664 683 664 779 q 656 678 664 678 q 647 683 647 678 q 601 802 640 757 q 499 847 561 847 l 374 847 q 303 840 325 847 q 273 815 281 833 q 264 754 265 796 l 264 467 l 481 467 q 567 488 542 467 q 590 564 592 510 q 599 569 590 569 q 606 564 607 569 l 606 518 l 606 451 l 607 390 q 610 322 610 349 q 601 317 610 317 q 592 322 592 317 q 565 411 592 385 q 474 438 538 438 l 264 438 l 264 118 q 272 59 264 78 q 303 33 281 40 q 372 26 325 26 l 539 26 q 642 76 597 26 q 704 207 686 125 m 224 965 q 215 969 219 965 q 214 975 211 972 q 318 1061 263 1061 q 392 1046 343 1061 q 499 1026 458 1026 q 535 1035 522 1026 q 565 1064 549 1044 l 567 1064 q 574 1060 569 1064 q 576 1054 578 1057 q 526 987 547 1004 q 478 969 506 969 q 426 976 453 969 q 392 985 399 983 q 290 1003 332 1003 q 253 994 264 1003 q 225 965 242 986 l 224 965 z "},"F":{"ha":722,"x_min":56,"x_max":661,"o":"m 656 856 q 657 817 656 831 q 658 749 657 793 q 661 683 660 704 q 653 678 661 678 q 643 683 643 678 q 597 802 636 757 q 494 847 557 847 l 369 847 q 297 840 319 847 q 268 815 275 833 q 260 754 261 796 l 260 450 l 458 450 q 544 472 519 450 q 568 547 568 493 q 577 554 568 554 q 583 547 586 554 q 585 501 585 529 l 583 435 l 585 374 q 588 306 588 332 q 579 300 588 300 q 571 306 571 300 q 543 394 571 367 q 451 421 515 421 l 260 421 l 260 118 q 273 53 263 74 q 317 25 283 33 q 426 17 350 17 q 431 8 431 17 q 426 0 431 0 q 349 1 378 0 l 214 3 l 125 1 q 61 0 101 0 q 58 8 58 0 q 61 17 58 17 q 133 24 110 17 q 164 51 156 31 q 172 113 172 71 l 172 756 q 163 817 171 797 q 131 844 154 836 q 60 851 108 851 q 56 860 57 851 q 60 868 56 868 l 644 868 q 653 865 651 868 q 656 856 656 863 z "},"G":{"ha":947,"x_min":64,"x_max":904,"o":"m 550 -17 q 291 42 401 -17 q 122 201 181 100 q 64 431 64 303 q 131 665 64 561 q 316 826 199 768 q 579 883 433 883 q 701 870 643 883 q 797 833 758 857 q 811 819 808 824 q 815 801 814 814 l 829 649 q 822 642 829 643 q 811 646 814 640 q 710 799 785 746 q 526 853 636 853 q 260 753 356 853 q 165 481 165 653 q 219 234 165 342 q 369 67 274 126 q 586 8 465 8 q 687 22 651 8 q 738 70 722 35 q 754 175 754 106 q 745 275 754 246 q 706 314 736 304 q 600 324 675 324 q 593 335 593 324 q 599 346 593 346 q 765 339 699 339 q 897 343 829 339 q 903 333 903 343 q 897 324 904 324 q 854 314 867 325 q 838 272 842 303 q 835 161 835 242 q 839 71 835 96 q 843 39 843 46 q 840 28 843 32 q 831 22 838 25 q 550 -17 671 -17 z "},"Ğ":{"ha":947,"x_min":64,"x_max":904,"o":"m 550 -17 q 291 42 401 -17 q 122 201 181 100 q 64 431 64 303 q 131 665 64 561 q 316 826 199 768 q 579 883 433 883 q 701 870 643 883 q 797 833 758 857 q 811 819 808 824 q 815 801 814 814 l 829 649 q 822 642 829 643 q 811 646 814 640 q 710 799 785 746 q 526 853 636 853 q 260 753 356 853 q 165 481 165 653 q 219 234 165 342 q 369 67 274 126 q 586 8 465 8 q 687 22 651 8 q 738 70 722 35 q 754 175 754 106 q 745 275 754 246 q 706 314 736 304 q 600 324 675 324 q 593 335 593 324 q 599 346 593 346 q 765 339 699 339 q 897 343 829 339 q 903 333 903 343 q 897 324 904 324 q 854 314 867 325 q 838 272 842 303 q 835 161 835 242 q 839 71 835 96 q 843 39 843 46 q 840 28 843 32 q 831 22 838 25 q 550 -17 671 -17 m 538 924 q 456 956 493 924 q 408 1044 419 988 q 426 1060 407 1053 q 461 1067 444 1067 q 475 1063 475 1067 q 511 998 486 1021 q 565 975 536 975 q 617 997 593 975 q 654 1057 642 1018 q 663 1061 656 1061 q 674 1058 668 1061 q 678 1053 679 1056 q 622 957 661 990 q 538 924 583 924 z "},"Ǧ":{"ha":947,"x_min":64,"x_max":904,"o":"m 550 -17 q 291 42 401 -17 q 122 201 181 100 q 64 431 64 303 q 131 665 64 561 q 316 826 199 768 q 579 883 433 883 q 701 870 643 883 q 797 833 758 857 q 811 819 808 824 q 815 801 814 814 l 829 649 q 822 642 829 643 q 811 646 814 640 q 710 799 785 746 q 526 853 636 853 q 260 753 356 853 q 165 481 165 653 q 219 234 165 342 q 369 67 274 126 q 586 8 465 8 q 687 22 651 8 q 738 70 722 35 q 754 175 754 106 q 745 275 754 246 q 706 314 736 304 q 600 324 675 324 q 593 335 593 324 q 599 346 593 346 q 765 339 699 339 q 897 343 829 339 q 903 333 903 343 q 897 324 904 324 q 854 314 867 325 q 838 272 842 303 q 835 161 835 242 q 839 71 835 96 q 843 39 843 46 q 840 28 843 32 q 831 22 838 25 q 550 -17 671 -17 m 406 1074 l 406 1075 q 409 1081 406 1078 q 414 1083 413 1085 l 547 1003 l 674 1085 q 681 1081 676 1086 q 683 1074 686 1075 l 558 938 q 546 932 554 932 q 532 938 538 932 l 406 1074 z "},"Ĝ":{"ha":947,"x_min":64,"x_max":904,"o":"m 550 -17 q 291 42 401 -17 q 122 201 181 100 q 64 431 64 303 q 131 665 64 561 q 316 826 199 768 q 579 883 433 883 q 701 870 643 883 q 797 833 758 857 q 811 819 808 824 q 815 801 814 814 l 829 649 q 822 642 829 643 q 811 646 814 640 q 710 799 785 746 q 526 853 636 853 q 260 753 356 853 q 165 481 165 653 q 219 234 165 342 q 369 67 274 126 q 586 8 465 8 q 687 22 651 8 q 738 70 722 35 q 754 175 754 106 q 745 275 754 246 q 706 314 736 304 q 600 324 675 324 q 593 335 593 324 q 599 346 593 346 q 765 339 699 339 q 897 343 829 339 q 903 333 903 343 q 897 324 904 324 q 854 314 867 325 q 838 272 842 303 q 835 161 835 242 q 839 71 835 96 q 843 39 843 46 q 840 28 843 32 q 831 22 838 25 q 550 -17 671 -17 m 421 917 q 413 920 417 917 q 413 926 410 924 l 538 1061 q 549 1068 542 1068 q 563 1061 556 1068 l 690 926 l 690 924 q 688 917 690 919 q 682 917 685 914 l 547 996 l 422 917 l 421 917 z "},"Ģ":{"ha":947,"x_min":64,"x_max":904,"o":"m 550 -17 q 291 42 401 -17 q 122 201 181 100 q 64 431 64 303 q 131 665 64 561 q 316 826 199 768 q 579 883 433 883 q 701 870 643 883 q 797 833 758 857 q 811 819 808 824 q 815 801 814 814 l 829 649 q 822 642 829 643 q 811 646 814 640 q 710 799 785 746 q 526 853 636 853 q 260 753 356 853 q 165 481 165 653 q 219 234 165 342 q 369 67 274 126 q 586 8 465 8 q 687 22 651 8 q 738 70 722 35 q 754 175 754 106 q 745 275 754 246 q 706 314 736 304 q 600 324 675 324 q 593 335 593 324 q 599 346 593 346 q 765 339 699 339 q 897 343 829 339 q 903 333 903 343 q 897 324 904 324 q 854 314 867 325 q 838 272 842 303 q 835 161 835 242 q 839 71 835 96 q 843 39 843 46 q 840 28 843 32 q 831 22 838 25 q 550 -17 671 -17 m 569 -118 q 627 -144 607 -118 q 647 -219 647 -171 q 625 -306 647 -267 q 561 -382 603 -344 l 558 -383 q 551 -378 554 -383 q 551 -371 549 -374 q 613 -247 613 -318 q 604 -207 613 -219 q 563 -228 593 -228 q 523 -213 538 -228 q 508 -174 508 -199 q 569 -118 508 -118 z "},"Ġ":{"ha":947,"x_min":64,"x_max":904,"o":"m 550 -17 q 291 42 401 -17 q 122 201 181 100 q 64 431 64 303 q 131 665 64 561 q 316 826 199 768 q 579 883 433 883 q 701 870 643 883 q 797 833 758 857 q 811 819 808 824 q 815 801 814 814 l 829 649 q 822 642 829 643 q 811 646 814 640 q 710 799 785 746 q 526 853 636 853 q 260 753 356 853 q 165 481 165 653 q 219 234 165 342 q 369 67 274 126 q 586 8 465 8 q 687 22 651 8 q 738 70 722 35 q 754 175 754 106 q 745 275 754 246 q 706 314 736 304 q 600 324 675 324 q 593 335 593 324 q 599 346 593 346 q 765 339 699 339 q 897 343 829 339 q 903 333 903 343 q 897 324 904 324 q 854 314 867 325 q 838 272 842 303 q 835 161 835 242 q 839 71 835 96 q 843 39 843 46 q 840 28 843 32 q 831 22 838 25 q 550 -17 671 -17 m 549 982 q 504 998 521 982 q 488 1043 488 1014 q 504 1085 488 1069 q 549 1100 521 1100 q 592 1085 576 1100 q 608 1043 608 1069 q 592 998 608 1014 q 549 982 576 982 z "},"Ḡ":{"ha":947,"x_min":64,"x_max":904,"o":"m 550 -17 q 291 42 401 -17 q 122 201 181 100 q 64 431 64 303 q 131 665 64 561 q 316 826 199 768 q 579 883 433 883 q 701 870 643 883 q 797 833 758 857 q 811 819 808 824 q 815 801 814 814 l 829 649 q 822 642 829 643 q 811 646 814 640 q 710 799 785 746 q 526 853 636 853 q 260 753 356 853 q 165 481 165 653 q 219 234 165 342 q 369 67 274 126 q 586 8 465 8 q 687 22 651 8 q 738 70 722 35 q 754 175 754 106 q 745 275 754 246 q 706 314 736 304 q 600 324 675 324 q 593 335 593 324 q 599 346 593 346 q 765 339 699 339 q 897 343 829 339 q 903 333 903 343 q 897 324 904 324 q 854 314 867 325 q 838 272 842 303 q 835 161 835 242 q 839 71 835 96 q 843 39 843 46 q 840 28 843 32 q 831 22 838 25 q 550 -17 671 -17 m 383 997 q 375 1017 375 997 q 383 1036 375 1036 l 714 1036 q 722 1017 722 1036 q 714 997 722 997 l 383 997 z "},"H":{"ha":1008,"x_min":53,"x_max":954,"o":"m 950 17 q 954 8 954 17 q 950 0 954 0 q 888 1 911 0 l 796 3 l 704 1 q 639 0 681 0 q 635 8 635 0 q 639 17 635 17 q 711 24 689 17 q 741 50 733 31 q 749 113 749 69 l 747 438 l 258 438 l 258 113 q 266 50 258 69 q 297 24 274 31 q 369 17 319 17 q 372 8 372 17 q 369 0 372 0 q 306 1 329 0 l 210 3 l 121 1 q 58 0 99 0 q 53 8 54 0 q 58 17 53 17 q 130 24 107 17 q 161 51 153 31 q 169 113 169 71 l 169 756 q 162 817 169 797 q 131 844 154 836 q 61 851 108 851 q 57 860 57 851 q 61 868 57 868 l 122 867 q 213 864 178 864 q 304 867 249 864 l 371 868 q 374 860 374 868 q 371 851 374 851 q 298 843 321 851 q 267 815 275 835 q 258 753 260 794 l 258 467 l 747 467 l 747 753 q 741 815 749 794 q 710 843 733 835 q 639 851 688 851 q 635 860 635 851 q 638 868 635 868 l 704 867 q 793 864 760 864 q 883 867 828 864 l 949 868 q 953 860 953 868 q 949 851 953 851 q 877 844 900 851 q 846 817 854 836 q 836 756 838 797 l 836 113 q 846 51 838 71 q 878 24 854 31 q 950 17 901 17 z "},"Ħ":{"ha":1008,"x_min":53,"x_max":954,"o":"m 950 17 q 954 8 954 17 q 950 0 954 0 q 888 1 911 0 l 796 3 l 704 1 q 639 0 681 0 q 635 8 635 0 q 639 17 635 17 q 711 24 689 17 q 741 50 733 31 q 749 113 749 69 l 749 307 l 258 307 l 258 113 q 266 50 258 69 q 297 24 274 31 q 369 17 319 17 q 372 8 372 17 q 369 0 372 0 q 306 1 329 0 l 210 3 l 121 1 q 58 0 99 0 q 53 8 54 0 q 58 17 53 17 q 130 24 107 17 q 161 51 153 31 q 169 113 169 71 l 169 756 q 162 817 169 797 q 131 844 154 836 q 61 851 108 851 q 57 860 57 851 q 61 868 57 868 l 122 867 q 213 864 178 864 q 304 867 249 864 l 371 868 q 374 860 374 868 q 371 851 374 851 q 298 843 321 851 q 267 815 275 835 q 258 753 260 794 l 258 596 l 747 596 l 747 753 q 741 815 749 794 q 710 843 733 835 q 639 851 688 851 q 635 860 635 851 q 638 868 635 868 l 704 867 q 793 864 760 864 q 883 867 828 864 l 949 868 q 953 860 953 868 q 949 851 953 851 q 877 844 900 851 q 846 817 854 836 q 836 756 838 797 l 836 113 q 846 51 838 71 q 878 24 854 31 q 950 17 901 17 m 258 336 l 749 336 l 747 567 l 258 567 l 258 336 z "},"Ḫ":{"ha":1008,"x_min":54,"x_max":954,"o":"m 950 17 q 954 8 954 17 q 950 0 954 0 q 888 1 911 0 l 796 3 l 704 1 q 639 0 681 0 q 635 8 635 0 q 639 17 635 17 q 711 24 689 17 q 741 50 733 31 q 749 113 749 69 l 747 438 l 258 438 l 258 113 q 266 50 258 69 q 297 24 274 31 q 369 17 319 17 q 372 8 372 17 q 369 0 372 0 q 306 1 329 0 l 210 3 l 121 1 q 58 0 99 0 q 53 8 54 0 q 58 17 53 17 q 130 24 107 17 q 161 51 153 31 q 169 113 169 71 l 169 756 q 162 817 169 797 q 131 844 154 836 q 61 851 108 851 q 57 860 57 851 q 61 868 57 868 l 122 867 q 213 864 178 864 q 304 867 249 864 l 371 868 q 374 860 374 868 q 371 851 374 851 q 298 843 321 851 q 267 815 275 835 q 258 753 260 794 l 258 467 l 747 467 l 747 753 q 741 815 749 794 q 710 843 733 835 q 639 851 688 851 q 635 860 635 851 q 638 868 635 868 l 704 867 q 793 864 760 864 q 883 867 828 864 l 949 868 q 953 860 953 868 q 949 851 953 851 q 877 844 900 851 q 846 817 854 836 q 836 756 838 797 l 836 113 q 846 51 838 71 q 878 24 854 31 q 950 17 901 17 m 514 -271 q 433 -239 469 -271 q 385 -150 396 -207 q 402 -135 383 -142 q 438 -128 421 -128 q 451 -132 451 -128 q 488 -197 463 -174 q 542 -219 513 -219 q 594 -198 569 -219 q 631 -137 618 -176 q 639 -133 632 -133 q 650 -136 644 -133 q 654 -142 656 -139 q 599 -237 638 -204 q 514 -271 560 -271 z "},"Ĥ":{"ha":1008,"x_min":54,"x_max":954,"o":"m 950 17 q 954 8 954 17 q 950 0 954 0 q 888 1 911 0 l 796 3 l 704 1 q 639 0 681 0 q 635 8 635 0 q 639 17 635 17 q 711 24 689 17 q 741 50 733 31 q 749 113 749 69 l 747 438 l 258 438 l 258 113 q 266 50 258 69 q 297 24 274 31 q 369 17 319 17 q 372 8 372 17 q 369 0 372 0 q 306 1 329 0 l 210 3 l 121 1 q 58 0 99 0 q 53 8 54 0 q 58 17 53 17 q 130 24 107 17 q 161 51 153 31 q 169 113 169 71 l 169 756 q 162 817 169 797 q 131 844 154 836 q 61 851 108 851 q 57 860 57 851 q 61 868 57 868 l 122 867 q 213 864 178 864 q 304 867 249 864 l 371 868 q 374 860 374 868 q 371 851 374 851 q 298 843 321 851 q 267 815 275 835 q 258 753 260 794 l 258 467 l 747 467 l 747 753 q 741 815 749 794 q 710 843 733 835 q 639 851 688 851 q 635 860 635 851 q 638 868 635 868 l 704 867 q 793 864 760 864 q 883 867 828 864 l 949 868 q 953 860 953 868 q 949 851 953 851 q 877 844 900 851 q 846 817 854 836 q 836 756 838 797 l 836 113 q 846 51 838 71 q 878 24 854 31 q 950 17 901 17 m 378 917 q 370 920 374 917 q 369 926 367 924 l 494 1061 q 506 1068 499 1068 q 519 1061 513 1068 l 647 926 l 647 924 q 644 917 647 919 q 639 917 642 914 l 504 996 l 379 917 l 378 917 z "},"Ḥ":{"ha":1008,"x_min":54,"x_max":954,"o":"m 950 17 q 954 8 954 17 q 950 0 954 0 q 888 1 911 0 l 796 3 l 704 1 q 639 0 681 0 q 635 8 635 0 q 639 17 635 17 q 711 24 689 17 q 741 50 733 31 q 749 113 749 69 l 747 438 l 258 438 l 258 113 q 266 50 258 69 q 297 24 274 31 q 369 17 319 17 q 372 8 372 17 q 369 0 372 0 q 306 1 329 0 l 210 3 l 121 1 q 58 0 99 0 q 53 8 54 0 q 58 17 53 17 q 130 24 107 17 q 161 51 153 31 q 169 113 169 71 l 169 756 q 162 817 169 797 q 131 844 154 836 q 61 851 108 851 q 57 860 57 851 q 61 868 57 868 l 122 867 q 213 864 178 864 q 304 867 249 864 l 371 868 q 374 860 374 868 q 371 851 374 851 q 298 843 321 851 q 267 815 275 835 q 258 753 260 794 l 258 467 l 747 467 l 747 753 q 741 815 749 794 q 710 843 733 835 q 639 851 688 851 q 635 860 635 851 q 638 868 635 868 l 704 867 q 793 864 760 864 q 883 867 828 864 l 949 868 q 953 860 953 868 q 949 851 953 851 q 877 844 900 851 q 846 817 854 836 q 836 756 838 797 l 836 113 q 846 51 838 71 q 878 24 854 31 q 950 17 901 17 m 529 -264 q 483 -248 500 -264 q 467 -203 467 -232 q 483 -161 467 -176 q 529 -146 500 -146 q 572 -161 556 -146 q 588 -203 588 -176 q 572 -248 588 -232 q 529 -264 557 -264 z "},"I":{"ha":454,"x_min":67,"x_max":388,"o":"m 71 0 q 67 8 67 0 q 69 17 67 17 q 143 24 119 17 q 175 51 167 32 q 182 113 183 71 l 182 756 q 174 817 182 797 q 142 844 165 836 q 69 851 118 851 q 67 860 67 851 q 69 868 67 868 l 133 867 q 225 864 189 864 q 322 867 267 864 l 383 868 q 388 860 388 868 q 383 851 388 851 q 312 843 335 851 q 281 815 289 835 q 272 753 274 794 l 272 113 q 281 51 274 71 q 312 24 289 31 q 383 17 335 17 q 388 8 388 17 q 385 0 388 0 q 322 1 344 0 l 229 3 l 138 1 q 71 0 113 0 z "},"Ĳ":{"ha":929,"x_min":42,"x_max":901,"o":"m 50 374 q 42 382 43 374 q 49 390 42 390 q 124 397 100 390 q 156 424 147 404 q 164 486 164 443 l 164 756 q 156 817 164 797 q 124 844 147 836 q 49 851 100 851 q 43 860 43 851 q 49 868 43 868 l 119 867 q 213 864 178 864 q 314 867 253 864 l 378 868 q 385 860 385 868 q 378 851 385 851 q 302 843 326 851 q 269 815 278 835 q 260 753 261 794 l 260 486 q 267 424 260 443 q 299 397 275 404 q 376 390 324 390 q 383 382 382 390 q 378 374 383 374 q 310 375 335 374 l 210 376 l 117 375 q 50 374 93 374 m 461 -18 q 306 13 376 -18 q 197 93 236 44 q 157 189 157 142 q 201 239 154 239 q 246 219 233 239 q 269 154 258 199 q 294 78 279 108 q 346 25 308 47 q 454 3 383 3 q 638 75 579 3 q 697 278 697 147 l 697 756 q 688 817 697 797 q 651 844 679 836 q 564 851 624 851 q 560 860 560 851 q 564 868 560 868 l 644 867 q 743 864 708 864 q 835 867 779 864 l 894 868 q 901 860 901 868 q 894 851 901 851 q 827 843 849 851 q 799 815 806 835 q 790 753 792 794 l 792 358 q 750 154 792 239 q 633 26 708 69 q 461 -18 558 -18 z "},"Í":{"ha":454,"x_min":67,"x_max":433,"o":"m 71 0 q 67 8 67 0 q 69 17 67 17 q 143 24 119 17 q 175 51 167 32 q 182 113 183 71 l 182 756 q 174 817 182 797 q 142 844 165 836 q 69 851 118 851 q 67 860 67 851 q 69 868 67 868 l 133 867 q 225 864 189 864 q 322 867 267 864 l 383 868 q 388 860 388 868 q 383 851 388 851 q 312 843 335 851 q 281 815 289 835 q 272 753 274 794 l 272 113 q 281 51 274 71 q 312 24 289 31 q 383 17 335 17 q 388 8 388 17 q 385 0 388 0 q 322 1 344 0 l 229 3 l 138 1 q 71 0 113 0 m 139 942 q 131 948 133 942 q 132 957 128 954 q 269 1046 188 989 q 297 1065 281 1054 q 333 1089 313 1076 q 368 1083 339 1092 q 419 1063 397 1074 q 431 1050 440 1051 q 142 943 282 1011 l 139 942 z "},"Ĭ":{"ha":454,"x_min":67,"x_max":388,"o":"m 71 0 q 67 8 67 0 q 69 17 67 17 q 143 24 119 17 q 175 51 167 32 q 182 113 183 71 l 182 756 q 174 817 182 797 q 142 844 165 836 q 69 851 118 851 q 67 860 67 851 q 69 868 67 868 l 133 867 q 225 864 189 864 q 322 867 267 864 l 383 868 q 388 860 388 868 q 383 851 388 851 q 312 843 335 851 q 281 815 289 835 q 272 753 274 794 l 272 113 q 281 51 274 71 q 312 24 289 31 q 383 17 335 17 q 388 8 388 17 q 385 0 388 0 q 322 1 344 0 l 229 3 l 138 1 q 71 0 113 0 m 221 924 q 140 956 176 924 q 92 1044 103 988 q 109 1060 90 1053 q 144 1067 128 1067 q 158 1063 158 1067 q 194 998 169 1021 q 249 975 219 975 q 301 997 276 975 q 338 1057 325 1018 q 346 1061 340 1061 q 357 1058 351 1061 q 361 1053 363 1056 q 306 957 346 990 q 221 924 267 924 z "},"Ǐ":{"ha":454,"x_min":67,"x_max":388,"o":"m 71 0 q 67 8 67 0 q 69 17 67 17 q 143 24 119 17 q 175 51 167 32 q 182 113 183 71 l 182 756 q 174 817 182 797 q 142 844 165 836 q 69 851 118 851 q 67 860 67 851 q 69 868 67 868 l 133 867 q 225 864 189 864 q 322 867 267 864 l 383 868 q 388 860 388 868 q 383 851 388 851 q 312 843 335 851 q 281 815 289 835 q 272 753 274 794 l 272 113 q 281 51 274 71 q 312 24 289 31 q 383 17 335 17 q 388 8 388 17 q 385 0 388 0 q 322 1 344 0 l 229 3 l 138 1 q 71 0 113 0 m 81 1074 l 81 1075 q 84 1081 81 1078 q 89 1083 88 1085 l 222 1003 l 349 1085 q 356 1081 351 1086 q 358 1074 361 1075 l 233 938 q 221 932 229 932 q 207 938 213 932 l 81 1074 z "},"Î":{"ha":454,"x_min":67,"x_max":388,"o":"m 71 0 q 67 8 67 0 q 69 17 67 17 q 143 24 119 17 q 175 51 167 32 q 182 113 183 71 l 182 756 q 174 817 182 797 q 142 844 165 836 q 69 851 118 851 q 67 860 67 851 q 69 868 67 868 l 133 867 q 225 864 189 864 q 322 867 267 864 l 383 868 q 388 860 388 868 q 383 851 388 851 q 312 843 335 851 q 281 815 289 835 q 272 753 274 794 l 272 113 q 281 51 274 71 q 312 24 289 31 q 383 17 335 17 q 388 8 388 17 q 385 0 388 0 q 322 1 344 0 l 229 3 l 138 1 q 71 0 113 0 m 96 917 q 88 920 92 917 q 88 926 85 924 l 213 1061 q 224 1068 217 1068 q 238 1061 231 1068 l 365 926 l 365 924 q 363 917 365 919 q 357 917 360 914 l 222 996 l 97 917 l 96 917 z "},"Ï":{"ha":454,"x_min":67,"x_max":388,"o":"m 71 0 q 67 8 67 0 q 69 17 67 17 q 143 24 119 17 q 175 51 167 32 q 182 113 183 71 l 182 756 q 174 817 182 797 q 142 844 165 836 q 69 851 118 851 q 67 860 67 851 q 69 868 67 868 l 133 867 q 225 864 189 864 q 322 867 267 864 l 383 868 q 388 860 388 868 q 383 851 388 851 q 312 843 335 851 q 281 815 289 835 q 272 753 274 794 l 272 113 q 281 51 274 71 q 312 24 289 31 q 383 17 335 17 q 388 8 388 17 q 385 0 388 0 q 322 1 344 0 l 229 3 l 138 1 q 71 0 113 0 m 129 996 q 85 1011 101 996 q 69 1053 69 1026 q 85 1094 69 1079 q 129 1110 101 1110 q 172 1095 157 1110 q 188 1053 188 1081 q 172 1010 188 1025 q 129 996 157 996 m 318 996 q 275 1011 290 996 q 260 1053 260 1026 q 275 1094 260 1079 q 318 1110 290 1110 q 361 1095 346 1110 q 376 1053 376 1081 q 361 1010 376 1025 q 318 996 346 996 z "},"İ":{"ha":454,"x_min":67,"x_max":388,"o":"m 71 0 q 67 8 67 0 q 69 17 67 17 q 143 24 119 17 q 175 51 167 32 q 182 113 183 71 l 182 756 q 174 817 182 797 q 142 844 165 836 q 69 851 118 851 q 67 860 67 851 q 69 868 67 868 l 133 867 q 225 864 189 864 q 322 867 267 864 l 383 868 q 388 860 388 868 q 383 851 388 851 q 312 843 335 851 q 281 815 289 835 q 272 753 274 794 l 272 113 q 281 51 274 71 q 312 24 289 31 q 383 17 335 17 q 388 8 388 17 q 385 0 388 0 q 322 1 344 0 l 229 3 l 138 1 q 71 0 113 0 m 224 982 q 179 998 196 982 q 163 1043 163 1014 q 179 1085 163 1069 q 224 1100 196 1100 q 267 1085 251 1100 q 283 1043 283 1069 q 267 998 283 1014 q 224 982 251 982 z "},"Ị":{"ha":454,"x_min":67,"x_max":388,"o":"m 71 0 q 67 8 67 0 q 69 17 67 17 q 143 24 119 17 q 175 51 167 32 q 182 113 183 71 l 182 756 q 174 817 182 797 q 142 844 165 836 q 69 851 118 851 q 67 860 67 851 q 69 868 67 868 l 133 867 q 225 864 189 864 q 322 867 267 864 l 383 868 q 388 860 388 868 q 383 851 388 851 q 312 843 335 851 q 281 815 289 835 q 272 753 274 794 l 272 113 q 281 51 274 71 q 312 24 289 31 q 383 17 335 17 q 388 8 388 17 q 385 0 388 0 q 322 1 344 0 l 229 3 l 138 1 q 71 0 113 0 m 233 -264 q 188 -248 204 -264 q 171 -203 171 -232 q 188 -161 171 -176 q 233 -146 204 -146 q 276 -161 260 -146 q 292 -203 292 -176 q 276 -248 292 -232 q 233 -264 261 -264 z "},"Ì":{"ha":454,"x_min":67,"x_max":388,"o":"m 71 0 q 67 8 67 0 q 69 17 67 17 q 143 24 119 17 q 175 51 167 32 q 182 113 183 71 l 182 756 q 174 817 182 797 q 142 844 165 836 q 69 851 118 851 q 67 860 67 851 q 69 868 67 868 l 133 867 q 225 864 189 864 q 322 867 267 864 l 383 868 q 388 860 388 868 q 383 851 388 851 q 312 843 335 851 q 281 815 289 835 q 272 753 274 794 l 272 113 q 281 51 274 71 q 312 24 289 31 q 383 17 335 17 q 388 8 388 17 q 385 0 388 0 q 322 1 344 0 l 229 3 l 138 1 q 71 0 113 0 m 358 947 q 218 1006 281 982 q 79 1050 156 1029 q 90 1064 68 1053 q 140 1083 111 1075 q 176 1089 169 1092 q 363 960 278 1014 q 365 951 368 958 q 358 947 363 944 z "},"Ỉ":{"ha":454,"x_min":67,"x_max":388,"o":"m 71 0 q 67 8 67 0 q 69 17 67 17 q 143 24 119 17 q 175 51 167 32 q 182 113 183 71 l 182 756 q 174 817 182 797 q 142 844 165 836 q 69 851 118 851 q 67 860 67 851 q 69 868 67 868 l 133 867 q 225 864 189 864 q 322 867 267 864 l 383 868 q 388 860 388 868 q 383 851 388 851 q 312 843 335 851 q 281 815 289 835 q 272 753 274 794 l 272 113 q 281 51 274 71 q 312 24 289 31 q 383 17 335 17 q 388 8 388 17 q 385 0 388 0 q 322 1 344 0 l 229 3 l 138 1 q 71 0 113 0 m 231 903 q 224 900 232 900 q 214 903 215 900 q 208 935 208 918 q 215 969 208 954 q 235 1008 221 983 q 254 1046 249 1033 q 260 1075 260 1058 q 242 1120 260 1104 q 200 1136 225 1136 q 161 1128 178 1136 l 158 1126 q 151 1131 154 1126 q 153 1139 149 1136 q 242 1167 193 1167 q 308 1146 283 1167 q 332 1093 332 1125 q 318 1047 332 1068 q 278 999 304 1026 q 242 957 254 975 q 229 918 229 939 q 231 903 229 908 z "},"Ī":{"ha":454,"x_min":57,"x_max":404,"o":"m 71 0 q 67 8 67 0 q 69 17 67 17 q 143 24 119 17 q 175 51 167 32 q 182 113 183 71 l 182 756 q 174 817 182 797 q 142 844 165 836 q 69 851 118 851 q 67 860 67 851 q 69 868 67 868 l 133 867 q 225 864 189 864 q 322 867 267 864 l 383 868 q 388 860 388 868 q 383 851 388 851 q 312 843 335 851 q 281 815 289 835 q 272 753 274 794 l 272 113 q 281 51 274 71 q 312 24 289 31 q 383 17 335 17 q 388 8 388 17 q 385 0 388 0 q 322 1 344 0 l 229 3 l 138 1 q 71 0 113 0 m 65 997 q 57 1017 57 997 q 65 1036 57 1036 l 396 1036 q 404 1017 404 1036 q 396 997 404 997 l 65 997 z "},"Į":{"ha":454,"x_min":67,"x_max":388,"o":"m 383 17 q 388 8 388 17 q 385 0 388 0 q 324 1 346 0 l 233 3 q 175 -206 172 -94 q 198 -303 175 -267 q 261 -339 221 -339 q 299 -330 283 -339 q 331 -306 315 -321 l 332 -306 q 340 -310 336 -306 q 343 -317 344 -314 q 286 -367 313 -351 q 228 -382 260 -382 q 142 -343 174 -382 q 110 -242 110 -304 q 214 3 110 -133 l 131 1 q 71 0 108 0 q 67 8 67 0 q 69 17 67 17 q 143 24 119 17 q 175 51 167 32 q 182 113 183 71 l 182 756 q 174 817 182 797 q 142 844 165 836 q 69 851 118 851 q 67 860 67 851 q 69 868 67 868 l 133 867 q 225 864 189 864 q 322 867 267 864 l 383 868 q 388 860 388 868 q 383 851 388 851 q 312 843 335 851 q 281 815 289 835 q 272 753 274 794 l 272 113 q 281 51 274 71 q 312 24 289 31 q 383 17 335 17 z "},"Ĩ":{"ha":454,"x_min":44,"x_max":407,"o":"m 71 0 q 67 8 67 0 q 69 17 67 17 q 143 24 119 17 q 175 51 167 32 q 182 113 183 71 l 182 756 q 174 817 182 797 q 142 844 165 836 q 69 851 118 851 q 67 860 67 851 q 69 868 67 868 l 133 867 q 225 864 189 864 q 322 867 267 864 l 383 868 q 388 860 388 868 q 383 851 388 851 q 312 843 335 851 q 281 815 289 835 q 272 753 274 794 l 272 113 q 281 51 274 71 q 312 24 289 31 q 383 17 335 17 q 388 8 388 17 q 385 0 388 0 q 322 1 344 0 l 229 3 l 138 1 q 71 0 113 0 m 54 965 q 47 969 51 965 q 44 975 43 972 q 89 1034 61 1007 q 150 1061 117 1061 q 225 1046 174 1061 q 329 1026 289 1026 q 367 1035 354 1026 q 396 1064 381 1044 l 397 1064 q 405 1060 401 1064 q 407 1054 408 1057 q 359 987 381 1004 q 310 969 338 969 q 221 986 279 969 q 121 1003 157 1003 q 86 996 97 1003 q 67 979 75 989 q 56 965 58 969 l 54 965 z "},"J":{"ha":413,"x_min":50,"x_max":374,"o":"m 64 -269 q 55 -263 60 -271 q 56 -253 50 -256 q 143 -139 117 -215 q 168 56 169 -62 l 168 756 q 160 817 168 797 q 128 844 151 836 q 54 851 104 851 q 51 860 51 851 q 54 868 51 868 l 121 867 q 208 864 176 864 q 308 867 250 864 l 368 868 q 373 860 374 868 q 368 851 372 851 q 297 843 319 851 q 265 815 274 835 q 256 753 257 794 l 256 93 q 238 -83 256 -17 q 178 -193 219 -150 q 64 -269 138 -236 z "},"Ĵ":{"ha":413,"x_min":51,"x_max":372,"o":"m 64 -269 q 55 -263 60 -271 q 56 -253 50 -256 q 143 -139 117 -215 q 168 56 169 -62 l 168 756 q 160 817 168 797 q 128 844 151 836 q 54 851 104 851 q 51 860 51 851 q 54 868 51 868 l 121 867 q 208 864 176 864 q 308 867 250 864 l 368 868 q 373 860 374 868 q 368 851 372 851 q 297 843 319 851 q 265 815 274 835 q 256 753 257 794 l 256 93 q 238 -83 256 -17 q 178 -193 219 -150 q 64 -269 138 -236 m 78 917 q 70 920 74 917 q 69 926 67 924 l 194 1061 q 206 1068 199 1068 q 219 1061 213 1068 l 347 926 l 347 924 q 344 917 347 919 q 339 917 342 914 l 204 996 l 79 917 l 78 917 z "},"K":{"ha":892,"x_min":53,"x_max":885,"o":"m 881 17 q 885 8 885 17 q 881 0 885 0 l 754 0 q 684 7 700 0 q 607 94 668 14 q 521 206 546 174 l 307 471 l 258 424 l 258 113 q 262 47 258 64 q 285 24 265 31 q 354 17 304 17 q 357 8 357 17 q 354 0 357 0 q 299 1 318 0 l 208 3 l 121 1 q 57 0 97 0 q 53 8 54 0 q 57 17 53 17 q 129 24 106 17 q 161 51 153 31 q 169 113 169 71 l 169 756 q 162 817 169 797 q 131 844 154 836 q 61 851 108 851 q 57 860 57 851 q 61 868 57 868 l 122 867 q 213 864 178 864 q 304 867 249 864 l 371 868 q 374 860 374 868 q 371 851 374 851 q 298 843 321 851 q 267 815 275 835 q 258 753 260 794 l 258 457 l 565 757 q 608 824 608 800 q 535 851 608 851 q 529 860 529 851 q 533 868 529 868 l 592 867 q 689 864 644 864 q 778 867 733 864 l 826 868 q 829 860 829 868 q 826 851 829 851 q 711 827 771 851 q 599 749 651 803 l 368 528 l 568 281 q 724 99 671 154 q 807 31 776 44 q 881 17 838 17 z "},"Ḱ":{"ha":892,"x_min":53,"x_max":885,"o":"m 881 17 q 885 8 885 17 q 881 0 885 0 l 754 0 q 684 7 700 0 q 607 94 668 14 q 521 206 546 174 l 307 471 l 258 424 l 258 113 q 262 47 258 64 q 285 24 265 31 q 354 17 304 17 q 357 8 357 17 q 354 0 357 0 q 299 1 318 0 l 208 3 l 121 1 q 57 0 97 0 q 53 8 54 0 q 57 17 53 17 q 129 24 106 17 q 161 51 153 31 q 169 113 169 71 l 169 756 q 162 817 169 797 q 131 844 154 836 q 61 851 108 851 q 57 860 57 851 q 61 868 57 868 l 122 867 q 213 864 178 864 q 304 867 249 864 l 371 868 q 374 860 374 868 q 371 851 374 851 q 298 843 321 851 q 267 815 275 835 q 258 753 260 794 l 258 457 l 565 757 q 608 824 608 800 q 535 851 608 851 q 529 860 529 851 q 533 868 529 868 l 592 867 q 689 864 644 864 q 778 867 733 864 l 826 868 q 829 860 829 868 q 826 851 829 851 q 711 827 771 851 q 599 749 651 803 l 368 528 l 568 281 q 724 99 671 154 q 807 31 776 44 q 881 17 838 17 m 374 942 q 365 948 368 942 q 367 957 363 954 q 504 1046 422 989 q 531 1065 515 1054 q 568 1089 547 1076 q 603 1083 574 1092 q 653 1063 632 1074 q 665 1050 675 1051 q 376 943 517 1011 l 374 942 z "},"Ǩ":{"ha":892,"x_min":53,"x_max":885,"o":"m 881 17 q 885 8 885 17 q 881 0 885 0 l 754 0 q 684 7 700 0 q 607 94 668 14 q 521 206 546 174 l 307 471 l 258 424 l 258 113 q 262 47 258 64 q 285 24 265 31 q 354 17 304 17 q 357 8 357 17 q 354 0 357 0 q 299 1 318 0 l 208 3 l 121 1 q 57 0 97 0 q 53 8 54 0 q 57 17 53 17 q 129 24 106 17 q 161 51 153 31 q 169 113 169 71 l 169 756 q 162 817 169 797 q 131 844 154 836 q 61 851 108 851 q 57 860 57 851 q 61 868 57 868 l 122 867 q 213 864 178 864 q 304 867 249 864 l 371 868 q 374 860 374 868 q 371 851 374 851 q 298 843 321 851 q 267 815 275 835 q 258 753 260 794 l 258 457 l 565 757 q 608 824 608 800 q 535 851 608 851 q 529 860 529 851 q 533 868 529 868 l 592 867 q 689 864 644 864 q 778 867 733 864 l 826 868 q 829 860 829 868 q 826 851 829 851 q 711 827 771 851 q 599 749 651 803 l 368 528 l 568 281 q 724 99 671 154 q 807 31 776 44 q 881 17 838 17 m 315 1074 l 315 1075 q 319 1081 315 1078 q 324 1083 322 1085 l 457 1003 l 583 1085 q 591 1081 586 1086 q 593 1074 596 1075 l 468 938 q 456 932 464 932 q 442 938 447 932 l 315 1074 z "},"Ķ":{"ha":892,"x_min":53,"x_max":885,"o":"m 881 17 q 885 8 885 17 q 881 0 885 0 l 754 0 q 684 7 700 0 q 607 94 668 14 q 521 206 546 174 l 307 471 l 258 424 l 258 113 q 262 47 258 64 q 285 24 265 31 q 354 17 304 17 q 357 8 357 17 q 354 0 357 0 q 299 1 318 0 l 208 3 l 121 1 q 57 0 97 0 q 53 8 54 0 q 57 17 53 17 q 129 24 106 17 q 161 51 153 31 q 169 113 169 71 l 169 756 q 162 817 169 797 q 131 844 154 836 q 61 851 108 851 q 57 860 57 851 q 61 868 57 868 l 122 867 q 213 864 178 864 q 304 867 249 864 l 371 868 q 374 860 374 868 q 371 851 374 851 q 298 843 321 851 q 267 815 275 835 q 258 753 260 794 l 258 457 l 565 757 q 608 824 608 800 q 535 851 608 851 q 529 860 529 851 q 533 868 529 868 l 592 867 q 689 864 644 864 q 778 867 733 864 l 826 868 q 829 860 829 868 q 826 851 829 851 q 711 827 771 851 q 599 749 651 803 l 368 528 l 568 281 q 724 99 671 154 q 807 31 776 44 q 881 17 838 17 m 493 -118 q 551 -144 531 -118 q 571 -219 571 -171 q 549 -306 571 -267 q 485 -382 526 -344 l 482 -383 q 475 -378 478 -383 q 475 -371 472 -374 q 536 -247 536 -318 q 528 -207 536 -219 q 486 -228 517 -228 q 447 -213 461 -228 q 432 -174 432 -199 q 493 -118 432 -118 z "},"L":{"ha":742,"x_min":54,"x_max":731,"o":"m 58 0 q 55 8 56 0 q 58 17 54 17 q 130 24 107 17 q 161 51 153 31 q 169 113 169 71 l 169 756 q 162 817 169 797 q 131 844 154 836 q 61 851 108 851 q 57 860 57 851 q 61 868 57 868 l 122 867 q 213 864 178 864 q 304 867 249 864 l 371 868 q 374 860 374 868 q 371 851 374 851 q 298 844 321 851 q 267 816 275 836 q 258 754 260 796 l 258 118 q 267 59 260 78 q 296 33 275 40 q 363 26 317 26 l 515 26 q 647 74 601 26 q 713 211 693 121 q 719 215 713 215 q 727 214 724 215 q 731 210 731 213 q 721 21 721 119 q 715 5 721 10 q 697 0 710 0 l 58 0 z "},"Ĺ":{"ha":742,"x_min":54,"x_max":731,"o":"m 58 0 q 55 8 56 0 q 58 17 54 17 q 130 24 107 17 q 161 51 153 31 q 169 113 169 71 l 169 756 q 162 817 169 797 q 131 844 154 836 q 61 851 108 851 q 57 860 57 851 q 61 868 57 868 l 122 867 q 213 864 178 864 q 304 867 249 864 l 371 868 q 374 860 374 868 q 371 851 374 851 q 298 844 321 851 q 267 816 275 836 q 258 754 260 796 l 258 118 q 267 59 260 78 q 296 33 275 40 q 363 26 317 26 l 515 26 q 647 74 601 26 q 713 211 693 121 q 719 215 713 215 q 727 214 724 215 q 731 210 731 213 q 721 21 721 119 q 715 5 721 10 q 697 0 710 0 l 58 0 m 126 942 q 118 948 121 942 q 119 957 115 954 q 257 1046 175 989 q 284 1065 268 1054 q 321 1089 300 1076 q 356 1083 326 1092 q 406 1063 385 1074 q 418 1050 428 1051 q 129 943 269 1011 l 126 942 z "},"Ľ":{"ha":742,"x_min":54,"x_max":731,"o":"m 58 0 q 55 8 56 0 q 58 17 54 17 q 130 24 107 17 q 161 51 153 31 q 169 113 169 71 l 169 756 q 162 817 169 797 q 131 844 154 836 q 61 851 108 851 q 57 860 57 851 q 61 868 57 868 l 122 867 q 213 864 178 864 q 304 867 249 864 l 371 868 q 374 860 374 868 q 371 851 374 851 q 298 844 321 851 q 267 816 275 836 q 258 754 260 796 l 258 118 q 267 59 260 78 q 296 33 275 40 q 363 26 317 26 l 515 26 q 647 74 601 26 q 713 211 693 121 q 719 215 713 215 q 727 214 724 215 q 731 210 731 213 q 721 21 721 119 q 715 5 721 10 q 697 0 710 0 l 58 0 m 550 868 q 568 867 550 875 q 603 845 586 858 q 618 825 619 832 l 575 490 q 568 488 575 488 q 560 490 561 488 l 550 868 z "},"Ļ":{"ha":742,"x_min":54,"x_max":731,"o":"m 58 0 q 55 8 56 0 q 58 17 54 17 q 130 24 107 17 q 161 51 153 31 q 169 113 169 71 l 169 756 q 162 817 169 797 q 131 844 154 836 q 61 851 108 851 q 57 860 57 851 q 61 868 57 868 l 122 867 q 213 864 178 864 q 304 867 249 864 l 371 868 q 374 860 374 868 q 371 851 374 851 q 298 844 321 851 q 267 816 275 836 q 258 754 260 796 l 258 118 q 267 59 260 78 q 296 33 275 40 q 363 26 317 26 l 515 26 q 647 74 601 26 q 713 211 693 121 q 719 215 713 215 q 727 214 724 215 q 731 210 731 213 q 721 21 721 119 q 715 5 721 10 q 697 0 710 0 l 58 0 m 426 -118 q 484 -144 464 -118 q 504 -219 504 -171 q 482 -306 504 -267 q 418 -382 460 -344 l 415 -383 q 408 -378 411 -383 q 408 -371 406 -374 q 469 -247 469 -318 q 461 -207 469 -219 q 419 -228 450 -228 q 380 -213 394 -228 q 365 -174 365 -199 q 426 -118 365 -118 z "},"Ŀ":{"ha":742,"x_min":54,"x_max":731,"o":"m 58 0 q 55 8 56 0 q 58 17 54 17 q 130 24 107 17 q 161 51 153 31 q 169 113 169 71 l 169 756 q 162 817 169 797 q 131 844 154 836 q 61 851 108 851 q 57 860 57 851 q 61 868 57 868 l 122 867 q 213 864 178 864 q 304 867 249 864 l 371 868 q 374 860 374 868 q 371 851 374 851 q 298 844 321 851 q 267 816 275 836 q 258 754 260 796 l 258 118 q 267 59 260 78 q 296 33 275 40 q 363 26 317 26 l 515 26 q 647 74 601 26 q 713 211 693 121 q 719 215 713 215 q 727 214 724 215 q 731 210 731 213 q 721 21 721 119 q 715 5 721 10 q 697 0 710 0 l 58 0 m 603 388 q 558 404 575 388 q 542 449 542 421 q 558 490 542 475 q 603 506 575 506 q 648 490 632 506 q 664 449 664 475 q 648 404 664 421 q 603 388 632 388 z "},"Ḷ":{"ha":742,"x_min":54,"x_max":731,"o":"m 58 0 q 55 8 56 0 q 58 17 54 17 q 130 24 107 17 q 161 51 153 31 q 169 113 169 71 l 169 756 q 162 817 169 797 q 131 844 154 836 q 61 851 108 851 q 57 860 57 851 q 61 868 57 868 l 122 867 q 213 864 178 864 q 304 867 249 864 l 371 868 q 374 860 374 868 q 371 851 374 851 q 298 844 321 851 q 267 816 275 836 q 258 754 260 796 l 258 118 q 267 59 260 78 q 296 33 275 40 q 363 26 317 26 l 515 26 q 647 74 601 26 q 713 211 693 121 q 719 215 713 215 q 727 214 724 215 q 731 210 731 213 q 721 21 721 119 q 715 5 721 10 q 697 0 710 0 l 58 0 m 431 -264 q 385 -248 401 -264 q 368 -203 368 -232 q 385 -161 368 -176 q 431 -146 401 -146 q 473 -161 457 -146 q 489 -203 489 -176 q 474 -248 489 -232 q 431 -264 458 -264 z "},"Ḹ":{"ha":742,"x_min":38,"x_max":731,"o":"m 58 0 q 55 8 56 0 q 58 17 54 17 q 130 24 107 17 q 161 51 153 31 q 169 113 169 71 l 169 756 q 162 817 169 797 q 131 844 154 836 q 61 851 108 851 q 57 860 57 851 q 61 868 57 868 l 122 867 q 213 864 178 864 q 304 867 249 864 l 371 868 q 374 860 374 868 q 371 851 374 851 q 298 844 321 851 q 267 816 275 836 q 258 754 260 796 l 258 118 q 267 59 260 78 q 296 33 275 40 q 363 26 317 26 l 515 26 q 647 74 601 26 q 713 211 693 121 q 719 215 713 215 q 727 214 724 215 q 731 210 731 213 q 721 21 721 119 q 715 5 721 10 q 697 0 710 0 l 58 0 m 431 -264 q 385 -248 401 -264 q 368 -203 368 -232 q 385 -161 368 -176 q 431 -146 401 -146 q 473 -161 457 -146 q 489 -203 489 -176 q 474 -248 489 -232 q 431 -264 458 -264 m 46 997 q 38 1017 38 997 q 46 1036 38 1036 l 376 1036 q 385 1017 385 1036 q 376 997 385 997 l 46 997 z "},"Ḻ":{"ha":742,"x_min":54,"x_max":731,"o":"m 58 0 q 55 8 56 0 q 58 17 54 17 q 130 24 107 17 q 161 51 153 31 q 169 113 169 71 l 169 756 q 162 817 169 797 q 131 844 154 836 q 61 851 108 851 q 57 860 57 851 q 61 868 57 868 l 122 867 q 213 864 178 864 q 304 867 249 864 l 371 868 q 374 860 374 868 q 371 851 374 851 q 298 844 321 851 q 267 816 275 836 q 258 754 260 796 l 258 118 q 267 59 260 78 q 296 33 275 40 q 363 26 317 26 l 515 26 q 647 74 601 26 q 713 211 693 121 q 719 215 713 215 q 727 214 724 215 q 731 210 731 213 q 721 21 721 119 q 715 5 721 10 q 697 0 710 0 l 58 0 m 258 -162 q 250 -143 250 -162 q 258 -124 250 -124 l 589 -124 q 597 -143 597 -124 q 589 -162 597 -162 l 258 -162 z "},"Ł":{"ha":779,"x_min":86,"x_max":763,"o":"m 744 211 q 751 215 744 215 q 759 214 756 215 q 763 210 763 213 q 753 21 753 119 q 747 5 753 10 q 729 0 742 0 l 90 0 q 87 8 88 0 q 90 17 86 17 q 162 24 139 17 q 193 51 185 31 q 201 113 201 71 l 201 379 l 121 326 l 119 326 q 107 337 114 326 q 104 349 100 347 l 201 413 l 201 756 q 194 817 201 797 q 163 844 186 836 q 93 851 140 851 q 89 860 89 851 q 93 868 89 868 l 154 867 q 244 864 210 864 q 336 867 281 864 l 403 868 q 406 860 406 868 q 403 851 406 851 q 330 844 353 851 q 299 816 307 836 q 290 754 292 796 l 290 471 l 386 533 l 389 535 q 401 524 394 535 q 404 511 408 514 l 290 438 l 290 118 q 299 59 292 78 q 328 33 307 40 q 394 26 349 26 l 547 26 q 679 74 633 26 q 744 211 725 121 z "},"M":{"ha":1103,"x_min":64,"x_max":1067,"o":"m 1063 17 q 1067 8 1067 17 q 1063 0 1067 0 q 1001 1 1024 0 l 906 3 l 815 1 q 753 0 793 0 q 748 8 749 0 q 753 17 747 17 q 825 24 801 17 q 857 51 849 32 q 863 113 865 71 l 843 769 l 546 10 q 536 4 546 4 q 525 11 528 4 l 208 753 l 207 757 l 204 151 q 226 48 204 79 q 303 17 249 17 q 308 8 307 17 q 303 0 308 0 q 256 1 272 0 l 185 3 l 119 1 q 68 0 101 0 q 64 8 64 0 q 67 17 64 17 q 147 49 121 17 q 172 151 172 81 l 176 807 q 69 851 136 851 q 65 860 65 851 q 68 868 65 868 l 113 867 q 153 865 128 865 q 198 867 181 865 q 225 868 215 868 q 253 854 242 868 q 286 796 265 840 l 567 139 l 838 833 q 854 858 842 849 q 881 868 867 868 q 906 867 889 868 q 943 865 922 865 l 1006 867 q 1047 868 1021 868 q 1051 860 1051 868 q 1047 851 1051 851 q 955 833 983 851 q 931 758 926 814 l 950 113 q 961 50 953 69 q 992 24 969 31 q 1063 17 1014 17 z "},"Ṁ":{"ha":1103,"x_min":64,"x_max":1067,"o":"m 1063 17 q 1067 8 1067 17 q 1063 0 1067 0 q 1001 1 1024 0 l 906 3 l 815 1 q 753 0 793 0 q 748 8 749 0 q 753 17 747 17 q 825 24 801 17 q 857 51 849 32 q 863 113 865 71 l 843 769 l 546 10 q 536 4 546 4 q 525 11 528 4 l 208 753 l 207 757 l 204 151 q 226 48 204 79 q 303 17 249 17 q 308 8 307 17 q 303 0 308 0 q 256 1 272 0 l 185 3 l 119 1 q 68 0 101 0 q 64 8 64 0 q 67 17 64 17 q 147 49 121 17 q 172 151 172 81 l 176 807 q 69 851 136 851 q 65 860 65 851 q 68 868 65 868 l 113 867 q 153 865 128 865 q 198 867 181 865 q 225 868 215 868 q 253 854 242 868 q 286 796 265 840 l 567 139 l 838 833 q 854 858 842 849 q 881 868 867 868 q 906 867 889 868 q 943 865 922 865 l 1006 867 q 1047 868 1021 868 q 1051 860 1051 868 q 1047 851 1051 851 q 955 833 983 851 q 931 758 926 814 l 950 113 q 961 50 953 69 q 992 24 969 31 q 1063 17 1014 17 m 553 982 q 508 998 525 982 q 492 1043 492 1014 q 508 1085 492 1069 q 553 1100 525 1100 q 597 1085 581 1100 q 613 1043 613 1069 q 597 998 613 1014 q 553 982 581 982 z "},"Ṃ":{"ha":1103,"x_min":64,"x_max":1067,"o":"m 1063 17 q 1067 8 1067 17 q 1063 0 1067 0 q 1001 1 1024 0 l 906 3 l 815 1 q 753 0 793 0 q 748 8 749 0 q 753 17 747 17 q 825 24 801 17 q 857 51 849 32 q 863 113 865 71 l 843 769 l 546 10 q 536 4 546 4 q 525 11 528 4 l 208 753 l 207 757 l 204 151 q 226 48 204 79 q 303 17 249 17 q 308 8 307 17 q 303 0 308 0 q 256 1 272 0 l 185 3 l 119 1 q 68 0 101 0 q 64 8 64 0 q 67 17 64 17 q 147 49 121 17 q 172 151 172 81 l 176 807 q 69 851 136 851 q 65 860 65 851 q 68 868 65 868 l 113 867 q 153 865 128 865 q 198 867 181 865 q 225 868 215 868 q 253 854 242 868 q 286 796 265 840 l 567 139 l 838 833 q 854 858 842 849 q 881 868 867 868 q 906 867 889 868 q 943 865 922 865 l 1006 867 q 1047 868 1021 868 q 1051 860 1051 868 q 1047 851 1051 851 q 955 833 983 851 q 931 758 926 814 l 950 113 q 961 50 953 69 q 992 24 969 31 q 1063 17 1014 17 m 556 -264 q 510 -248 526 -264 q 493 -203 493 -232 q 510 -161 493 -176 q 556 -146 526 -146 q 598 -161 582 -146 q 614 -203 614 -176 q 599 -248 614 -232 q 556 -264 583 -264 z "},"N":{"ha":979,"x_min":54,"x_max":932,"o":"m 929 868 q 932 860 932 868 q 929 851 932 851 q 846 820 872 851 q 821 719 819 789 l 819 -14 q 816 -19 819 -17 q 810 -21 813 -21 q 797 -15 801 -21 l 206 754 l 196 767 l 196 147 q 221 47 197 78 q 300 17 244 17 q 304 8 304 17 q 300 0 304 0 q 250 1 268 0 l 181 3 l 113 1 q 58 0 94 0 q 54 8 54 0 q 58 17 54 17 q 140 47 114 17 q 165 147 167 78 l 165 800 q 58 851 113 851 q 54 860 54 851 q 58 868 54 868 l 114 867 q 157 865 129 865 q 199 867 182 865 q 226 868 217 868 q 241 863 236 868 q 254 843 246 858 q 286 796 269 818 l 792 131 l 790 719 q 765 821 789 790 q 686 851 742 851 q 683 860 683 851 q 686 868 683 868 l 736 867 q 806 864 778 864 q 872 867 831 864 l 929 868 z "},"Ń":{"ha":979,"x_min":54,"x_max":932,"o":"m 929 868 q 932 860 932 868 q 929 851 932 851 q 846 820 872 851 q 821 719 819 789 l 819 -14 q 816 -19 819 -17 q 810 -21 813 -21 q 797 -15 801 -21 l 206 754 l 196 767 l 196 147 q 221 47 197 78 q 300 17 244 17 q 304 8 304 17 q 300 0 304 0 q 250 1 268 0 l 181 3 l 113 1 q 58 0 94 0 q 54 8 54 0 q 58 17 54 17 q 140 47 114 17 q 165 147 167 78 l 165 800 q 58 851 113 851 q 54 860 54 851 q 58 868 54 868 l 114 867 q 157 865 129 865 q 199 867 182 865 q 226 868 217 868 q 241 863 236 868 q 254 843 246 858 q 286 796 269 818 l 792 131 l 790 719 q 765 821 789 790 q 686 851 742 851 q 683 860 683 851 q 686 868 683 868 l 736 867 q 806 864 778 864 q 872 867 831 864 l 929 868 m 390 942 q 382 948 385 942 q 383 957 379 954 q 521 1046 439 989 q 548 1065 532 1054 q 585 1089 564 1076 q 619 1083 590 1092 q 670 1063 649 1074 q 682 1050 692 1051 q 393 943 533 1011 l 390 942 z "},"Ň":{"ha":979,"x_min":54,"x_max":932,"o":"m 929 868 q 932 860 932 868 q 929 851 932 851 q 846 820 872 851 q 821 719 819 789 l 819 -14 q 816 -19 819 -17 q 810 -21 813 -21 q 797 -15 801 -21 l 206 754 l 196 767 l 196 147 q 221 47 197 78 q 300 17 244 17 q 304 8 304 17 q 300 0 304 0 q 250 1 268 0 l 181 3 l 113 1 q 58 0 94 0 q 54 8 54 0 q 58 17 54 17 q 140 47 114 17 q 165 147 167 78 l 165 800 q 58 851 113 851 q 54 860 54 851 q 58 868 54 868 l 114 867 q 157 865 129 865 q 199 867 182 865 q 226 868 217 868 q 241 863 236 868 q 254 843 246 858 q 286 796 269 818 l 792 131 l 790 719 q 765 821 789 790 q 686 851 742 851 q 683 860 683 851 q 686 868 683 868 l 736 867 q 806 864 778 864 q 872 867 831 864 l 929 868 m 332 1074 l 332 1075 q 335 1081 332 1078 q 340 1083 339 1085 l 474 1003 l 600 1085 q 608 1081 603 1086 q 610 1074 613 1075 l 485 938 q 472 932 481 932 q 458 938 464 932 l 332 1074 z "},"Ņ":{"ha":979,"x_min":54,"x_max":932,"o":"m 929 868 q 932 860 932 868 q 929 851 932 851 q 846 820 872 851 q 821 719 819 789 l 819 -14 q 816 -19 819 -17 q 810 -21 813 -21 q 797 -15 801 -21 l 206 754 l 196 767 l 196 147 q 221 47 197 78 q 300 17 244 17 q 304 8 304 17 q 300 0 304 0 q 250 1 268 0 l 181 3 l 113 1 q 58 0 94 0 q 54 8 54 0 q 58 17 54 17 q 140 47 114 17 q 165 147 167 78 l 165 800 q 58 851 113 851 q 54 860 54 851 q 58 868 54 868 l 114 867 q 157 865 129 865 q 199 867 182 865 q 226 868 217 868 q 241 863 236 868 q 254 843 246 858 q 286 796 269 818 l 792 131 l 790 719 q 765 821 789 790 q 686 851 742 851 q 683 860 683 851 q 686 868 683 868 l 736 867 q 806 864 778 864 q 872 867 831 864 l 929 868 m 518 -118 q 576 -144 556 -118 q 596 -219 596 -171 q 574 -306 596 -267 q 510 -382 551 -344 l 507 -383 q 500 -378 503 -383 q 500 -371 497 -374 q 561 -247 561 -318 q 553 -207 561 -219 q 511 -228 542 -228 q 472 -213 486 -228 q 457 -174 457 -199 q 518 -118 457 -118 z "},"Ṅ":{"ha":979,"x_min":54,"x_max":932,"o":"m 929 868 q 932 860 932 868 q 929 851 932 851 q 846 820 872 851 q 821 719 819 789 l 819 -14 q 816 -19 819 -17 q 810 -21 813 -21 q 797 -15 801 -21 l 206 754 l 196 767 l 196 147 q 221 47 197 78 q 300 17 244 17 q 304 8 304 17 q 300 0 304 0 q 250 1 268 0 l 181 3 l 113 1 q 58 0 94 0 q 54 8 54 0 q 58 17 54 17 q 140 47 114 17 q 165 147 167 78 l 165 800 q 58 851 113 851 q 54 860 54 851 q 58 868 54 868 l 114 867 q 157 865 129 865 q 199 867 182 865 q 226 868 217 868 q 241 863 236 868 q 254 843 246 858 q 286 796 269 818 l 792 131 l 790 719 q 765 821 789 790 q 686 851 742 851 q 683 860 683 851 q 686 868 683 868 l 736 867 q 806 864 778 864 q 872 867 831 864 l 929 868 m 475 982 q 431 998 447 982 q 414 1043 414 1014 q 431 1085 414 1069 q 475 1100 447 1100 q 519 1085 503 1100 q 535 1043 535 1069 q 519 998 535 1014 q 475 982 503 982 z "},"Ṇ":{"ha":979,"x_min":54,"x_max":932,"o":"m 929 868 q 932 860 932 868 q 929 851 932 851 q 846 820 872 851 q 821 719 819 789 l 819 -14 q 816 -19 819 -17 q 810 -21 813 -21 q 797 -15 801 -21 l 206 754 l 196 767 l 196 147 q 221 47 197 78 q 300 17 244 17 q 304 8 304 17 q 300 0 304 0 q 250 1 268 0 l 181 3 l 113 1 q 58 0 94 0 q 54 8 54 0 q 58 17 54 17 q 140 47 114 17 q 165 147 167 78 l 165 800 q 58 851 113 851 q 54 860 54 851 q 58 868 54 868 l 114 867 q 157 865 129 865 q 199 867 182 865 q 226 868 217 868 q 241 863 236 868 q 254 843 246 858 q 286 796 269 818 l 792 131 l 790 719 q 765 821 789 790 q 686 851 742 851 q 683 860 683 851 q 686 868 683 868 l 736 867 q 806 864 778 864 q 872 867 831 864 l 929 868 m 522 -264 q 476 -248 493 -264 q 460 -203 460 -232 q 476 -161 460 -176 q 522 -146 493 -146 q 565 -161 549 -146 q 581 -203 581 -176 q 565 -248 581 -232 q 522 -264 550 -264 z "},"Ŋ":{"ha":979,"x_min":54,"x_max":932,"o":"m 929 868 q 932 860 932 868 q 929 851 932 851 q 846 820 872 851 q 821 719 819 789 l 819 -14 q 778 -201 818 -137 q 665 -265 739 -265 q 581 -239 615 -265 q 546 -178 546 -212 q 558 -145 546 -156 q 589 -135 569 -135 q 624 -147 613 -135 q 643 -185 635 -160 q 663 -222 653 -210 q 696 -233 672 -233 q 767 -177 742 -233 q 793 -10 793 -121 l 206 754 l 196 767 l 196 147 q 221 47 197 78 q 300 17 244 17 q 304 8 304 17 q 300 0 304 0 q 250 1 268 0 l 181 3 l 113 1 q 58 0 94 0 q 54 8 54 0 q 58 17 54 17 q 140 47 114 17 q 165 147 167 78 l 165 800 q 58 851 113 851 q 54 860 54 851 q 58 868 54 868 l 114 867 q 157 865 129 865 q 199 867 182 865 q 226 868 217 868 q 241 863 236 868 q 254 843 246 858 q 286 796 269 818 l 792 131 l 790 719 q 765 821 789 790 q 686 851 742 851 q 683 860 683 851 q 686 868 683 868 l 736 867 q 806 864 778 864 q 872 867 831 864 l 929 868 z "},"Ṉ":{"ha":979,"x_min":54,"x_max":932,"o":"m 929 868 q 932 860 932 868 q 929 851 932 851 q 846 820 872 851 q 821 719 819 789 l 819 -14 q 816 -19 819 -17 q 810 -21 813 -21 q 797 -15 801 -21 l 206 754 l 196 767 l 196 147 q 221 47 197 78 q 300 17 244 17 q 304 8 304 17 q 300 0 304 0 q 250 1 268 0 l 181 3 l 113 1 q 58 0 94 0 q 54 8 54 0 q 58 17 54 17 q 140 47 114 17 q 165 147 167 78 l 165 800 q 58 851 113 851 q 54 860 54 851 q 58 868 54 868 l 114 867 q 157 865 129 865 q 199 867 182 865 q 226 868 217 868 q 241 863 236 868 q 254 843 246 858 q 286 796 269 818 l 792 131 l 790 719 q 765 821 789 790 q 686 851 742 851 q 683 860 683 851 q 686 868 683 868 l 736 867 q 806 864 778 864 q 872 867 831 864 l 929 868 m 350 -162 q 342 -143 342 -162 q 350 -124 342 -124 l 681 -124 q 689 -143 689 -124 q 681 -162 689 -162 l 350 -162 z "},"Ñ":{"ha":979,"x_min":54,"x_max":932,"o":"m 929 868 q 932 860 932 868 q 929 851 932 851 q 846 820 872 851 q 821 719 819 789 l 819 -14 q 816 -19 819 -17 q 810 -21 813 -21 q 797 -15 801 -21 l 206 754 l 196 767 l 196 147 q 221 47 197 78 q 300 17 244 17 q 304 8 304 17 q 300 0 304 0 q 250 1 268 0 l 181 3 l 113 1 q 58 0 94 0 q 54 8 54 0 q 58 17 54 17 q 140 47 114 17 q 165 147 167 78 l 165 800 q 58 851 113 851 q 54 860 54 851 q 58 868 54 868 l 114 867 q 157 865 129 865 q 199 867 182 865 q 226 868 217 868 q 241 863 236 868 q 254 843 246 858 q 286 796 269 818 l 792 131 l 790 719 q 765 821 789 790 q 686 851 742 851 q 683 860 683 851 q 686 868 683 868 l 736 867 q 806 864 778 864 q 872 867 831 864 l 929 868 m 311 965 q 303 969 307 965 q 301 975 299 972 q 406 1061 350 1061 q 479 1046 431 1061 q 586 1026 546 1026 q 623 1035 610 1026 q 653 1064 636 1044 l 654 1064 q 661 1060 657 1064 q 664 1054 665 1057 q 614 987 635 1004 q 565 969 593 969 q 513 976 540 969 q 479 985 486 983 q 378 1003 419 1003 q 340 994 351 1003 q 313 965 329 986 l 311 965 z "},"O":{"ha":1015,"x_min":64,"x_max":956,"o":"m 483 -17 q 265 40 360 -17 q 117 196 169 97 q 64 415 64 294 q 127 654 64 547 q 298 822 190 761 q 538 883 406 883 q 758 828 664 883 q 904 674 853 772 q 956 454 956 576 q 891 210 956 317 q 719 43 826 103 q 483 -17 611 -17 m 544 19 q 716 66 643 19 q 828 197 789 113 q 867 393 867 282 q 817 625 867 521 q 680 790 768 729 q 482 850 592 850 q 311 804 386 850 q 194 673 236 758 q 151 474 151 588 q 203 243 151 347 q 344 79 254 139 q 544 19 433 19 z "},"Ó":{"ha":1015,"x_min":64,"x_max":956,"o":"m 483 -17 q 265 40 360 -17 q 117 196 169 97 q 64 415 64 294 q 127 654 64 547 q 298 822 190 761 q 538 883 406 883 q 758 828 664 883 q 904 674 853 772 q 956 454 956 576 q 891 210 956 317 q 719 43 826 103 q 483 -17 611 -17 m 544 19 q 716 66 643 19 q 828 197 789 113 q 867 393 867 282 q 817 625 867 521 q 680 790 768 729 q 482 850 592 850 q 311 804 386 850 q 194 673 236 758 q 151 474 151 588 q 203 243 151 347 q 344 79 254 139 q 544 19 433 19 m 421 942 q 413 948 415 942 q 414 957 410 954 q 551 1046 469 989 q 578 1065 563 1054 q 615 1089 594 1076 q 650 1083 621 1092 q 701 1063 679 1074 q 713 1050 722 1051 q 424 943 564 1011 l 421 942 z "},"Ŏ":{"ha":1015,"x_min":64,"x_max":956,"o":"m 483 -17 q 265 40 360 -17 q 117 196 169 97 q 64 415 64 294 q 127 654 64 547 q 298 822 190 761 q 538 883 406 883 q 758 828 664 883 q 904 674 853 772 q 956 454 956 576 q 891 210 956 317 q 719 43 826 103 q 483 -17 611 -17 m 544 19 q 716 66 643 19 q 828 197 789 113 q 867 393 867 282 q 817 625 867 521 q 680 790 768 729 q 482 850 592 850 q 311 804 386 850 q 194 673 236 758 q 151 474 151 588 q 203 243 151 347 q 344 79 254 139 q 544 19 433 19 m 503 924 q 422 956 458 924 q 374 1044 385 988 q 391 1060 372 1053 q 426 1067 410 1067 q 440 1063 440 1067 q 476 998 451 1021 q 531 975 501 975 q 583 997 558 975 q 619 1057 607 1018 q 628 1061 622 1061 q 639 1058 633 1061 q 643 1053 644 1056 q 588 957 628 990 q 503 924 549 924 z "},"Ǒ":{"ha":1015,"x_min":64,"x_max":956,"o":"m 483 -17 q 265 40 360 -17 q 117 196 169 97 q 64 415 64 294 q 127 654 64 547 q 298 822 190 761 q 538 883 406 883 q 758 828 664 883 q 904 674 853 772 q 956 454 956 576 q 891 210 956 317 q 719 43 826 103 q 483 -17 611 -17 m 544 19 q 716 66 643 19 q 828 197 789 113 q 867 393 867 282 q 817 625 867 521 q 680 790 768 729 q 482 850 592 850 q 311 804 386 850 q 194 673 236 758 q 151 474 151 588 q 203 243 151 347 q 344 79 254 139 q 544 19 433 19 m 363 1074 l 363 1075 q 366 1081 363 1078 q 371 1083 369 1085 l 504 1003 l 631 1085 q 638 1081 633 1086 q 640 1074 643 1075 l 515 938 q 503 932 511 932 q 489 938 494 932 l 363 1074 z "},"Ô":{"ha":1015,"x_min":64,"x_max":956,"o":"m 483 -17 q 265 40 360 -17 q 117 196 169 97 q 64 415 64 294 q 127 654 64 547 q 298 822 190 761 q 538 883 406 883 q 758 828 664 883 q 904 674 853 772 q 956 454 956 576 q 891 210 956 317 q 719 43 826 103 q 483 -17 611 -17 m 544 19 q 716 66 643 19 q 828 197 789 113 q 867 393 867 282 q 817 625 867 521 q 680 790 768 729 q 482 850 592 850 q 311 804 386 850 q 194 673 236 758 q 151 474 151 588 q 203 243 151 347 q 344 79 254 139 q 544 19 433 19 m 378 917 q 370 920 374 917 q 369 926 367 924 l 494 1061 q 506 1068 499 1068 q 519 1061 513 1068 l 647 926 l 647 924 q 644 917 647 919 q 639 917 642 914 l 504 996 l 379 917 l 378 917 z "},"Ố":{"ha":1015,"x_min":64,"x_max":956,"o":"m 483 -17 q 265 40 360 -17 q 117 196 169 97 q 64 415 64 294 q 127 654 64 547 q 298 822 190 761 q 538 883 406 883 q 758 828 664 883 q 904 674 853 772 q 956 454 956 576 q 891 210 956 317 q 719 43 826 103 q 483 -17 611 -17 m 544 19 q 716 66 643 19 q 828 197 789 113 q 867 393 867 282 q 817 625 867 521 q 680 790 768 729 q 482 850 592 850 q 311 804 386 850 q 194 673 236 758 q 151 474 151 588 q 203 243 151 347 q 344 79 254 139 q 544 19 433 19 m 378 917 q 370 920 374 917 q 369 926 367 924 l 494 1061 q 506 1068 499 1068 q 519 1061 513 1068 l 647 926 l 647 924 q 644 917 647 919 q 639 917 642 914 l 504 996 l 379 917 l 378 917 m 600 1011 q 596 1010 599 1010 q 590 1015 592 1010 q 590 1024 588 1019 q 696 1158 653 1090 q 727 1155 700 1164 q 775 1133 754 1146 q 786 1118 796 1121 q 600 1011 696 1082 z "},"Ộ":{"ha":1015,"x_min":64,"x_max":956,"o":"m 483 -17 q 265 40 360 -17 q 117 196 169 97 q 64 415 64 294 q 127 654 64 547 q 298 822 190 761 q 538 883 406 883 q 758 828 664 883 q 904 674 853 772 q 956 454 956 576 q 891 210 956 317 q 719 43 826 103 q 483 -17 611 -17 m 544 19 q 716 66 643 19 q 828 197 789 113 q 867 393 867 282 q 817 625 867 521 q 680 790 768 729 q 482 850 592 850 q 311 804 386 850 q 194 673 236 758 q 151 474 151 588 q 203 243 151 347 q 344 79 254 139 q 544 19 433 19 m 531 -264 q 485 -248 501 -264 q 468 -203 468 -232 q 485 -161 468 -176 q 531 -146 501 -146 q 573 -161 557 -146 q 589 -203 589 -176 q 574 -248 589 -232 q 531 -264 558 -264 m 378 917 q 370 920 374 917 q 369 926 367 924 l 494 1061 q 506 1068 499 1068 q 519 1061 513 1068 l 647 926 l 647 924 q 644 917 647 919 q 639 917 642 914 l 504 996 l 379 917 l 378 917 z "},"Ồ":{"ha":1015,"x_min":64,"x_max":956,"o":"m 483 -17 q 265 40 360 -17 q 117 196 169 97 q 64 415 64 294 q 127 654 64 547 q 298 822 190 761 q 538 883 406 883 q 758 828 664 883 q 904 674 853 772 q 956 454 956 576 q 891 210 956 317 q 719 43 826 103 q 483 -17 611 -17 m 544 19 q 716 66 643 19 q 828 197 789 113 q 867 393 867 282 q 817 625 867 521 q 680 790 768 729 q 482 850 592 850 q 311 804 386 850 q 194 673 236 758 q 151 474 151 588 q 203 243 151 347 q 344 79 254 139 q 544 19 433 19 m 378 917 q 370 920 374 917 q 369 926 367 924 l 494 1061 q 506 1068 499 1068 q 519 1061 513 1068 l 647 926 l 647 924 q 644 917 647 919 q 639 917 642 914 l 504 996 l 379 917 l 378 917 m 711 979 q 526 1086 615 1049 q 538 1101 517 1089 q 585 1123 558 1114 q 617 1126 613 1132 q 722 992 656 1065 q 724 988 724 990 q 720 981 724 983 q 711 979 717 978 z "},"Ổ":{"ha":1015,"x_min":64,"x_max":956,"o":"m 483 -17 q 265 40 360 -17 q 117 196 169 97 q 64 415 64 294 q 127 654 64 547 q 298 822 190 761 q 538 883 406 883 q 758 828 664 883 q 904 674 853 772 q 956 454 956 576 q 891 210 956 317 q 719 43 826 103 q 483 -17 611 -17 m 544 19 q 716 66 643 19 q 828 197 789 113 q 867 393 867 282 q 817 625 867 521 q 680 790 768 729 q 482 850 592 850 q 311 804 386 850 q 194 673 236 758 q 151 474 151 588 q 203 243 151 347 q 344 79 254 139 q 544 19 433 19 m 378 903 q 370 906 374 903 q 369 913 367 910 l 494 1047 q 506 1054 499 1054 q 519 1047 513 1054 l 647 913 l 647 910 q 644 903 647 906 q 639 903 642 900 l 504 982 l 379 903 l 378 903 m 606 986 q 603 1004 603 993 q 622 1056 603 1022 q 635 1083 629 1068 q 642 1110 642 1097 q 627 1142 642 1131 q 594 1154 613 1154 q 564 1146 578 1154 l 563 1146 q 553 1151 557 1146 q 553 1157 549 1156 q 597 1176 574 1169 q 638 1183 619 1183 q 685 1166 668 1183 q 701 1125 701 1149 q 691 1090 701 1106 q 657 1050 681 1075 q 626 1016 636 1031 q 621 986 617 1001 q 615 983 622 983 q 606 986 607 983 z "},"Ỗ":{"ha":1015,"x_min":64,"x_max":956,"o":"m 483 -17 q 265 40 360 -17 q 117 196 169 97 q 64 415 64 294 q 127 654 64 547 q 298 822 190 761 q 538 883 406 883 q 758 828 664 883 q 904 674 853 772 q 956 454 956 576 q 891 210 956 317 q 719 43 826 103 q 483 -17 611 -17 m 544 19 q 716 66 643 19 q 828 197 789 113 q 867 393 867 282 q 817 625 867 521 q 680 790 768 729 q 482 850 592 850 q 311 804 386 850 q 194 673 236 758 q 151 474 151 588 q 203 243 151 347 q 344 79 254 139 q 544 19 433 19 m 379 917 q 372 920 375 917 q 371 926 368 924 l 496 1061 q 507 1068 500 1068 q 521 1061 514 1068 l 649 926 l 649 924 q 646 917 649 919 q 640 917 643 914 l 506 996 l 381 917 l 379 917 m 349 1079 q 342 1083 346 1079 q 339 1089 338 1086 q 385 1148 358 1122 q 446 1174 413 1174 q 519 1160 464 1174 q 625 1140 583 1140 q 664 1150 650 1140 q 690 1178 678 1160 l 692 1178 q 700 1174 696 1178 q 701 1168 704 1171 q 653 1100 674 1118 q 604 1082 632 1082 q 517 1099 575 1082 q 480 1108 511 1100 q 417 1117 449 1117 q 382 1110 393 1117 q 363 1093 371 1103 q 350 1079 354 1083 l 349 1079 z "},"Ö":{"ha":1015,"x_min":64,"x_max":956,"o":"m 483 -17 q 265 40 360 -17 q 117 196 169 97 q 64 415 64 294 q 127 654 64 547 q 298 822 190 761 q 538 883 406 883 q 758 828 664 883 q 904 674 853 772 q 956 454 956 576 q 891 210 956 317 q 719 43 826 103 q 483 -17 611 -17 m 544 19 q 716 66 643 19 q 828 197 789 113 q 867 393 867 282 q 817 625 867 521 q 680 790 768 729 q 482 850 592 850 q 311 804 386 850 q 194 673 236 758 q 151 474 151 588 q 203 243 151 347 q 344 79 254 139 q 544 19 433 19 m 400 996 q 356 1011 372 996 q 339 1053 339 1026 q 356 1094 339 1079 q 400 1110 372 1110 q 442 1095 428 1110 q 457 1053 457 1081 q 442 1011 457 1026 q 400 996 428 996 m 614 996 q 570 1011 586 996 q 554 1053 554 1026 q 570 1094 554 1079 q 614 1110 586 1110 q 656 1095 642 1110 q 671 1053 671 1081 q 656 1011 671 1026 q 614 996 642 996 z "},"Ọ":{"ha":1015,"x_min":64,"x_max":956,"o":"m 483 -17 q 265 40 360 -17 q 117 196 169 97 q 64 415 64 294 q 127 654 64 547 q 298 822 190 761 q 538 883 406 883 q 758 828 664 883 q 904 674 853 772 q 956 454 956 576 q 891 210 956 317 q 719 43 826 103 q 483 -17 611 -17 m 544 19 q 716 66 643 19 q 828 197 789 113 q 867 393 867 282 q 817 625 867 521 q 680 790 768 729 q 482 850 592 850 q 311 804 386 850 q 194 673 236 758 q 151 474 151 588 q 203 243 151 347 q 344 79 254 139 q 544 19 433 19 m 531 -264 q 485 -248 501 -264 q 468 -203 468 -232 q 485 -161 468 -176 q 531 -146 501 -146 q 573 -161 557 -146 q 589 -203 589 -176 q 574 -248 589 -232 q 531 -264 558 -264 z "},"Ò":{"ha":1015,"x_min":64,"x_max":956,"o":"m 483 -17 q 265 40 360 -17 q 117 196 169 97 q 64 415 64 294 q 127 654 64 547 q 298 822 190 761 q 538 883 406 883 q 758 828 664 883 q 904 674 853 772 q 956 454 956 576 q 891 210 956 317 q 719 43 826 103 q 483 -17 611 -17 m 544 19 q 716 66 643 19 q 828 197 789 113 q 867 393 867 282 q 817 625 867 521 q 680 790 768 729 q 482 850 592 850 q 311 804 386 850 q 194 673 236 758 q 151 474 151 588 q 203 243 151 347 q 344 79 254 139 q 544 19 433 19 m 640 947 q 500 1006 563 982 q 361 1050 438 1029 q 372 1064 350 1053 q 422 1083 393 1075 q 458 1089 451 1092 q 644 960 560 1014 q 647 951 650 958 q 640 947 644 944 z "},"Ỏ":{"ha":1015,"x_min":64,"x_max":956,"o":"m 483 -17 q 265 40 360 -17 q 117 196 169 97 q 64 415 64 294 q 127 654 64 547 q 298 822 190 761 q 538 883 406 883 q 758 828 664 883 q 904 674 853 772 q 956 454 956 576 q 891 210 956 317 q 719 43 826 103 q 483 -17 611 -17 m 544 19 q 716 66 643 19 q 828 197 789 113 q 867 393 867 282 q 817 625 867 521 q 680 790 768 729 q 482 850 592 850 q 311 804 386 850 q 194 673 236 758 q 151 474 151 588 q 203 243 151 347 q 344 79 254 139 q 544 19 433 19 m 513 903 q 506 900 514 900 q 496 903 497 900 q 490 935 490 918 q 497 969 490 954 q 517 1008 503 983 q 536 1046 531 1033 q 542 1075 542 1058 q 524 1120 542 1104 q 482 1136 507 1136 q 443 1128 460 1136 l 440 1126 q 433 1131 436 1126 q 435 1139 431 1136 q 524 1167 475 1167 q 590 1146 565 1167 q 614 1093 614 1125 q 600 1047 614 1068 q 560 999 586 1026 q 524 957 536 975 q 511 918 511 939 q 513 903 511 908 z "},"Ơ":{"ha":1015,"x_min":64,"x_max":986,"o":"m 986 915 q 847 756 986 822 q 928 621 900 699 q 956 454 956 543 q 891 210 956 317 q 719 43 826 103 q 483 -17 611 -17 q 265 40 360 -17 q 117 196 169 97 q 64 415 64 294 q 127 654 64 547 q 298 822 190 761 q 538 883 406 883 q 702 854 628 883 q 832 772 776 825 q 903 854 903 811 q 890 883 903 868 q 878 902 882 894 q 875 924 875 910 q 892 963 875 949 q 932 976 910 976 q 972 958 957 976 q 986 915 986 939 m 867 393 q 817 625 867 521 q 680 790 768 729 q 482 850 592 850 q 311 804 386 850 q 194 673 236 758 q 151 474 151 588 q 203 243 151 347 q 344 79 254 139 q 544 19 433 19 q 716 66 643 19 q 828 197 789 113 q 867 393 867 282 z "},"Ớ":{"ha":1015,"x_min":64,"x_max":986,"o":"m 986 915 q 847 756 986 822 q 928 621 900 699 q 956 454 956 543 q 891 210 956 317 q 719 43 826 103 q 483 -17 611 -17 q 265 40 360 -17 q 117 196 169 97 q 64 415 64 294 q 127 654 64 547 q 298 822 190 761 q 538 883 406 883 q 702 854 628 883 q 832 772 776 825 q 903 854 903 811 q 890 883 903 868 q 878 902 882 894 q 875 924 875 910 q 892 963 875 949 q 932 976 910 976 q 972 958 957 976 q 986 915 986 939 m 867 393 q 817 625 867 521 q 680 790 768 729 q 482 850 592 850 q 311 804 386 850 q 194 673 236 758 q 151 474 151 588 q 203 243 151 347 q 344 79 254 139 q 544 19 433 19 q 716 66 643 19 q 828 197 789 113 q 867 393 867 282 m 363 942 q 353 948 357 942 q 354 957 350 954 q 485 1040 400 982 q 556 1088 508 1057 q 590 1083 561 1092 q 641 1063 618 1074 q 653 1050 664 1051 q 364 942 493 1007 l 363 942 z "},"Ợ":{"ha":1015,"x_min":64,"x_max":986,"o":"m 986 915 q 847 756 986 822 q 928 621 900 699 q 956 454 956 543 q 891 210 956 317 q 719 43 826 103 q 483 -17 611 -17 q 265 40 360 -17 q 117 196 169 97 q 64 415 64 294 q 127 654 64 547 q 298 822 190 761 q 538 883 406 883 q 702 854 628 883 q 832 772 776 825 q 903 854 903 811 q 890 883 903 868 q 878 902 882 894 q 875 924 875 910 q 892 963 875 949 q 932 976 910 976 q 972 958 957 976 q 986 915 986 939 m 867 393 q 817 625 867 521 q 680 790 768 729 q 482 850 592 850 q 311 804 386 850 q 194 673 236 758 q 151 474 151 588 q 203 243 151 347 q 344 79 254 139 q 544 19 433 19 q 716 66 643 19 q 828 197 789 113 q 867 393 867 282 m 531 -264 q 485 -248 501 -264 q 468 -203 468 -232 q 485 -161 468 -176 q 531 -146 501 -146 q 573 -161 557 -146 q 589 -203 589 -176 q 574 -248 589 -232 q 531 -264 558 -264 z "},"Ờ":{"ha":1015,"x_min":64,"x_max":986,"o":"m 986 915 q 847 756 986 822 q 928 621 900 699 q 956 454 956 543 q 891 210 956 317 q 719 43 826 103 q 483 -17 611 -17 q 265 40 360 -17 q 117 196 169 97 q 64 415 64 294 q 127 654 64 547 q 298 822 190 761 q 538 883 406 883 q 702 854 628 883 q 832 772 776 825 q 903 854 903 811 q 890 883 903 868 q 878 902 882 894 q 875 924 875 910 q 892 963 875 949 q 932 976 910 976 q 972 958 957 976 q 986 915 986 939 m 867 393 q 817 625 867 521 q 680 790 768 729 q 482 850 592 850 q 311 804 386 850 q 194 673 236 758 q 151 474 151 588 q 203 243 151 347 q 344 79 254 139 q 544 19 433 19 q 716 66 643 19 q 828 197 789 113 q 867 393 867 282 m 654 943 q 492 1003 568 978 q 325 1050 415 1029 q 333 1063 314 1051 q 377 1083 351 1074 q 410 1089 403 1092 l 446 1069 q 657 957 563 1003 q 662 947 664 954 q 654 943 660 940 z "},"Ở":{"ha":1015,"x_min":64,"x_max":986,"o":"m 986 915 q 847 756 986 822 q 928 621 900 699 q 956 454 956 543 q 891 210 956 317 q 719 43 826 103 q 483 -17 611 -17 q 265 40 360 -17 q 117 196 169 97 q 64 415 64 294 q 127 654 64 547 q 298 822 190 761 q 538 883 406 883 q 702 854 628 883 q 832 772 776 825 q 903 854 903 811 q 890 883 903 868 q 878 902 882 894 q 875 924 875 910 q 892 963 875 949 q 932 976 910 976 q 972 958 957 976 q 986 915 986 939 m 867 393 q 817 625 867 521 q 680 790 768 729 q 482 850 592 850 q 311 804 386 850 q 194 673 236 758 q 151 474 151 588 q 203 243 151 347 q 344 79 254 139 q 544 19 433 19 q 716 66 643 19 q 828 197 789 113 q 867 393 867 282 m 511 903 q 504 900 513 900 q 494 903 496 900 q 489 935 489 918 q 495 969 489 954 q 515 1008 501 983 q 535 1046 529 1033 q 540 1075 540 1058 q 523 1120 540 1104 q 481 1136 506 1136 q 442 1128 458 1136 l 439 1126 q 432 1131 435 1126 q 433 1139 429 1136 q 522 1167 474 1167 q 588 1146 564 1167 q 613 1093 613 1125 q 599 1047 613 1068 q 558 999 585 1026 q 522 957 535 975 q 510 918 510 939 q 511 903 510 908 z "},"Ỡ":{"ha":1015,"x_min":64,"x_max":986,"o":"m 986 915 q 847 756 986 822 q 928 621 900 699 q 956 454 956 543 q 891 210 956 317 q 719 43 826 103 q 483 -17 611 -17 q 265 40 360 -17 q 117 196 169 97 q 64 415 64 294 q 127 654 64 547 q 298 822 190 761 q 538 883 406 883 q 702 854 628 883 q 832 772 776 825 q 903 854 903 811 q 890 883 903 868 q 878 902 882 894 q 875 924 875 910 q 892 963 875 949 q 932 976 910 976 q 972 958 957 976 q 986 915 986 939 m 867 393 q 817 625 867 521 q 680 790 768 729 q 482 850 592 850 q 311 804 386 850 q 194 673 236 758 q 151 474 151 588 q 203 243 151 347 q 344 79 254 139 q 544 19 433 19 q 716 66 643 19 q 828 197 789 113 q 867 393 867 282 m 331 999 q 324 1002 328 999 q 321 1008 319 1006 q 367 1067 340 1042 q 428 1093 394 1093 q 501 1079 446 1093 q 607 1060 565 1060 q 646 1069 632 1060 q 672 1097 660 1079 l 674 1097 q 682 1094 678 1097 q 683 1088 686 1090 q 635 1019 656 1038 q 586 1001 614 1001 q 499 1018 557 1001 q 462 1028 493 1019 q 399 1036 431 1036 q 364 1029 375 1036 q 344 1013 353 1022 q 332 999 336 1003 l 331 999 z "},"Ő":{"ha":1015,"x_min":64,"x_max":956,"o":"m 483 -17 q 265 40 360 -17 q 117 196 169 97 q 64 415 64 294 q 127 654 64 547 q 298 822 190 761 q 538 883 406 883 q 758 828 664 883 q 904 674 853 772 q 956 454 956 576 q 891 210 956 317 q 719 43 826 103 q 483 -17 611 -17 m 544 19 q 716 66 643 19 q 828 197 789 113 q 867 393 867 282 q 817 625 867 521 q 680 790 768 729 q 482 850 592 850 q 311 804 386 850 q 194 673 236 758 q 151 474 151 588 q 203 243 151 347 q 344 79 254 139 q 544 19 433 19 m 386 932 q 381 938 382 932 q 383 947 379 944 q 536 1103 486 1050 q 568 1101 542 1107 q 614 1085 594 1094 q 624 1072 633 1076 q 389 933 497 1015 l 386 932 m 556 932 q 549 938 551 932 q 551 947 547 944 q 706 1103 606 1000 q 738 1101 711 1107 q 783 1085 764 1094 q 792 1072 803 1075 q 558 933 675 1019 l 556 932 z "},"Ō":{"ha":1015,"x_min":64,"x_max":956,"o":"m 483 -17 q 265 40 360 -17 q 117 196 169 97 q 64 415 64 294 q 127 654 64 547 q 298 822 190 761 q 538 883 406 883 q 758 828 664 883 q 904 674 853 772 q 956 454 956 576 q 891 210 956 317 q 719 43 826 103 q 483 -17 611 -17 m 544 19 q 716 66 643 19 q 828 197 789 113 q 867 393 867 282 q 817 625 867 521 q 680 790 768 729 q 482 850 592 850 q 311 804 386 850 q 194 673 236 758 q 151 474 151 588 q 203 243 151 347 q 344 79 254 139 q 544 19 433 19 m 347 997 q 339 1017 339 997 q 347 1036 339 1036 l 678 1036 q 686 1017 686 1036 q 678 997 686 997 l 347 997 z "},"Ǫ":{"ha":1015,"x_min":64,"x_max":956,"o":"m 956 454 q 913 251 956 343 q 794 94 869 158 q 624 3 719 31 q 547 -105 574 -54 q 521 -206 519 -156 q 547 -304 521 -268 q 625 -340 574 -340 q 666 -331 650 -340 q 700 -304 682 -322 l 701 -304 q 712 -309 707 -304 q 714 -317 717 -314 q 586 -382 654 -382 q 492 -344 528 -382 q 454 -246 456 -307 q 592 -6 456 -146 q 483 -17 536 -17 q 265 40 360 -17 q 117 196 169 97 q 64 415 64 294 q 127 654 64 547 q 298 822 190 761 q 538 883 406 883 q 758 828 664 883 q 904 674 853 772 q 956 454 956 576 m 151 474 q 203 243 151 347 q 344 79 254 139 q 544 19 433 19 q 716 66 643 19 q 828 197 789 113 q 867 393 867 282 q 817 625 867 521 q 680 790 768 729 q 482 850 592 850 q 311 804 386 850 q 194 673 236 758 q 151 474 151 588 z "},"Ø":{"ha":1015,"x_min":64,"x_max":956,"o":"m 804 796 q 916 650 876 739 q 956 454 956 561 q 891 210 956 317 q 719 43 826 103 q 483 -17 611 -17 q 338 7 406 -17 q 217 74 269 31 l 149 -11 l 146 -12 q 131 -3 140 -12 q 126 10 122 6 l 194 93 q 98 235 132 151 q 64 415 64 318 q 127 654 64 547 q 298 822 190 761 q 538 883 406 883 q 779 815 676 883 l 828 875 l 831 876 q 847 869 838 876 q 854 858 857 861 l 804 796 m 151 483 q 176 310 150 392 q 251 164 203 228 l 728 751 q 615 824 678 799 q 482 850 553 850 q 313 806 388 850 q 197 678 239 761 q 151 483 154 594 m 544 19 q 716 66 643 19 q 828 197 789 113 q 867 393 867 282 q 835 579 867 493 q 749 729 804 665 l 272 140 q 395 51 325 83 q 544 19 465 19 z "},"Ǿ":{"ha":1015,"x_min":64,"x_max":956,"o":"m 804 796 q 916 650 876 739 q 956 454 956 561 q 891 210 956 317 q 719 43 826 103 q 483 -17 611 -17 q 338 7 406 -17 q 217 74 269 31 l 149 -11 l 146 -12 q 131 -3 140 -12 q 126 10 122 6 l 194 93 q 98 235 132 151 q 64 415 64 318 q 127 654 64 547 q 298 822 190 761 q 538 883 406 883 q 779 815 676 883 l 828 875 l 831 876 q 847 869 838 876 q 854 858 857 861 l 804 796 m 151 483 q 176 310 150 392 q 251 164 203 228 l 728 751 q 615 824 678 799 q 482 850 553 850 q 313 806 388 850 q 197 678 239 761 q 151 483 154 594 m 544 19 q 716 66 643 19 q 828 197 789 113 q 867 393 867 282 q 835 579 867 493 q 749 729 804 665 l 272 140 q 395 51 325 83 q 544 19 465 19 m 410 942 q 401 948 404 942 q 403 957 399 954 q 540 1046 458 989 q 567 1065 551 1054 q 604 1089 583 1076 q 639 1083 610 1092 q 690 1063 668 1074 q 701 1050 711 1051 q 413 943 553 1011 l 410 942 z "},"Õ":{"ha":1015,"x_min":64,"x_max":956,"o":"m 483 -17 q 265 40 360 -17 q 117 196 169 97 q 64 415 64 294 q 127 654 64 547 q 298 822 190 761 q 538 883 406 883 q 758 828 664 883 q 904 674 853 772 q 956 454 956 576 q 891 210 956 317 q 719 43 826 103 q 483 -17 611 -17 m 544 19 q 716 66 643 19 q 828 197 789 113 q 867 393 867 282 q 817 625 867 521 q 680 790 768 729 q 482 850 592 850 q 311 804 386 850 q 194 673 236 758 q 151 474 151 588 q 203 243 151 347 q 344 79 254 139 q 544 19 433 19 m 342 965 q 333 969 338 965 q 332 975 329 972 q 436 1061 381 1061 q 510 1046 461 1061 q 617 1026 576 1026 q 653 1035 640 1026 q 683 1064 667 1044 l 685 1064 q 692 1060 688 1064 q 694 1054 696 1057 q 644 987 665 1004 q 596 969 624 969 q 544 976 571 969 q 510 985 517 983 q 408 1003 450 1003 q 371 994 382 1003 q 343 965 360 986 l 342 965 z "},"Œ":{"ha":1229,"x_min":58,"x_max":1181,"o":"m 1161 207 q 1168 211 1161 211 q 1176 209 1172 211 q 1179 204 1181 207 q 1169 21 1169 136 q 1165 5 1169 10 q 1149 0 1160 0 l 746 0 q 640 -3 710 0 q 558 -6 579 -6 q 299 51 413 -6 q 122 204 185 107 q 58 421 58 301 q 124 657 58 554 q 300 815 190 760 q 539 871 410 871 q 626 869 593 871 l 738 868 l 1122 868 q 1131 865 1129 868 q 1133 856 1133 863 l 1135 814 l 1138 683 q 1129 678 1138 678 q 1119 682 1121 678 q 1076 801 1115 756 q 976 847 1038 847 l 893 847 q 821 840 843 847 q 790 814 799 833 q 782 754 782 794 l 782 467 l 954 467 q 1040 488 1015 467 q 1064 564 1065 510 q 1073 569 1064 569 q 1081 564 1082 569 l 1081 518 l 1081 451 q 1082 390 1081 411 l 1083 322 q 1076 317 1083 317 q 1068 322 1068 317 q 1040 410 1068 383 q 949 438 1013 438 l 782 438 l 782 118 q 790 58 782 78 q 821 32 799 39 q 893 25 843 25 l 1010 25 q 1106 74 1067 25 q 1161 207 1144 124 m 543 14 q 632 21 601 14 q 677 49 663 28 q 692 114 692 71 l 689 738 q 677 804 688 781 q 638 839 667 828 q 551 850 608 850 q 351 803 438 850 q 215 667 264 757 q 167 451 167 578 q 214 229 167 329 q 347 72 261 129 q 543 14 432 14 z "},"P":{"ha":751,"x_min":56,"x_max":699,"o":"m 60 0 q 56 8 57 0 q 60 17 56 17 q 132 24 108 17 q 164 51 156 31 q 172 113 172 71 l 172 756 q 163 817 171 797 q 131 844 154 836 q 60 851 108 851 q 56 860 57 851 q 60 868 56 868 l 122 867 q 211 864 175 864 q 292 868 249 864 q 340 870 307 868 q 399 872 372 872 q 613 815 526 872 q 699 643 699 757 q 648 488 699 551 q 522 394 597 425 q 374 364 447 364 q 308 371 333 364 q 306 378 306 371 q 308 388 306 383 q 311 390 310 392 q 357 385 332 385 q 473 410 418 385 q 562 488 528 436 q 596 615 596 540 q 564 742 596 688 q 480 824 532 796 q 369 851 428 851 q 298 846 319 851 q 268 820 276 840 q 258 753 260 800 l 260 113 q 268 51 260 71 q 299 24 276 31 q 371 17 321 17 q 374 8 374 17 q 371 0 374 0 q 307 1 331 0 l 213 3 l 124 1 q 60 0 100 0 z "},"Þ":{"ha":800,"x_min":56,"x_max":750,"o":"m 363 201 q 499 226 433 201 q 606 301 564 250 q 647 429 647 353 q 610 559 647 501 q 510 649 574 617 q 369 681 446 681 q 260 671 308 681 l 261 113 q 270 49 261 68 q 308 24 279 31 q 407 17 338 17 q 411 8 411 17 q 407 0 411 0 q 329 1 358 0 l 215 3 l 125 1 q 60 0 100 0 q 56 8 57 0 q 60 17 56 17 q 132 24 108 17 q 164 51 156 31 q 172 113 172 71 l 172 756 q 163 817 171 797 q 133 844 156 836 q 63 851 111 851 q 59 860 60 851 q 63 868 58 868 l 125 867 q 214 864 181 864 q 336 867 264 864 l 410 868 q 414 860 414 868 q 410 851 414 851 q 309 845 339 851 q 270 819 279 839 q 260 753 261 800 l 260 690 q 404 700 322 700 q 651 636 553 700 q 750 453 750 572 q 692 299 750 361 q 549 208 635 238 q 378 179 463 179 q 313 186 347 179 q 310 194 310 186 q 312 203 310 199 q 315 206 314 207 q 363 201 339 201 z "},"Q":{"ha":1015,"x_min":64,"x_max":1106,"o":"m 1096 -246 q 1102 -251 1099 -244 q 1101 -260 1106 -258 q 990 -278 1040 -278 q 804 -204 907 -278 q 615 1 701 -131 q 483 -17 556 -17 q 265 40 360 -17 q 117 196 169 97 q 64 415 64 294 q 127 654 64 547 q 298 822 190 761 q 538 883 406 883 q 758 828 664 883 q 904 674 853 772 q 956 454 956 576 q 885 201 954 311 q 700 33 815 90 q 810 -113 747 -49 q 936 -214 874 -178 q 1046 -250 999 -250 q 1096 -246 1075 -250 m 151 474 q 203 243 151 347 q 344 79 254 139 q 544 19 433 19 q 716 66 643 19 q 828 197 789 113 q 867 393 867 282 q 817 625 867 521 q 680 790 768 729 q 482 850 592 850 q 311 804 386 850 q 194 673 236 758 q 151 474 151 588 z "},"R":{"ha":922,"x_min":60,"x_max":946,"o":"m 940 17 q 946 8 946 17 q 940 0 946 0 l 778 0 q 647 119 742 0 q 418 454 551 239 q 326 442 375 442 q 278 444 306 442 l 275 113 q 285 50 276 69 q 316 24 293 31 q 390 17 339 17 q 396 8 396 17 q 392 0 396 0 q 324 1 349 0 l 229 3 l 133 1 q 65 0 108 0 q 60 8 60 0 q 65 17 60 17 q 143 24 118 17 q 178 51 168 32 q 189 113 188 71 l 189 756 q 179 817 188 797 q 147 844 171 836 q 69 851 122 851 q 64 860 64 851 q 69 868 64 868 l 138 867 q 231 864 196 864 q 283 865 260 864 q 319 868 306 867 q 390 872 360 872 q 567 826 506 872 q 628 699 628 781 q 590 576 628 633 q 486 482 551 518 q 683 204 604 304 q 822 60 761 104 q 940 17 883 17 m 275 478 q 350 474 313 474 q 490 515 447 474 q 533 651 533 557 q 488 804 533 757 q 364 851 442 851 q 308 847 325 851 q 284 822 292 842 q 275 753 276 801 l 275 478 z "},"Ŕ":{"ha":922,"x_min":60,"x_max":946,"o":"m 940 17 q 946 8 946 17 q 940 0 946 0 l 778 0 q 647 119 742 0 q 418 454 551 239 q 326 442 375 442 q 278 444 306 442 l 275 113 q 285 50 276 69 q 316 24 293 31 q 390 17 339 17 q 396 8 396 17 q 392 0 396 0 q 324 1 349 0 l 229 3 l 133 1 q 65 0 108 0 q 60 8 60 0 q 65 17 60 17 q 143 24 118 17 q 178 51 168 32 q 189 113 188 71 l 189 756 q 179 817 188 797 q 147 844 171 836 q 69 851 122 851 q 64 860 64 851 q 69 868 64 868 l 138 867 q 231 864 196 864 q 283 865 260 864 q 319 868 306 867 q 390 872 360 872 q 567 826 506 872 q 628 699 628 781 q 590 576 628 633 q 486 482 551 518 q 683 204 604 304 q 822 60 761 104 q 940 17 883 17 m 275 478 q 350 474 313 474 q 490 515 447 474 q 533 651 533 557 q 488 804 533 757 q 364 851 442 851 q 308 847 325 851 q 284 822 292 842 q 275 753 276 801 l 275 478 m 279 942 q 271 948 274 942 q 272 957 268 954 q 410 1046 328 989 q 437 1065 421 1054 q 474 1089 453 1076 q 508 1083 479 1092 q 559 1063 538 1074 q 571 1050 581 1051 q 282 943 422 1011 l 279 942 z "},"Ř":{"ha":922,"x_min":60,"x_max":946,"o":"m 940 17 q 946 8 946 17 q 940 0 946 0 l 778 0 q 647 119 742 0 q 418 454 551 239 q 326 442 375 442 q 278 444 306 442 l 275 113 q 285 50 276 69 q 316 24 293 31 q 390 17 339 17 q 396 8 396 17 q 392 0 396 0 q 324 1 349 0 l 229 3 l 133 1 q 65 0 108 0 q 60 8 60 0 q 65 17 60 17 q 143 24 118 17 q 178 51 168 32 q 189 113 188 71 l 189 756 q 179 817 188 797 q 147 844 171 836 q 69 851 122 851 q 64 860 64 851 q 69 868 64 868 l 138 867 q 231 864 196 864 q 283 865 260 864 q 319 868 306 867 q 390 872 360 872 q 567 826 506 872 q 628 699 628 781 q 590 576 628 633 q 486 482 551 518 q 683 204 604 304 q 822 60 761 104 q 940 17 883 17 m 275 478 q 350 474 313 474 q 490 515 447 474 q 533 651 533 557 q 488 804 533 757 q 364 851 442 851 q 308 847 325 851 q 284 822 292 842 q 275 753 276 801 l 275 478 m 221 1074 l 221 1075 q 224 1081 221 1078 q 229 1083 228 1085 l 363 1003 l 489 1085 q 497 1081 492 1086 q 499 1074 501 1075 l 374 938 q 361 932 369 932 q 347 938 353 932 l 221 1074 z "},"Ŗ":{"ha":922,"x_min":60,"x_max":946,"o":"m 940 17 q 946 8 946 17 q 940 0 946 0 l 778 0 q 647 119 742 0 q 418 454 551 239 q 326 442 375 442 q 278 444 306 442 l 275 113 q 285 50 276 69 q 316 24 293 31 q 390 17 339 17 q 396 8 396 17 q 392 0 396 0 q 324 1 349 0 l 229 3 l 133 1 q 65 0 108 0 q 60 8 60 0 q 65 17 60 17 q 143 24 118 17 q 178 51 168 32 q 189 113 188 71 l 189 756 q 179 817 188 797 q 147 844 171 836 q 69 851 122 851 q 64 860 64 851 q 69 868 64 868 l 138 867 q 231 864 196 864 q 283 865 260 864 q 319 868 306 867 q 390 872 360 872 q 567 826 506 872 q 628 699 628 781 q 590 576 628 633 q 486 482 551 518 q 683 204 604 304 q 822 60 761 104 q 940 17 883 17 m 275 478 q 350 474 313 474 q 490 515 447 474 q 533 651 533 557 q 488 804 533 757 q 364 851 442 851 q 308 847 325 851 q 284 822 292 842 q 275 753 276 801 l 275 478 m 489 -118 q 547 -144 526 -118 q 567 -219 567 -171 q 544 -306 567 -267 q 481 -382 522 -344 l 478 -383 q 471 -378 474 -383 q 471 -371 468 -374 q 532 -247 532 -318 q 524 -207 532 -219 q 482 -228 513 -228 q 442 -213 457 -228 q 428 -174 428 -199 q 489 -118 428 -118 z "},"Ṛ":{"ha":922,"x_min":60,"x_max":946,"o":"m 940 17 q 946 8 946 17 q 940 0 946 0 l 778 0 q 647 119 742 0 q 418 454 551 239 q 326 442 375 442 q 278 444 306 442 l 275 113 q 285 50 276 69 q 316 24 293 31 q 390 17 339 17 q 396 8 396 17 q 392 0 396 0 q 324 1 349 0 l 229 3 l 133 1 q 65 0 108 0 q 60 8 60 0 q 65 17 60 17 q 143 24 118 17 q 178 51 168 32 q 189 113 188 71 l 189 756 q 179 817 188 797 q 147 844 171 836 q 69 851 122 851 q 64 860 64 851 q 69 868 64 868 l 138 867 q 231 864 196 864 q 283 865 260 864 q 319 868 306 867 q 390 872 360 872 q 567 826 506 872 q 628 699 628 781 q 590 576 628 633 q 486 482 551 518 q 683 204 604 304 q 822 60 761 104 q 940 17 883 17 m 275 478 q 350 474 313 474 q 490 515 447 474 q 533 651 533 557 q 488 804 533 757 q 364 851 442 851 q 308 847 325 851 q 284 822 292 842 q 275 753 276 801 l 275 478 m 493 -264 q 447 -248 464 -264 q 431 -203 431 -232 q 447 -161 431 -176 q 493 -146 464 -146 q 535 -161 519 -146 q 551 -203 551 -176 q 536 -248 551 -232 q 493 -264 521 -264 z "},"Ṝ":{"ha":922,"x_min":60,"x_max":946,"o":"m 940 17 q 946 8 946 17 q 940 0 946 0 l 778 0 q 647 119 742 0 q 418 454 551 239 q 326 442 375 442 q 278 444 306 442 l 275 113 q 285 50 276 69 q 316 24 293 31 q 390 17 339 17 q 396 8 396 17 q 392 0 396 0 q 324 1 349 0 l 229 3 l 133 1 q 65 0 108 0 q 60 8 60 0 q 65 17 60 17 q 143 24 118 17 q 178 51 168 32 q 189 113 188 71 l 189 756 q 179 817 188 797 q 147 844 171 836 q 69 851 122 851 q 64 860 64 851 q 69 868 64 868 l 138 867 q 231 864 196 864 q 283 865 260 864 q 319 868 306 867 q 390 872 360 872 q 567 826 506 872 q 628 699 628 781 q 590 576 628 633 q 486 482 551 518 q 683 204 604 304 q 822 60 761 104 q 940 17 883 17 m 275 478 q 350 474 313 474 q 490 515 447 474 q 533 651 533 557 q 488 804 533 757 q 364 851 442 851 q 308 847 325 851 q 284 822 292 842 q 275 753 276 801 l 275 478 m 493 -264 q 447 -248 464 -264 q 431 -203 431 -232 q 447 -161 431 -176 q 493 -146 464 -146 q 535 -161 519 -146 q 551 -203 551 -176 q 536 -248 551 -232 q 493 -264 521 -264 m 199 997 q 190 1017 190 997 q 199 1036 190 1036 l 529 1036 q 538 1017 538 1036 q 529 997 538 997 l 199 997 z "},"Ṟ":{"ha":922,"x_min":60,"x_max":946,"o":"m 940 17 q 946 8 946 17 q 940 0 946 0 l 778 0 q 647 119 742 0 q 418 454 551 239 q 326 442 375 442 q 278 444 306 442 l 275 113 q 285 50 276 69 q 316 24 293 31 q 390 17 339 17 q 396 8 396 17 q 392 0 396 0 q 324 1 349 0 l 229 3 l 133 1 q 65 0 108 0 q 60 8 60 0 q 65 17 60 17 q 143 24 118 17 q 178 51 168 32 q 189 113 188 71 l 189 756 q 179 817 188 797 q 147 844 171 836 q 69 851 122 851 q 64 860 64 851 q 69 868 64 868 l 138 867 q 231 864 196 864 q 283 865 260 864 q 319 868 306 867 q 390 872 360 872 q 567 826 506 872 q 628 699 628 781 q 590 576 628 633 q 486 482 551 518 q 683 204 604 304 q 822 60 761 104 q 940 17 883 17 m 275 478 q 350 474 313 474 q 490 515 447 474 q 533 651 533 557 q 488 804 533 757 q 364 851 442 851 q 308 847 325 851 q 284 822 292 842 q 275 753 276 801 l 275 478 m 321 -162 q 313 -143 313 -162 q 321 -124 313 -124 l 651 -124 q 660 -143 660 -124 q 651 -162 660 -162 l 321 -162 z "},"S":{"ha":689,"x_min":96,"x_max":613,"o":"m 201 707 q 228 613 201 653 q 294 544 256 572 q 400 476 333 515 q 512 406 469 438 q 583 329 554 375 q 613 222 613 283 q 579 100 613 154 q 481 15 546 46 q 328 -17 417 -17 q 129 32 217 -17 q 119 43 122 36 q 115 58 117 50 l 97 247 q 104 254 96 253 q 114 250 113 256 q 196 79 133 153 q 360 6 258 6 q 476 44 429 6 q 524 165 524 82 q 495 274 524 228 q 426 352 467 321 q 318 422 385 383 q 213 491 253 461 q 147 565 174 521 q 119 667 119 608 q 156 785 119 736 q 252 859 193 835 q 378 883 311 883 q 542 850 461 883 q 564 826 564 842 l 572 667 q 565 660 572 661 q 556 665 557 660 q 528 753 550 708 q 462 831 506 799 q 356 863 418 863 q 240 817 278 863 q 201 707 201 772 z "},"Ś":{"ha":689,"x_min":97,"x_max":613,"o":"m 201 707 q 228 613 201 653 q 294 544 256 572 q 400 476 333 515 q 512 406 469 438 q 583 329 554 375 q 613 222 613 283 q 579 100 613 154 q 481 15 546 46 q 328 -17 417 -17 q 129 32 217 -17 q 119 43 122 36 q 115 58 117 50 l 97 247 q 104 254 96 253 q 114 250 113 256 q 196 79 133 153 q 360 6 258 6 q 476 44 429 6 q 524 165 524 82 q 495 274 524 228 q 426 352 467 321 q 318 422 385 383 q 213 491 253 461 q 147 565 174 521 q 119 667 119 608 q 156 785 119 736 q 252 859 193 835 q 378 883 311 883 q 542 850 461 883 q 564 826 564 842 l 572 667 q 565 660 572 661 q 556 665 557 660 q 528 753 550 708 q 462 831 506 799 q 356 863 418 863 q 240 817 278 863 q 201 707 201 772 m 278 942 q 269 948 272 942 q 271 957 267 954 q 408 1046 326 989 q 435 1065 419 1054 q 472 1089 451 1076 q 507 1083 478 1092 q 558 1063 536 1074 q 569 1050 579 1051 q 281 943 421 1011 l 278 942 z "},"Š":{"ha":689,"x_min":97,"x_max":613,"o":"m 201 707 q 228 613 201 653 q 294 544 256 572 q 400 476 333 515 q 512 406 469 438 q 583 329 554 375 q 613 222 613 283 q 579 100 613 154 q 481 15 546 46 q 328 -17 417 -17 q 129 32 217 -17 q 119 43 122 36 q 115 58 117 50 l 97 247 q 104 254 96 253 q 114 250 113 256 q 196 79 133 153 q 360 6 258 6 q 476 44 429 6 q 524 165 524 82 q 495 274 524 228 q 426 352 467 321 q 318 422 385 383 q 213 491 253 461 q 147 565 174 521 q 119 667 119 608 q 156 785 119 736 q 252 859 193 835 q 378 883 311 883 q 542 850 461 883 q 564 826 564 842 l 572 667 q 565 660 572 661 q 556 665 557 660 q 528 753 550 708 q 462 831 506 799 q 356 863 418 863 q 240 817 278 863 q 201 707 201 772 m 219 1074 l 219 1075 q 223 1081 219 1078 q 228 1083 226 1085 l 361 1003 l 488 1085 q 495 1081 490 1086 q 497 1074 500 1075 l 372 938 q 360 932 368 932 q 346 938 351 932 l 219 1074 z "},"Ş":{"ha":689,"x_min":96,"x_max":613,"o":"m 613 222 q 550 63 613 128 q 375 -14 488 -1 q 371 -50 371 -35 q 382 -99 371 -78 q 417 -144 393 -121 q 465 -206 449 -179 q 481 -261 482 -233 q 451 -343 482 -304 q 360 -382 419 -382 q 298 -365 324 -382 q 272 -318 272 -349 q 281 -296 272 -304 q 306 -287 290 -287 q 331 -297 321 -287 q 353 -324 342 -307 q 374 -349 367 -342 q 394 -356 382 -356 q 435 -303 435 -356 q 363 -192 433 -260 q 331 -118 331 -160 q 336 -83 331 -100 l 357 -15 q 328 -17 347 -17 q 129 32 217 -17 q 119 43 122 36 q 115 58 117 50 l 97 247 q 104 254 96 253 q 114 250 113 256 q 196 79 133 153 q 360 6 258 6 q 476 44 429 6 q 524 165 524 82 q 495 274 524 228 q 426 352 467 321 q 318 422 385 383 q 213 491 253 461 q 147 565 174 521 q 119 667 119 608 q 156 785 119 736 q 252 859 193 835 q 378 883 311 883 q 542 850 461 883 q 564 826 564 842 l 572 667 q 565 660 572 661 q 556 665 557 660 q 528 753 550 708 q 462 831 506 799 q 356 863 418 863 q 240 817 278 863 q 201 707 201 772 q 228 613 201 653 q 294 544 256 572 q 400 476 333 515 q 512 406 469 438 q 583 329 554 375 q 613 222 613 283 z "},"Ŝ":{"ha":689,"x_min":97,"x_max":613,"o":"m 201 707 q 228 613 201 653 q 294 544 256 572 q 400 476 333 515 q 512 406 469 438 q 583 329 554 375 q 613 222 613 283 q 579 100 613 154 q 481 15 546 46 q 328 -17 417 -17 q 129 32 217 -17 q 119 43 122 36 q 115 58 117 50 l 97 247 q 104 254 96 253 q 114 250 113 256 q 196 79 133 153 q 360 6 258 6 q 476 44 429 6 q 524 165 524 82 q 495 274 524 228 q 426 352 467 321 q 318 422 385 383 q 213 491 253 461 q 147 565 174 521 q 119 667 119 608 q 156 785 119 736 q 252 859 193 835 q 378 883 311 883 q 542 850 461 883 q 564 826 564 842 l 572 667 q 565 660 572 661 q 556 665 557 660 q 528 753 550 708 q 462 831 506 799 q 356 863 418 863 q 240 817 278 863 q 201 707 201 772 m 235 917 q 227 920 231 917 q 226 926 224 924 l 351 1061 q 363 1068 356 1068 q 376 1061 369 1068 l 504 926 l 504 924 q 501 917 504 919 q 496 917 499 914 l 361 996 l 236 917 l 235 917 z "},"Ș":{"ha":689,"x_min":97,"x_max":613,"o":"m 201 707 q 228 613 201 653 q 294 544 256 572 q 400 476 333 515 q 512 406 469 438 q 583 329 554 375 q 613 222 613 283 q 579 100 613 154 q 481 15 546 46 q 328 -17 417 -17 q 129 32 217 -17 q 119 43 122 36 q 115 58 117 50 l 97 247 q 104 254 96 253 q 114 250 113 256 q 196 79 133 153 q 360 6 258 6 q 476 44 429 6 q 524 165 524 82 q 495 274 524 228 q 426 352 467 321 q 318 422 385 383 q 213 491 253 461 q 147 565 174 521 q 119 667 119 608 q 156 785 119 736 q 252 859 193 835 q 378 883 311 883 q 542 850 461 883 q 564 826 564 842 l 572 667 q 565 660 572 661 q 556 665 557 660 q 528 753 550 708 q 462 831 506 799 q 356 863 418 863 q 240 817 278 863 q 201 707 201 772 m 357 -118 q 415 -144 394 -118 q 435 -219 435 -171 q 413 -306 435 -267 q 349 -382 390 -344 l 346 -383 q 339 -378 342 -383 q 339 -371 336 -374 q 400 -247 400 -318 q 392 -207 400 -219 q 350 -228 381 -228 q 310 -213 325 -228 q 296 -174 296 -199 q 357 -118 296 -118 z "},"Ṡ":{"ha":689,"x_min":97,"x_max":613,"o":"m 201 707 q 228 613 201 653 q 294 544 256 572 q 400 476 333 515 q 512 406 469 438 q 583 329 554 375 q 613 222 613 283 q 579 100 613 154 q 481 15 546 46 q 328 -17 417 -17 q 129 32 217 -17 q 119 43 122 36 q 115 58 117 50 l 97 247 q 104 254 96 253 q 114 250 113 256 q 196 79 133 153 q 360 6 258 6 q 476 44 429 6 q 524 165 524 82 q 495 274 524 228 q 426 352 467 321 q 318 422 385 383 q 213 491 253 461 q 147 565 174 521 q 119 667 119 608 q 156 785 119 736 q 252 859 193 835 q 378 883 311 883 q 542 850 461 883 q 564 826 564 842 l 572 667 q 565 660 572 661 q 556 665 557 660 q 528 753 550 708 q 462 831 506 799 q 356 863 418 863 q 240 817 278 863 q 201 707 201 772 m 363 982 q 318 998 335 982 q 301 1043 301 1014 q 318 1085 301 1069 q 363 1100 335 1100 q 406 1085 390 1100 q 422 1043 422 1069 q 406 998 422 1014 q 363 982 390 982 z "},"Ṣ":{"ha":689,"x_min":97,"x_max":613,"o":"m 201 707 q 228 613 201 653 q 294 544 256 572 q 400 476 333 515 q 512 406 469 438 q 583 329 554 375 q 613 222 613 283 q 579 100 613 154 q 481 15 546 46 q 328 -17 417 -17 q 129 32 217 -17 q 119 43 122 36 q 115 58 117 50 l 97 247 q 104 254 96 253 q 114 250 113 256 q 196 79 133 153 q 360 6 258 6 q 476 44 429 6 q 524 165 524 82 q 495 274 524 228 q 426 352 467 321 q 318 422 385 383 q 213 491 253 461 q 147 565 174 521 q 119 667 119 608 q 156 785 119 736 q 252 859 193 835 q 378 883 311 883 q 542 850 461 883 q 564 826 564 842 l 572 667 q 565 660 572 661 q 556 665 557 660 q 528 753 550 708 q 462 831 506 799 q 356 863 418 863 q 240 817 278 863 q 201 707 201 772 m 361 -264 q 315 -248 332 -264 q 299 -203 299 -232 q 315 -161 299 -176 q 361 -146 332 -146 q 403 -161 388 -146 q 419 -203 419 -176 q 404 -248 419 -232 q 361 -264 389 -264 z "},"ẞ":{"ha":956,"x_min":14,"x_max":899,"o":"m 632 -17 q 460 31 538 -17 q 449 42 451 36 q 444 57 446 47 l 428 196 l 428 197 q 430 202 428 200 q 435 204 432 204 q 444 197 442 204 q 499 109 460 151 q 588 40 538 67 q 685 14 639 14 q 786 53 749 14 q 824 163 824 93 q 762 315 824 242 q 564 476 700 388 q 558 497 546 486 l 721 743 q 553 812 636 788 q 410 836 469 836 q 310 812 349 836 q 253 731 272 788 q 235 572 235 674 l 235 113 q 244 51 235 71 q 278 24 253 31 q 357 17 303 17 q 363 8 363 17 q 358 0 364 0 l 188 1 l 21 0 q 15 8 15 0 q 19 17 14 17 q 98 24 72 17 q 135 52 124 32 q 144 113 146 72 l 144 531 q 187 701 146 619 q 305 833 228 782 q 488 883 382 883 q 722 836 581 883 q 767 826 751 826 q 792 836 781 826 q 822 874 803 846 q 826 875 822 875 q 835 872 831 875 q 838 865 839 868 l 618 542 q 833 379 769 450 q 897 231 897 308 q 868 111 899 168 q 777 19 838 54 q 632 -17 717 -17 z "},"Ə":{"ha":888,"x_min":75,"x_max":821,"o":"m 399 883 q 647 820 553 883 q 781 660 742 757 q 821 450 821 563 q 762 200 821 306 q 603 39 703 94 q 382 -17 503 -17 q 210 22 279 -17 q 108 116 140 60 q 75 226 75 172 q 79 240 75 236 q 92 243 83 243 l 697 246 q 713 400 713 318 q 674 639 711 533 q 566 805 636 744 q 400 865 496 865 q 226 815 311 865 q 106 669 142 764 q 99 665 104 665 q 89 668 93 665 q 86 674 85 671 l 140 890 q 147 894 140 894 q 156 892 151 894 q 158 886 160 889 q 157 872 157 881 q 164 851 157 858 q 183 843 171 843 q 197 846 186 843 q 303 875 260 867 q 399 883 346 883 m 431 11 q 595 65 529 11 q 690 219 661 118 l 183 213 q 261 67 193 122 q 431 11 329 11 z "},"T":{"ha":828,"x_min":35,"x_max":797,"o":"m 257 0 q 251 8 251 0 q 256 17 251 17 q 333 24 308 17 q 367 51 358 31 q 375 113 376 71 l 375 756 q 367 812 375 793 q 340 838 360 831 q 279 844 321 844 l 243 844 q 109 798 153 844 q 51 644 65 751 q 46 642 51 642 q 35 646 35 642 q 56 899 42 692 q 63 903 56 903 q 70 901 67 903 q 74 897 74 900 q 136 868 74 868 q 418 864 249 864 q 589 867 494 864 l 686 868 q 753 875 732 868 q 779 903 774 882 q 790 906 782 907 q 796 900 797 906 q 788 761 792 844 q 785 647 783 678 q 776 643 785 643 q 767 647 767 643 q 726 799 767 753 q 590 844 686 844 l 553 844 q 494 837 513 844 q 469 810 475 829 q 463 753 463 792 l 465 113 q 475 50 467 69 q 507 24 483 31 q 585 17 531 17 q 588 8 588 17 q 585 0 588 0 q 518 1 542 0 l 419 3 l 324 1 q 257 0 300 0 z "},"Ŧ":{"ha":828,"x_min":35,"x_max":797,"o":"m 779 903 q 790 906 782 907 q 796 900 797 906 q 788 761 792 844 q 785 647 783 678 q 776 643 785 643 q 767 647 767 643 q 726 799 767 753 q 590 844 686 844 l 553 844 q 494 837 513 844 q 469 810 475 829 q 463 753 463 792 l 464 463 l 600 463 q 605 458 603 463 q 607 449 607 454 q 600 433 607 433 l 464 433 l 465 113 q 475 50 467 69 q 507 24 483 31 q 585 17 531 17 q 588 8 588 17 q 585 0 588 0 q 518 1 542 0 l 419 3 l 324 1 q 257 0 300 0 q 251 8 251 0 q 256 17 251 17 q 333 24 308 17 q 367 51 358 31 q 375 113 376 71 l 375 433 l 238 433 q 232 449 232 433 q 238 463 232 463 l 375 463 l 375 756 q 367 812 375 793 q 340 838 360 831 q 279 844 321 844 l 243 844 q 109 798 153 844 q 51 644 65 751 q 46 642 51 642 q 35 646 35 642 q 56 899 42 692 q 63 903 56 903 q 70 901 67 903 q 74 897 74 900 q 136 868 74 868 q 418 864 249 864 q 589 867 494 864 l 686 868 q 753 875 732 868 q 779 903 774 882 z "},"Ť":{"ha":828,"x_min":35,"x_max":796,"o":"m 257 0 q 251 8 251 0 q 256 17 251 17 q 333 24 308 17 q 367 51 358 31 q 375 113 376 71 l 375 756 q 367 812 375 793 q 340 838 360 831 q 279 844 321 844 l 243 844 q 109 798 153 844 q 51 644 65 751 q 46 642 51 642 q 35 646 35 642 q 56 899 42 692 q 63 903 56 903 q 70 901 67 903 q 74 897 74 900 q 136 868 74 868 q 418 864 249 864 q 589 867 494 864 l 686 868 q 753 875 732 868 q 779 903 774 882 q 790 906 782 907 q 796 900 797 906 q 788 761 792 844 q 785 647 783 678 q 776 643 785 643 q 767 647 767 643 q 726 799 767 753 q 590 844 686 844 l 553 844 q 494 837 513 844 q 469 810 475 829 q 463 753 463 792 l 465 113 q 475 50 467 69 q 507 24 483 31 q 585 17 531 17 q 588 8 588 17 q 585 0 588 0 q 518 1 542 0 l 419 3 l 324 1 q 257 0 300 0 m 272 1074 l 272 1075 q 276 1081 272 1078 q 281 1083 279 1085 l 414 1003 l 540 1085 q 548 1081 543 1086 q 550 1074 553 1075 l 425 938 q 413 932 421 932 q 399 938 404 932 l 272 1074 z "},"Ţ":{"ha":828,"x_min":35,"x_max":797,"o":"m 779 903 q 790 906 782 907 q 796 900 797 906 q 788 761 792 844 q 785 647 783 678 q 776 643 785 643 q 767 647 767 643 q 726 799 767 753 q 590 844 686 844 l 553 844 q 494 837 513 844 q 469 810 475 829 q 463 753 463 792 l 465 113 q 475 50 467 69 q 507 24 483 31 q 585 17 531 17 q 588 8 588 17 q 585 0 588 0 q 522 1 544 0 l 432 3 q 425 -53 425 -32 q 435 -102 425 -81 q 465 -144 444 -124 q 514 -206 497 -179 q 529 -261 531 -233 q 499 -343 531 -304 q 408 -382 468 -382 q 347 -365 372 -382 q 321 -318 321 -349 q 330 -296 321 -304 q 354 -287 339 -287 q 380 -297 369 -287 q 401 -324 390 -307 q 423 -349 415 -342 q 443 -356 431 -356 q 483 -303 483 -356 q 411 -192 482 -260 q 379 -118 379 -160 q 385 -83 379 -99 l 414 3 l 322 1 q 257 0 297 0 q 251 8 251 0 q 256 17 251 17 q 333 24 308 17 q 367 51 358 31 q 375 113 376 71 l 375 756 q 367 812 375 793 q 340 838 360 831 q 279 844 321 844 l 243 844 q 109 798 153 844 q 51 644 65 751 q 46 642 51 642 q 35 646 35 642 q 56 899 42 692 q 63 903 56 903 q 70 901 67 903 q 74 897 74 900 q 136 868 74 868 q 418 864 249 864 q 589 867 494 864 l 686 868 q 753 875 732 868 q 779 903 774 882 z "},"Ț":{"ha":828,"x_min":35,"x_max":796,"o":"m 257 0 q 251 8 251 0 q 256 17 251 17 q 333 24 308 17 q 367 51 358 31 q 375 113 376 71 l 375 756 q 367 812 375 793 q 340 838 360 831 q 279 844 321 844 l 243 844 q 109 798 153 844 q 51 644 65 751 q 46 642 51 642 q 35 646 35 642 q 56 899 42 692 q 63 903 56 903 q 70 901 67 903 q 74 897 74 900 q 136 868 74 868 q 418 864 249 864 q 589 867 494 864 l 686 868 q 753 875 732 868 q 779 903 774 882 q 790 906 782 907 q 796 900 797 906 q 788 761 792 844 q 785 647 783 678 q 776 643 785 643 q 767 647 767 643 q 726 799 767 753 q 590 844 686 844 l 553 844 q 494 837 513 844 q 469 810 475 829 q 463 753 463 792 l 465 113 q 475 50 467 69 q 507 24 483 31 q 585 17 531 17 q 588 8 588 17 q 585 0 588 0 q 518 1 542 0 l 419 3 l 324 1 q 257 0 300 0 m 421 -118 q 478 -144 458 -118 q 499 -219 499 -171 q 476 -306 499 -267 q 413 -382 454 -344 l 410 -383 q 403 -378 406 -383 q 403 -371 400 -374 q 464 -247 464 -318 q 456 -207 464 -219 q 414 -228 444 -228 q 374 -213 389 -228 q 360 -174 360 -199 q 421 -118 360 -118 z "},"Ṭ":{"ha":828,"x_min":35,"x_max":796,"o":"m 257 0 q 251 8 251 0 q 256 17 251 17 q 333 24 308 17 q 367 51 358 31 q 375 113 376 71 l 375 756 q 367 812 375 793 q 340 838 360 831 q 279 844 321 844 l 243 844 q 109 798 153 844 q 51 644 65 751 q 46 642 51 642 q 35 646 35 642 q 56 899 42 692 q 63 903 56 903 q 70 901 67 903 q 74 897 74 900 q 136 868 74 868 q 418 864 249 864 q 589 867 494 864 l 686 868 q 753 875 732 868 q 779 903 774 882 q 790 906 782 907 q 796 900 797 906 q 788 761 792 844 q 785 647 783 678 q 776 643 785 643 q 767 647 767 643 q 726 799 767 753 q 590 844 686 844 l 553 844 q 494 837 513 844 q 469 810 475 829 q 463 753 463 792 l 465 113 q 475 50 467 69 q 507 24 483 31 q 585 17 531 17 q 588 8 588 17 q 585 0 588 0 q 518 1 542 0 l 419 3 l 324 1 q 257 0 300 0 m 425 -264 q 379 -248 396 -264 q 363 -203 363 -232 q 379 -161 363 -176 q 425 -146 396 -146 q 467 -161 451 -146 q 483 -203 483 -176 q 468 -248 483 -232 q 425 -264 453 -264 z "},"Ṯ":{"ha":828,"x_min":35,"x_max":796,"o":"m 257 0 q 251 8 251 0 q 256 17 251 17 q 333 24 308 17 q 367 51 358 31 q 375 113 376 71 l 375 756 q 367 812 375 793 q 340 838 360 831 q 279 844 321 844 l 243 844 q 109 798 153 844 q 51 644 65 751 q 46 642 51 642 q 35 646 35 642 q 56 899 42 692 q 63 903 56 903 q 70 901 67 903 q 74 897 74 900 q 136 868 74 868 q 418 864 249 864 q 589 867 494 864 l 686 868 q 753 875 732 868 q 779 903 774 882 q 790 906 782 907 q 796 900 797 906 q 788 761 792 844 q 785 647 783 678 q 776 643 785 643 q 767 647 767 643 q 726 799 767 753 q 590 844 686 844 l 553 844 q 494 837 513 844 q 469 810 475 829 q 463 753 463 792 l 465 113 q 475 50 467 69 q 507 24 483 31 q 585 17 531 17 q 588 8 588 17 q 585 0 588 0 q 518 1 542 0 l 419 3 l 324 1 q 257 0 300 0 m 253 -162 q 244 -143 244 -162 q 253 -124 244 -124 l 583 -124 q 592 -143 592 -124 q 583 -162 592 -162 l 253 -162 z "},"U":{"ha":1049,"x_min":44,"x_max":1004,"o":"m 999 17 q 1003 8 1003 17 q 999 0 1004 0 l 879 1 l 804 0 q 785 5 789 0 q 781 26 781 10 l 781 119 q 631 15 704 47 q 475 -17 558 -17 q 311 17 383 -17 q 198 113 239 50 q 157 258 157 175 l 157 756 q 149 817 157 797 q 118 844 140 836 q 47 851 96 851 q 44 860 44 851 q 47 868 44 868 l 110 867 q 199 864 163 864 q 293 867 235 864 l 357 868 q 360 860 360 868 q 357 851 360 851 q 285 843 308 851 q 255 815 263 835 q 246 753 247 794 l 247 307 q 315 96 246 171 q 510 21 383 21 q 645 50 582 21 q 781 147 708 79 l 779 753 q 773 815 781 794 q 742 843 765 835 q 671 851 719 851 q 668 860 668 851 q 671 868 668 868 l 733 867 q 824 864 789 864 q 915 867 857 864 l 981 868 q 983 860 983 868 q 981 851 983 851 q 909 844 932 851 q 878 817 886 836 q 869 756 869 797 l 869 113 q 878 51 869 71 q 915 24 888 31 q 999 17 942 17 z "},"Ú":{"ha":1049,"x_min":44,"x_max":1003,"o":"m 999 17 q 1003 8 1003 17 q 999 0 1004 0 l 879 1 l 804 0 q 785 5 789 0 q 781 26 781 10 l 781 119 q 631 15 704 47 q 475 -17 558 -17 q 311 17 383 -17 q 198 113 239 50 q 157 258 157 175 l 157 756 q 149 817 157 797 q 118 844 140 836 q 47 851 96 851 q 44 860 44 851 q 47 868 44 868 l 110 867 q 199 864 163 864 q 293 867 235 864 l 357 868 q 360 860 360 868 q 357 851 360 851 q 285 843 308 851 q 255 815 263 835 q 246 753 247 794 l 247 307 q 315 96 246 171 q 510 21 383 21 q 645 50 582 21 q 781 147 708 79 l 779 753 q 773 815 781 794 q 742 843 765 835 q 671 851 719 851 q 668 860 668 851 q 671 868 668 868 l 733 867 q 824 864 789 864 q 915 867 857 864 l 981 868 q 983 860 983 868 q 981 851 983 851 q 909 844 932 851 q 878 817 886 836 q 869 756 869 797 l 869 113 q 878 51 869 71 q 915 24 888 31 q 999 17 942 17 m 426 942 q 418 948 421 942 q 419 957 415 954 q 557 1046 475 989 q 584 1065 568 1054 q 621 1089 600 1076 q 656 1083 626 1092 q 706 1063 685 1074 q 718 1050 728 1051 q 429 943 569 1011 l 426 942 z "},"Ŭ":{"ha":1049,"x_min":44,"x_max":1003,"o":"m 999 17 q 1003 8 1003 17 q 999 0 1004 0 l 879 1 l 804 0 q 785 5 789 0 q 781 26 781 10 l 781 119 q 631 15 704 47 q 475 -17 558 -17 q 311 17 383 -17 q 198 113 239 50 q 157 258 157 175 l 157 756 q 149 817 157 797 q 118 844 140 836 q 47 851 96 851 q 44 860 44 851 q 47 868 44 868 l 110 867 q 199 864 163 864 q 293 867 235 864 l 357 868 q 360 860 360 868 q 357 851 360 851 q 285 843 308 851 q 255 815 263 835 q 246 753 247 794 l 247 307 q 315 96 246 171 q 510 21 383 21 q 645 50 582 21 q 781 147 708 79 l 779 753 q 773 815 781 794 q 742 843 765 835 q 671 851 719 851 q 668 860 668 851 q 671 868 668 868 l 733 867 q 824 864 789 864 q 915 867 857 864 l 981 868 q 983 860 983 868 q 981 851 983 851 q 909 844 932 851 q 878 817 886 836 q 869 756 869 797 l 869 113 q 878 51 869 71 q 915 24 888 31 q 999 17 942 17 m 508 924 q 427 956 464 924 q 379 1044 390 988 q 397 1060 378 1053 q 432 1067 415 1067 q 446 1063 446 1067 q 482 998 457 1021 q 536 975 507 975 q 588 997 564 975 q 625 1057 613 1018 q 633 1061 628 1061 q 644 1058 639 1061 q 649 1053 650 1056 q 594 957 633 990 q 508 924 554 924 z "},"Ǔ":{"ha":1049,"x_min":44,"x_max":1003,"o":"m 999 17 q 1003 8 1003 17 q 999 0 1004 0 l 879 1 l 804 0 q 785 5 789 0 q 781 26 781 10 l 781 119 q 631 15 704 47 q 475 -17 558 -17 q 311 17 383 -17 q 198 113 239 50 q 157 258 157 175 l 157 756 q 149 817 157 797 q 118 844 140 836 q 47 851 96 851 q 44 860 44 851 q 47 868 44 868 l 110 867 q 199 864 163 864 q 293 867 235 864 l 357 868 q 360 860 360 868 q 357 851 360 851 q 285 843 308 851 q 255 815 263 835 q 246 753 247 794 l 247 307 q 315 96 246 171 q 510 21 383 21 q 645 50 582 21 q 781 147 708 79 l 779 753 q 773 815 781 794 q 742 843 765 835 q 671 851 719 851 q 668 860 668 851 q 671 868 668 868 l 733 867 q 824 864 789 864 q 915 867 857 864 l 981 868 q 983 860 983 868 q 981 851 983 851 q 909 844 932 851 q 878 817 886 836 q 869 756 869 797 l 869 113 q 878 51 869 71 q 915 24 888 31 q 999 17 942 17 m 368 1074 l 368 1075 q 372 1081 368 1078 q 376 1083 375 1085 l 510 1003 l 636 1085 q 644 1081 639 1086 q 646 1074 649 1075 l 521 938 q 508 932 517 932 q 494 938 500 932 l 368 1074 z "},"Û":{"ha":1049,"x_min":44,"x_max":1003,"o":"m 999 17 q 1003 8 1003 17 q 999 0 1004 0 l 879 1 l 804 0 q 785 5 789 0 q 781 26 781 10 l 781 119 q 631 15 704 47 q 475 -17 558 -17 q 311 17 383 -17 q 198 113 239 50 q 157 258 157 175 l 157 756 q 149 817 157 797 q 118 844 140 836 q 47 851 96 851 q 44 860 44 851 q 47 868 44 868 l 110 867 q 199 864 163 864 q 293 867 235 864 l 357 868 q 360 860 360 868 q 357 851 360 851 q 285 843 308 851 q 255 815 263 835 q 246 753 247 794 l 247 307 q 315 96 246 171 q 510 21 383 21 q 645 50 582 21 q 781 147 708 79 l 779 753 q 773 815 781 794 q 742 843 765 835 q 671 851 719 851 q 668 860 668 851 q 671 868 668 868 l 733 867 q 824 864 789 864 q 915 867 857 864 l 981 868 q 983 860 983 868 q 981 851 983 851 q 909 844 932 851 q 878 817 886 836 q 869 756 869 797 l 869 113 q 878 51 869 71 q 915 24 888 31 q 999 17 942 17 m 383 917 q 376 920 379 917 q 375 926 372 924 l 500 1061 q 511 1068 504 1068 q 525 1061 518 1068 l 653 926 l 653 924 q 650 917 653 919 q 644 917 647 914 l 510 996 l 385 917 l 383 917 z "},"Ü":{"ha":1049,"x_min":44,"x_max":1003,"o":"m 999 17 q 1003 8 1003 17 q 999 0 1004 0 l 879 1 l 804 0 q 785 5 789 0 q 781 26 781 10 l 781 119 q 631 15 704 47 q 475 -17 558 -17 q 311 17 383 -17 q 198 113 239 50 q 157 258 157 175 l 157 756 q 149 817 157 797 q 118 844 140 836 q 47 851 96 851 q 44 860 44 851 q 47 868 44 868 l 110 867 q 199 864 163 864 q 293 867 235 864 l 357 868 q 360 860 360 868 q 357 851 360 851 q 285 843 308 851 q 255 815 263 835 q 246 753 247 794 l 247 307 q 315 96 246 171 q 510 21 383 21 q 645 50 582 21 q 781 147 708 79 l 779 753 q 773 815 781 794 q 742 843 765 835 q 671 851 719 851 q 668 860 668 851 q 671 868 668 868 l 733 867 q 824 864 789 864 q 915 867 857 864 l 981 868 q 983 860 983 868 q 981 851 983 851 q 909 844 932 851 q 878 817 886 836 q 869 756 869 797 l 869 113 q 878 51 869 71 q 915 24 888 31 q 999 17 942 17 m 406 996 q 361 1011 378 996 q 344 1053 344 1026 q 361 1094 344 1079 q 406 1110 378 1110 q 448 1095 433 1110 q 463 1053 463 1081 q 448 1011 463 1026 q 406 996 433 996 m 619 996 q 576 1011 592 996 q 560 1053 560 1026 q 576 1094 560 1079 q 619 1110 592 1110 q 662 1095 647 1110 q 676 1053 676 1081 q 662 1011 676 1026 q 619 996 647 996 z "},"Ǘ":{"ha":1049,"x_min":44,"x_max":1003,"o":"m 999 17 q 1003 8 1003 17 q 999 0 1004 0 l 879 1 l 804 0 q 785 5 789 0 q 781 26 781 10 l 781 119 q 631 15 704 47 q 475 -17 558 -17 q 311 17 383 -17 q 198 113 239 50 q 157 258 157 175 l 157 756 q 149 817 157 797 q 118 844 140 836 q 47 851 96 851 q 44 860 44 851 q 47 868 44 868 l 110 867 q 199 864 163 864 q 293 867 235 864 l 357 868 q 360 860 360 868 q 357 851 360 851 q 285 843 308 851 q 255 815 263 835 q 246 753 247 794 l 247 307 q 315 96 246 171 q 510 21 383 21 q 645 50 582 21 q 781 147 708 79 l 779 753 q 773 815 781 794 q 742 843 765 835 q 671 851 719 851 q 668 860 668 851 q 671 868 668 868 l 733 867 q 824 864 789 864 q 915 867 857 864 l 981 868 q 983 860 983 868 q 981 851 983 851 q 909 844 932 851 q 878 817 886 836 q 869 756 869 797 l 869 113 q 878 51 869 71 q 915 24 888 31 q 999 17 942 17 m 404 964 q 360 979 376 964 q 343 1021 343 994 q 360 1063 343 1047 q 404 1078 376 1078 q 447 1063 432 1078 q 461 1021 461 1049 q 447 979 461 994 q 404 964 432 964 m 618 964 q 574 979 590 964 q 558 1021 558 994 q 574 1063 558 1047 q 618 1078 590 1078 q 660 1063 646 1078 q 675 1021 675 1049 q 660 979 675 994 q 618 964 646 964 m 371 1107 q 363 1113 365 1107 q 364 1122 360 1119 q 501 1211 419 1154 q 528 1231 513 1219 q 565 1254 544 1242 q 600 1248 571 1257 q 651 1228 629 1239 q 663 1215 672 1217 q 374 1108 514 1176 l 371 1107 z "},"Ǚ":{"ha":1049,"x_min":44,"x_max":1003,"o":"m 999 17 q 1003 8 1003 17 q 999 0 1004 0 l 879 1 l 804 0 q 785 5 789 0 q 781 26 781 10 l 781 119 q 631 15 704 47 q 475 -17 558 -17 q 311 17 383 -17 q 198 113 239 50 q 157 258 157 175 l 157 756 q 149 817 157 797 q 118 844 140 836 q 47 851 96 851 q 44 860 44 851 q 47 868 44 868 l 110 867 q 199 864 163 864 q 293 867 235 864 l 357 868 q 360 860 360 868 q 357 851 360 851 q 285 843 308 851 q 255 815 263 835 q 246 753 247 794 l 247 307 q 315 96 246 171 q 510 21 383 21 q 645 50 582 21 q 781 147 708 79 l 779 753 q 773 815 781 794 q 742 843 765 835 q 671 851 719 851 q 668 860 668 851 q 671 868 668 868 l 733 867 q 824 864 789 864 q 915 867 857 864 l 981 868 q 983 860 983 868 q 981 851 983 851 q 909 844 932 851 q 878 817 886 836 q 869 756 869 797 l 869 113 q 878 51 869 71 q 915 24 888 31 q 999 17 942 17 m 403 964 q 358 979 375 964 q 342 1021 342 994 q 358 1063 342 1047 q 403 1078 375 1078 q 445 1063 431 1078 q 460 1021 460 1049 q 445 979 460 994 q 403 964 431 964 m 617 964 q 573 979 589 964 q 557 1021 557 994 q 573 1063 557 1047 q 617 1078 589 1078 q 659 1063 644 1078 q 674 1021 674 1049 q 659 979 674 994 q 617 964 644 964 m 381 1099 q 373 1101 378 1097 q 371 1108 368 1106 l 496 1243 q 508 1250 503 1250 q 522 1243 515 1250 l 647 1108 q 647 1101 650 1106 q 640 1099 643 1096 l 507 1179 l 381 1099 z "},"Ǜ":{"ha":1049,"x_min":44,"x_max":1003,"o":"m 999 17 q 1003 8 1003 17 q 999 0 1004 0 l 879 1 l 804 0 q 785 5 789 0 q 781 26 781 10 l 781 119 q 631 15 704 47 q 475 -17 558 -17 q 311 17 383 -17 q 198 113 239 50 q 157 258 157 175 l 157 756 q 149 817 157 797 q 118 844 140 836 q 47 851 96 851 q 44 860 44 851 q 47 868 44 868 l 110 867 q 199 864 163 864 q 293 867 235 864 l 357 868 q 360 860 360 868 q 357 851 360 851 q 285 843 308 851 q 255 815 263 835 q 246 753 247 794 l 247 307 q 315 96 246 171 q 510 21 383 21 q 645 50 582 21 q 781 147 708 79 l 779 753 q 773 815 781 794 q 742 843 765 835 q 671 851 719 851 q 668 860 668 851 q 671 868 668 868 l 733 867 q 824 864 789 864 q 915 867 857 864 l 981 868 q 983 860 983 868 q 981 851 983 851 q 909 844 932 851 q 878 817 886 836 q 869 756 869 797 l 869 113 q 878 51 869 71 q 915 24 888 31 q 999 17 942 17 m 407 964 q 363 979 379 964 q 346 1021 346 994 q 363 1063 346 1047 q 407 1078 379 1078 q 449 1063 435 1078 q 464 1021 464 1049 q 449 979 464 994 q 407 964 435 964 m 621 964 q 577 979 593 964 q 561 1021 561 994 q 577 1063 561 1047 q 621 1078 593 1078 q 663 1063 649 1078 q 678 1021 678 1049 q 663 979 678 994 q 621 964 649 964 m 656 1101 q 515 1160 578 1136 q 376 1204 453 1183 q 387 1218 365 1207 q 438 1238 408 1229 q 474 1243 467 1246 q 660 1114 575 1168 q 663 1106 665 1113 q 656 1101 660 1099 z "},"Ǖ":{"ha":1049,"x_min":44,"x_max":1003,"o":"m 999 17 q 1003 8 1003 17 q 999 0 1004 0 l 879 1 l 804 0 q 785 5 789 0 q 781 26 781 10 l 781 119 q 631 15 704 47 q 475 -17 558 -17 q 311 17 383 -17 q 198 113 239 50 q 157 258 157 175 l 157 756 q 149 817 157 797 q 118 844 140 836 q 47 851 96 851 q 44 860 44 851 q 47 868 44 868 l 110 867 q 199 864 163 864 q 293 867 235 864 l 357 868 q 360 860 360 868 q 357 851 360 851 q 285 843 308 851 q 255 815 263 835 q 246 753 247 794 l 247 307 q 315 96 246 171 q 510 21 383 21 q 645 50 582 21 q 781 147 708 79 l 779 753 q 773 815 781 794 q 742 843 765 835 q 671 851 719 851 q 668 860 668 851 q 671 868 668 868 l 733 867 q 824 864 789 864 q 915 867 857 864 l 981 868 q 983 860 983 868 q 981 851 983 851 q 909 844 932 851 q 878 817 886 836 q 869 756 869 797 l 869 113 q 878 51 869 71 q 915 24 888 31 q 999 17 942 17 m 399 964 q 354 979 371 964 q 338 1021 338 994 q 354 1063 338 1047 q 399 1078 371 1078 q 441 1063 426 1078 q 456 1021 456 1049 q 441 979 456 994 q 399 964 426 964 m 613 964 q 569 979 585 964 q 553 1021 553 994 q 569 1063 553 1047 q 613 1078 585 1078 q 655 1063 640 1078 q 669 1021 669 1049 q 655 979 669 994 q 613 964 640 964 m 336 1135 q 328 1154 328 1135 q 336 1174 328 1174 l 667 1174 q 675 1154 675 1174 q 667 1135 675 1135 l 336 1135 z "},"Ụ":{"ha":1049,"x_min":44,"x_max":1003,"o":"m 999 17 q 1003 8 1003 17 q 999 0 1004 0 l 879 1 l 804 0 q 785 5 789 0 q 781 26 781 10 l 781 119 q 631 15 704 47 q 475 -17 558 -17 q 311 17 383 -17 q 198 113 239 50 q 157 258 157 175 l 157 756 q 149 817 157 797 q 118 844 140 836 q 47 851 96 851 q 44 860 44 851 q 47 868 44 868 l 110 867 q 199 864 163 864 q 293 867 235 864 l 357 868 q 360 860 360 868 q 357 851 360 851 q 285 843 308 851 q 255 815 263 835 q 246 753 247 794 l 247 307 q 315 96 246 171 q 510 21 383 21 q 645 50 582 21 q 781 147 708 79 l 779 753 q 773 815 781 794 q 742 843 765 835 q 671 851 719 851 q 668 860 668 851 q 671 868 668 868 l 733 867 q 824 864 789 864 q 915 867 857 864 l 981 868 q 983 860 983 868 q 981 851 983 851 q 909 844 932 851 q 878 817 886 836 q 869 756 869 797 l 869 113 q 878 51 869 71 q 915 24 888 31 q 999 17 942 17 m 531 -264 q 485 -248 501 -264 q 468 -203 468 -232 q 485 -161 468 -176 q 531 -146 501 -146 q 573 -161 557 -146 q 589 -203 589 -176 q 574 -248 589 -232 q 531 -264 558 -264 z "},"Ù":{"ha":1049,"x_min":44,"x_max":1003,"o":"m 999 17 q 1003 8 1003 17 q 999 0 1004 0 l 879 1 l 804 0 q 785 5 789 0 q 781 26 781 10 l 781 119 q 631 15 704 47 q 475 -17 558 -17 q 311 17 383 -17 q 198 113 239 50 q 157 258 157 175 l 157 756 q 149 817 157 797 q 118 844 140 836 q 47 851 96 851 q 44 860 44 851 q 47 868 44 868 l 110 867 q 199 864 163 864 q 293 867 235 864 l 357 868 q 360 860 360 868 q 357 851 360 851 q 285 843 308 851 q 255 815 263 835 q 246 753 247 794 l 247 307 q 315 96 246 171 q 510 21 383 21 q 645 50 582 21 q 781 147 708 79 l 779 753 q 773 815 781 794 q 742 843 765 835 q 671 851 719 851 q 668 860 668 851 q 671 868 668 868 l 733 867 q 824 864 789 864 q 915 867 857 864 l 981 868 q 983 860 983 868 q 981 851 983 851 q 909 844 932 851 q 878 817 886 836 q 869 756 869 797 l 869 113 q 878 51 869 71 q 915 24 888 31 q 999 17 942 17 m 646 947 q 506 1006 568 982 q 367 1050 443 1029 q 377 1064 356 1053 q 428 1083 399 1075 q 464 1089 457 1092 q 650 960 565 1014 q 653 951 656 958 q 646 947 650 944 z "},"Ủ":{"ha":1049,"x_min":44,"x_max":1003,"o":"m 999 17 q 1003 8 1003 17 q 999 0 1004 0 l 879 1 l 804 0 q 785 5 789 0 q 781 26 781 10 l 781 119 q 631 15 704 47 q 475 -17 558 -17 q 311 17 383 -17 q 198 113 239 50 q 157 258 157 175 l 157 756 q 149 817 157 797 q 118 844 140 836 q 47 851 96 851 q 44 860 44 851 q 47 868 44 868 l 110 867 q 199 864 163 864 q 293 867 235 864 l 357 868 q 360 860 360 868 q 357 851 360 851 q 285 843 308 851 q 255 815 263 835 q 246 753 247 794 l 247 307 q 315 96 246 171 q 510 21 383 21 q 645 50 582 21 q 781 147 708 79 l 779 753 q 773 815 781 794 q 742 843 765 835 q 671 851 719 851 q 668 860 668 851 q 671 868 668 868 l 733 867 q 824 864 789 864 q 915 867 857 864 l 981 868 q 983 860 983 868 q 981 851 983 851 q 909 844 932 851 q 878 817 886 836 q 869 756 869 797 l 869 113 q 878 51 869 71 q 915 24 888 31 q 999 17 942 17 m 518 903 q 511 900 519 900 q 501 903 503 900 q 496 935 496 918 q 502 969 496 954 q 522 1008 508 983 q 542 1046 536 1033 q 547 1075 547 1058 q 530 1120 547 1104 q 488 1136 513 1136 q 449 1128 465 1136 l 446 1126 q 439 1131 442 1126 q 440 1139 436 1136 q 529 1167 481 1167 q 595 1146 571 1167 q 619 1093 619 1125 q 606 1047 619 1068 q 565 999 592 1026 q 529 957 542 975 q 517 918 517 939 q 518 903 517 908 z "},"Ư":{"ha":1049,"x_min":44,"x_max":1076,"o":"m 918 850 q 878 824 886 842 q 869 756 869 806 l 869 113 q 878 51 869 71 q 915 24 888 31 q 999 17 942 17 q 1003 8 1003 17 q 999 0 1004 0 l 879 1 l 804 0 q 785 4 789 0 q 781 26 782 8 l 781 119 q 632 15 704 47 q 476 -17 560 -17 q 312 17 385 -17 q 198 113 239 50 q 157 258 157 175 l 157 756 q 149 817 157 797 q 118 844 140 836 q 47 851 96 851 q 44 860 44 851 q 47 868 44 868 l 110 867 q 199 864 163 864 q 293 867 235 864 l 357 868 q 360 860 360 868 q 357 851 360 851 q 285 843 308 851 q 255 815 263 835 q 246 753 247 794 l 247 307 q 315 94 246 168 q 510 21 385 21 q 644 50 581 21 q 781 147 708 79 l 779 753 q 772 815 781 794 q 739 843 764 835 q 663 851 714 851 q 659 860 658 851 q 663 868 660 868 l 729 867 q 822 864 785 864 q 948 882 903 864 q 993 931 993 900 q 988 952 993 942 q 981 965 982 963 q 965 1006 965 986 q 981 1041 965 1028 q 1017 1054 997 1054 q 1060 1033 1044 1054 q 1076 981 1076 1011 q 1038 901 1076 928 q 963 864 999 875 q 918 850 928 853 z "},"Ứ":{"ha":1049,"x_min":44,"x_max":1076,"o":"m 918 850 q 878 824 886 842 q 869 756 869 806 l 869 113 q 878 51 869 71 q 915 24 888 31 q 999 17 942 17 q 1003 8 1003 17 q 999 0 1004 0 l 879 1 l 804 0 q 785 4 789 0 q 781 26 782 8 l 781 119 q 632 15 704 47 q 476 -17 560 -17 q 312 17 385 -17 q 198 113 239 50 q 157 258 157 175 l 157 756 q 149 817 157 797 q 118 844 140 836 q 47 851 96 851 q 44 860 44 851 q 47 868 44 868 l 110 867 q 199 864 163 864 q 293 867 235 864 l 357 868 q 360 860 360 868 q 357 851 360 851 q 285 843 308 851 q 255 815 263 835 q 246 753 247 794 l 247 307 q 315 94 246 168 q 510 21 385 21 q 644 50 581 21 q 781 147 708 79 l 779 753 q 772 815 781 794 q 739 843 764 835 q 663 851 714 851 q 659 860 658 851 q 663 868 660 868 l 729 867 q 822 864 785 864 q 948 882 903 864 q 993 931 993 900 q 988 952 993 942 q 981 965 982 963 q 965 1006 965 986 q 981 1041 965 1028 q 1017 1054 997 1054 q 1060 1033 1044 1054 q 1076 981 1076 1011 q 1038 901 1076 928 q 963 864 999 875 q 918 850 928 853 m 383 942 q 374 948 378 942 q 375 957 371 954 q 506 1040 421 982 q 576 1088 529 1057 q 610 1083 582 1092 q 662 1063 639 1074 q 674 1050 685 1051 q 385 942 514 1007 l 383 942 z "},"Ự":{"ha":1049,"x_min":44,"x_max":1076,"o":"m 918 850 q 878 824 886 842 q 869 756 869 806 l 869 113 q 878 51 869 71 q 915 24 888 31 q 999 17 942 17 q 1003 8 1003 17 q 999 0 1004 0 l 879 1 l 804 0 q 785 4 789 0 q 781 26 782 8 l 781 119 q 632 15 704 47 q 476 -17 560 -17 q 312 17 385 -17 q 198 113 239 50 q 157 258 157 175 l 157 756 q 149 817 157 797 q 118 844 140 836 q 47 851 96 851 q 44 860 44 851 q 47 868 44 868 l 110 867 q 199 864 163 864 q 293 867 235 864 l 357 868 q 360 860 360 868 q 357 851 360 851 q 285 843 308 851 q 255 815 263 835 q 246 753 247 794 l 247 307 q 315 94 246 168 q 510 21 385 21 q 644 50 581 21 q 781 147 708 79 l 779 753 q 772 815 781 794 q 739 843 764 835 q 663 851 714 851 q 659 860 658 851 q 663 868 660 868 l 729 867 q 822 864 785 864 q 948 882 903 864 q 993 931 993 900 q 988 952 993 942 q 981 965 982 963 q 965 1006 965 986 q 981 1041 965 1028 q 1017 1054 997 1054 q 1060 1033 1044 1054 q 1076 981 1076 1011 q 1038 901 1076 928 q 963 864 999 875 q 918 850 928 853 m 546 -264 q 500 -248 517 -264 q 483 -203 483 -232 q 500 -161 483 -176 q 546 -146 517 -146 q 588 -161 572 -146 q 604 -203 604 -176 q 589 -248 604 -232 q 546 -264 574 -264 z "},"Ừ":{"ha":1049,"x_min":44,"x_max":1076,"o":"m 918 850 q 878 824 886 842 q 869 756 869 806 l 869 113 q 878 51 869 71 q 915 24 888 31 q 999 17 942 17 q 1003 8 1003 17 q 999 0 1004 0 l 879 1 l 804 0 q 785 4 789 0 q 781 26 782 8 l 781 119 q 632 15 704 47 q 476 -17 560 -17 q 312 17 385 -17 q 198 113 239 50 q 157 258 157 175 l 157 756 q 149 817 157 797 q 118 844 140 836 q 47 851 96 851 q 44 860 44 851 q 47 868 44 868 l 110 867 q 199 864 163 864 q 293 867 235 864 l 357 868 q 360 860 360 868 q 357 851 360 851 q 285 843 308 851 q 255 815 263 835 q 246 753 247 794 l 247 307 q 315 94 246 168 q 510 21 385 21 q 644 50 581 21 q 781 147 708 79 l 779 753 q 772 815 781 794 q 739 843 764 835 q 663 851 714 851 q 659 860 658 851 q 663 868 660 868 l 729 867 q 822 864 785 864 q 948 882 903 864 q 993 931 993 900 q 988 952 993 942 q 981 965 982 963 q 965 1006 965 986 q 981 1041 965 1028 q 1017 1054 997 1054 q 1060 1033 1044 1054 q 1076 981 1076 1011 q 1038 901 1076 928 q 963 864 999 875 q 918 850 928 853 m 675 943 q 513 1003 589 978 q 346 1050 436 1029 q 353 1063 335 1051 q 398 1083 372 1074 q 431 1089 424 1092 l 467 1069 q 678 957 583 1003 q 683 947 685 954 q 675 943 681 940 z "},"Ử":{"ha":1049,"x_min":44,"x_max":1076,"o":"m 918 850 q 878 824 886 842 q 869 756 869 806 l 869 113 q 878 51 869 71 q 915 24 888 31 q 999 17 942 17 q 1003 8 1003 17 q 999 0 1004 0 l 879 1 l 804 0 q 785 4 789 0 q 781 26 782 8 l 781 119 q 632 15 704 47 q 476 -17 560 -17 q 312 17 385 -17 q 198 113 239 50 q 157 258 157 175 l 157 756 q 149 817 157 797 q 118 844 140 836 q 47 851 96 851 q 44 860 44 851 q 47 868 44 868 l 110 867 q 199 864 163 864 q 293 867 235 864 l 357 868 q 360 860 360 868 q 357 851 360 851 q 285 843 308 851 q 255 815 263 835 q 246 753 247 794 l 247 307 q 315 94 246 168 q 510 21 385 21 q 644 50 581 21 q 781 147 708 79 l 779 753 q 772 815 781 794 q 739 843 764 835 q 663 851 714 851 q 659 860 658 851 q 663 868 660 868 l 729 867 q 822 864 785 864 q 948 882 903 864 q 993 931 993 900 q 988 952 993 942 q 981 965 982 963 q 965 1006 965 986 q 981 1041 965 1028 q 1017 1054 997 1054 q 1060 1033 1044 1054 q 1076 981 1076 1011 q 1038 901 1076 928 q 963 864 999 875 q 918 850 928 853 m 532 903 q 525 900 533 900 q 515 903 517 900 q 510 935 510 918 q 516 969 510 954 q 536 1008 522 983 q 556 1046 550 1033 q 561 1075 561 1058 q 544 1120 561 1104 q 501 1136 526 1136 q 463 1128 479 1136 l 460 1126 q 453 1131 456 1126 q 454 1139 450 1136 q 543 1167 494 1167 q 609 1146 585 1167 q 633 1093 633 1125 q 619 1047 633 1068 q 579 999 606 1026 q 543 957 556 975 q 531 918 531 939 q 532 903 531 908 z "},"Ữ":{"ha":1049,"x_min":44,"x_max":1076,"o":"m 918 850 q 878 824 886 842 q 869 756 869 806 l 869 113 q 878 51 869 71 q 915 24 888 31 q 999 17 942 17 q 1003 8 1003 17 q 999 0 1004 0 l 879 1 l 804 0 q 785 4 789 0 q 781 26 782 8 l 781 119 q 632 15 704 47 q 476 -17 560 -17 q 312 17 385 -17 q 198 113 239 50 q 157 258 157 175 l 157 756 q 149 817 157 797 q 118 844 140 836 q 47 851 96 851 q 44 860 44 851 q 47 868 44 868 l 110 867 q 199 864 163 864 q 293 867 235 864 l 357 868 q 360 860 360 868 q 357 851 360 851 q 285 843 308 851 q 255 815 263 835 q 246 753 247 794 l 247 307 q 315 94 246 168 q 510 21 385 21 q 644 50 581 21 q 781 147 708 79 l 779 753 q 772 815 781 794 q 739 843 764 835 q 663 851 714 851 q 659 860 658 851 q 663 868 660 868 l 729 867 q 822 864 785 864 q 948 882 903 864 q 993 931 993 900 q 988 952 993 942 q 981 965 982 963 q 965 1006 965 986 q 981 1041 965 1028 q 1017 1054 997 1054 q 1060 1033 1044 1054 q 1076 981 1076 1011 q 1038 901 1076 928 q 963 864 999 875 q 918 850 928 853 m 351 999 q 344 1002 349 999 q 342 1008 340 1006 q 388 1067 361 1042 q 449 1093 415 1093 q 522 1079 467 1093 q 628 1060 586 1060 q 667 1069 653 1060 q 693 1097 681 1079 l 694 1097 q 703 1094 699 1097 q 704 1088 707 1090 q 656 1019 676 1038 q 607 1001 635 1001 q 519 1018 578 1001 q 483 1028 514 1019 q 419 1036 451 1036 q 385 1029 396 1036 q 365 1013 374 1022 q 353 999 357 1003 l 351 999 z "},"Ű":{"ha":1049,"x_min":44,"x_max":1003,"o":"m 999 17 q 1003 8 1003 17 q 999 0 1004 0 l 879 1 l 804 0 q 785 5 789 0 q 781 26 781 10 l 781 119 q 631 15 704 47 q 475 -17 558 -17 q 311 17 383 -17 q 198 113 239 50 q 157 258 157 175 l 157 756 q 149 817 157 797 q 118 844 140 836 q 47 851 96 851 q 44 860 44 851 q 47 868 44 868 l 110 867 q 199 864 163 864 q 293 867 235 864 l 357 868 q 360 860 360 868 q 357 851 360 851 q 285 843 308 851 q 255 815 263 835 q 246 753 247 794 l 247 307 q 315 96 246 171 q 510 21 383 21 q 645 50 582 21 q 781 147 708 79 l 779 753 q 773 815 781 794 q 742 843 765 835 q 671 851 719 851 q 668 860 668 851 q 671 868 668 868 l 733 867 q 824 864 789 864 q 915 867 857 864 l 981 868 q 983 860 983 868 q 981 851 983 851 q 909 844 932 851 q 878 817 886 836 q 869 756 869 797 l 869 113 q 878 51 869 71 q 915 24 888 31 q 999 17 942 17 m 392 932 q 386 938 388 932 q 389 947 385 944 q 542 1103 492 1050 q 574 1101 547 1107 q 619 1085 600 1094 q 629 1072 639 1076 q 394 933 503 1015 l 392 932 m 561 932 q 555 938 557 932 q 557 947 553 944 q 711 1103 611 1000 q 743 1101 717 1107 q 789 1085 769 1094 q 797 1072 808 1075 q 564 933 681 1019 l 561 932 z "},"Ū":{"ha":1049,"x_min":44,"x_max":1003,"o":"m 999 17 q 1003 8 1003 17 q 999 0 1004 0 l 879 1 l 804 0 q 785 5 789 0 q 781 26 781 10 l 781 119 q 631 15 704 47 q 475 -17 558 -17 q 311 17 383 -17 q 198 113 239 50 q 157 258 157 175 l 157 756 q 149 817 157 797 q 118 844 140 836 q 47 851 96 851 q 44 860 44 851 q 47 868 44 868 l 110 867 q 199 864 163 864 q 293 867 235 864 l 357 868 q 360 860 360 868 q 357 851 360 851 q 285 843 308 851 q 255 815 263 835 q 246 753 247 794 l 247 307 q 315 96 246 171 q 510 21 383 21 q 645 50 582 21 q 781 147 708 79 l 779 753 q 773 815 781 794 q 742 843 765 835 q 671 851 719 851 q 668 860 668 851 q 671 868 668 868 l 733 867 q 824 864 789 864 q 915 867 857 864 l 981 868 q 983 860 983 868 q 981 851 983 851 q 909 844 932 851 q 878 817 886 836 q 869 756 869 797 l 869 113 q 878 51 869 71 q 915 24 888 31 q 999 17 942 17 m 353 997 q 344 1017 344 997 q 353 1036 344 1036 l 683 1036 q 692 1017 692 1036 q 683 997 692 997 l 353 997 z "},"Ų":{"ha":1049,"x_min":44,"x_max":1004,"o":"m 999 17 q 1003 8 1003 17 q 999 0 1004 0 l 879 1 l 804 0 l 800 0 q 725 -107 751 -57 q 700 -206 699 -157 q 726 -304 700 -268 q 804 -340 753 -340 q 845 -331 829 -340 q 879 -304 861 -322 l 881 -304 q 891 -309 886 -304 q 893 -317 896 -314 q 765 -382 833 -382 q 671 -344 707 -382 q 633 -246 635 -307 q 674 -126 635 -189 q 783 8 714 -62 q 781 26 781 11 l 781 119 q 631 15 704 47 q 475 -17 558 -17 q 311 17 383 -17 q 198 113 239 50 q 157 258 157 175 l 157 756 q 149 817 157 797 q 118 844 140 836 q 47 851 96 851 q 44 860 44 851 q 47 868 44 868 l 110 867 q 199 864 163 864 q 293 867 235 864 l 357 868 q 360 860 360 868 q 357 851 360 851 q 285 843 308 851 q 255 815 263 835 q 246 753 247 794 l 247 307 q 315 96 246 171 q 510 21 383 21 q 645 50 582 21 q 781 147 708 79 l 779 753 q 773 815 781 794 q 742 843 765 835 q 671 851 719 851 q 668 860 668 851 q 671 868 668 868 l 733 867 q 824 864 789 864 q 915 867 857 864 l 981 868 q 983 860 983 868 q 981 851 983 851 q 909 844 932 851 q 878 817 886 836 q 869 756 869 797 l 869 113 q 878 51 869 71 q 915 24 888 31 q 999 17 942 17 z "},"Ů":{"ha":1049,"x_min":44,"x_max":1003,"o":"m 999 17 q 1003 8 1003 17 q 999 0 1004 0 l 879 1 l 804 0 q 785 5 789 0 q 781 26 781 10 l 781 119 q 631 15 704 47 q 475 -17 558 -17 q 311 17 383 -17 q 198 113 239 50 q 157 258 157 175 l 157 756 q 149 817 157 797 q 118 844 140 836 q 47 851 96 851 q 44 860 44 851 q 47 868 44 868 l 110 867 q 199 864 163 864 q 293 867 235 864 l 357 868 q 360 860 360 868 q 357 851 360 851 q 285 843 308 851 q 255 815 263 835 q 246 753 247 794 l 247 307 q 315 96 246 171 q 510 21 383 21 q 645 50 582 21 q 781 147 708 79 l 779 753 q 773 815 781 794 q 742 843 765 835 q 671 851 719 851 q 668 860 668 851 q 671 868 668 868 l 733 867 q 824 864 789 864 q 915 867 857 864 l 981 868 q 983 860 983 868 q 981 851 983 851 q 909 844 932 851 q 878 817 886 836 q 869 756 869 797 l 869 113 q 878 51 869 71 q 915 24 888 31 q 999 17 942 17 m 504 922 q 415 956 449 922 q 382 1033 382 989 q 424 1112 382 1083 q 518 1140 467 1140 q 604 1108 568 1140 q 640 1031 640 1076 q 599 952 640 982 q 504 922 557 922 m 526 938 q 576 1006 576 938 q 551 1090 576 1054 q 490 1126 526 1126 q 456 1110 467 1126 q 444 1061 444 1094 q 467 976 444 1014 q 526 938 489 938 z "},"Ũ":{"ha":1049,"x_min":44,"x_max":1003,"o":"m 999 17 q 1003 8 1003 17 q 999 0 1004 0 l 879 1 l 804 0 q 785 5 789 0 q 781 26 781 10 l 781 119 q 631 15 704 47 q 475 -17 558 -17 q 311 17 383 -17 q 198 113 239 50 q 157 258 157 175 l 157 756 q 149 817 157 797 q 118 844 140 836 q 47 851 96 851 q 44 860 44 851 q 47 868 44 868 l 110 867 q 199 864 163 864 q 293 867 235 864 l 357 868 q 360 860 360 868 q 357 851 360 851 q 285 843 308 851 q 255 815 263 835 q 246 753 247 794 l 247 307 q 315 96 246 171 q 510 21 383 21 q 645 50 582 21 q 781 147 708 79 l 779 753 q 773 815 781 794 q 742 843 765 835 q 671 851 719 851 q 668 860 668 851 q 671 868 668 868 l 733 867 q 824 864 789 864 q 915 867 857 864 l 981 868 q 983 860 983 868 q 981 851 983 851 q 909 844 932 851 q 878 817 886 836 q 869 756 869 797 l 869 113 q 878 51 869 71 q 915 24 888 31 q 999 17 942 17 m 347 965 q 339 969 343 965 q 338 975 335 972 q 442 1061 386 1061 q 515 1046 467 1061 q 622 1026 582 1026 q 659 1035 646 1026 q 689 1064 672 1044 l 690 1064 q 697 1060 693 1064 q 700 1054 701 1057 q 650 987 671 1004 q 601 969 629 969 q 549 976 576 969 q 515 985 522 983 q 414 1003 456 1003 q 376 994 388 1003 q 349 965 365 986 l 347 965 z "},"V":{"ha":890,"x_min":-1,"x_max":893,"o":"m 886 868 q 893 860 893 868 q 886 851 893 851 q 808 829 840 851 q 754 744 776 807 l 474 1 q 458 -4 472 -4 q 440 1 442 -4 l 115 753 q 69 829 94 807 q 4 851 44 851 q -1 860 0 851 q 3 868 -1 868 l 61 867 q 119 864 103 864 q 215 867 163 864 l 274 868 q 279 860 279 868 q 274 851 279 851 q 215 842 235 851 q 194 807 194 832 q 204 767 194 790 l 489 117 l 721 753 q 731 796 731 782 q 706 838 731 824 q 626 851 681 851 q 624 860 624 851 q 626 868 624 868 l 682 867 q 767 864 729 864 q 828 867 792 864 l 886 868 z "},"W":{"ha":1242,"x_min":-3,"x_max":1244,"o":"m 1238 868 q 1244 860 1244 868 q 1238 851 1244 851 q 1160 829 1192 851 q 1104 744 1128 807 l 822 1 q 808 -4 822 -4 q 793 1 794 -4 l 622 396 l 474 1 q 457 -4 472 -4 q 440 1 442 -4 l 115 753 q 69 829 94 807 q 4 851 44 851 q -2 860 -1 851 q 3 868 -3 868 l 61 867 q 119 864 103 864 q 211 867 158 864 l 267 868 q 272 860 272 868 q 267 851 272 851 q 212 842 231 851 q 193 807 193 832 q 203 767 193 790 l 489 114 l 606 433 l 467 753 q 419 830 443 808 q 357 851 396 851 q 351 860 351 851 q 356 868 351 868 l 413 867 q 471 864 451 864 q 539 867 500 864 l 575 868 q 582 860 582 868 q 575 851 582 851 q 542 848 551 851 q 532 832 532 844 q 556 767 532 818 l 656 536 l 735 753 q 750 811 750 792 q 689 851 750 851 q 684 860 685 851 q 689 868 683 868 l 726 867 q 779 864 754 864 q 839 867 803 864 l 893 868 q 899 860 899 868 q 894 851 900 851 q 820 829 850 851 q 767 744 790 807 l 674 496 l 839 114 l 1075 753 q 1083 794 1083 778 q 1060 838 1083 824 q 983 851 1036 851 q 978 860 978 851 q 983 868 978 868 l 1036 867 q 1118 864 1081 864 q 1179 867 1143 864 l 1238 868 z "},"Ẃ":{"ha":1242,"x_min":-1,"x_max":1244,"o":"m 1238 868 q 1244 860 1244 868 q 1238 851 1244 851 q 1160 829 1192 851 q 1104 744 1128 807 l 822 1 q 808 -4 822 -4 q 793 1 794 -4 l 622 396 l 474 1 q 457 -4 472 -4 q 440 1 442 -4 l 115 753 q 69 829 94 807 q 4 851 44 851 q -2 860 -1 851 q 3 868 -3 868 l 61 867 q 119 864 103 864 q 211 867 158 864 l 267 868 q 272 860 272 868 q 267 851 272 851 q 212 842 231 851 q 193 807 193 832 q 203 767 193 790 l 489 114 l 606 433 l 467 753 q 419 830 443 808 q 357 851 396 851 q 351 860 351 851 q 356 868 351 868 l 413 867 q 471 864 451 864 q 539 867 500 864 l 575 868 q 582 860 582 868 q 575 851 582 851 q 542 848 551 851 q 532 832 532 844 q 556 767 532 818 l 656 536 l 735 753 q 750 811 750 792 q 689 851 750 851 q 684 860 685 851 q 689 868 683 868 l 726 867 q 779 864 754 864 q 839 867 803 864 l 893 868 q 899 860 899 868 q 894 851 900 851 q 820 829 850 851 q 767 744 790 807 l 674 496 l 839 114 l 1075 753 q 1083 794 1083 778 q 1060 838 1083 824 q 983 851 1036 851 q 978 860 978 851 q 983 868 978 868 l 1036 867 q 1118 864 1081 864 q 1179 867 1143 864 l 1238 868 m 540 942 q 532 948 535 942 q 533 957 529 954 q 671 1046 589 989 q 698 1065 682 1054 q 735 1089 714 1076 q 769 1083 740 1092 q 820 1063 799 1074 q 832 1050 842 1051 q 543 943 683 1011 l 540 942 z "},"Ŵ":{"ha":1242,"x_min":-1,"x_max":1244,"o":"m 1238 868 q 1244 860 1244 868 q 1238 851 1244 851 q 1160 829 1192 851 q 1104 744 1128 807 l 822 1 q 808 -4 822 -4 q 793 1 794 -4 l 622 396 l 474 1 q 457 -4 472 -4 q 440 1 442 -4 l 115 753 q 69 829 94 807 q 4 851 44 851 q -2 860 -1 851 q 3 868 -3 868 l 61 867 q 119 864 103 864 q 211 867 158 864 l 267 868 q 272 860 272 868 q 267 851 272 851 q 212 842 231 851 q 193 807 193 832 q 203 767 193 790 l 489 114 l 606 433 l 467 753 q 419 830 443 808 q 357 851 396 851 q 351 860 351 851 q 356 868 351 868 l 413 867 q 471 864 451 864 q 539 867 500 864 l 575 868 q 582 860 582 868 q 575 851 582 851 q 542 848 551 851 q 532 832 532 844 q 556 767 532 818 l 656 536 l 735 753 q 750 811 750 792 q 689 851 750 851 q 684 860 685 851 q 689 868 683 868 l 726 867 q 779 864 754 864 q 839 867 803 864 l 893 868 q 899 860 899 868 q 894 851 900 851 q 820 829 850 851 q 767 744 790 807 l 674 496 l 839 114 l 1075 753 q 1083 794 1083 778 q 1060 838 1083 824 q 983 851 1036 851 q 978 860 978 851 q 983 868 978 868 l 1036 867 q 1118 864 1081 864 q 1179 867 1143 864 l 1238 868 m 497 917 q 490 920 493 917 q 489 926 486 924 l 614 1061 q 625 1068 618 1068 q 639 1061 632 1068 l 767 926 l 767 924 q 764 917 767 919 q 758 917 761 914 l 624 996 l 499 917 l 497 917 z "},"Ẅ":{"ha":1242,"x_min":-1,"x_max":1244,"o":"m 1238 868 q 1244 860 1244 868 q 1238 851 1244 851 q 1160 829 1192 851 q 1104 744 1128 807 l 822 1 q 808 -4 822 -4 q 793 1 794 -4 l 622 396 l 474 1 q 457 -4 472 -4 q 440 1 442 -4 l 115 753 q 69 829 94 807 q 4 851 44 851 q -2 860 -1 851 q 3 868 -3 868 l 61 867 q 119 864 103 864 q 211 867 158 864 l 267 868 q 272 860 272 868 q 267 851 272 851 q 212 842 231 851 q 193 807 193 832 q 203 767 193 790 l 489 114 l 606 433 l 467 753 q 419 830 443 808 q 357 851 396 851 q 351 860 351 851 q 356 868 351 868 l 413 867 q 471 864 451 864 q 539 867 500 864 l 575 868 q 582 860 582 868 q 575 851 582 851 q 542 848 551 851 q 532 832 532 844 q 556 767 532 818 l 656 536 l 735 753 q 750 811 750 792 q 689 851 750 851 q 684 860 685 851 q 689 868 683 868 l 726 867 q 779 864 754 864 q 839 867 803 864 l 893 868 q 899 860 899 868 q 894 851 900 851 q 820 829 850 851 q 767 744 790 807 l 674 496 l 839 114 l 1075 753 q 1083 794 1083 778 q 1060 838 1083 824 q 983 851 1036 851 q 978 860 978 851 q 983 868 978 868 l 1036 867 q 1118 864 1081 864 q 1179 867 1143 864 l 1238 868 m 519 996 q 475 1011 492 996 q 458 1053 458 1026 q 475 1094 458 1079 q 519 1110 492 1110 q 562 1095 547 1110 q 576 1053 576 1081 q 562 1011 576 1026 q 519 996 547 996 m 733 996 q 690 1011 706 996 q 674 1053 674 1026 q 690 1094 674 1079 q 733 1110 706 1110 q 776 1095 761 1110 q 790 1053 790 1081 q 776 1011 790 1026 q 733 996 761 996 z "},"Ẁ":{"ha":1242,"x_min":-1,"x_max":1244,"o":"m 1238 868 q 1244 860 1244 868 q 1238 851 1244 851 q 1160 829 1192 851 q 1104 744 1128 807 l 822 1 q 808 -4 822 -4 q 793 1 794 -4 l 622 396 l 474 1 q 457 -4 472 -4 q 440 1 442 -4 l 115 753 q 69 829 94 807 q 4 851 44 851 q -2 860 -1 851 q 3 868 -3 868 l 61 867 q 119 864 103 864 q 211 867 158 864 l 267 868 q 272 860 272 868 q 267 851 272 851 q 212 842 231 851 q 193 807 193 832 q 203 767 193 790 l 489 114 l 606 433 l 467 753 q 419 830 443 808 q 357 851 396 851 q 351 860 351 851 q 356 868 351 868 l 413 867 q 471 864 451 864 q 539 867 500 864 l 575 868 q 582 860 582 868 q 575 851 582 851 q 542 848 551 851 q 532 832 532 844 q 556 767 532 818 l 656 536 l 735 753 q 750 811 750 792 q 689 851 750 851 q 684 860 685 851 q 689 868 683 868 l 726 867 q 779 864 754 864 q 839 867 803 864 l 893 868 q 899 860 899 868 q 894 851 900 851 q 820 829 850 851 q 767 744 790 807 l 674 496 l 839 114 l 1075 753 q 1083 794 1083 778 q 1060 838 1083 824 q 983 851 1036 851 q 978 860 978 851 q 983 868 978 868 l 1036 867 q 1118 864 1081 864 q 1179 867 1143 864 l 1238 868 m 760 947 q 619 1006 682 982 q 481 1050 557 1029 q 491 1064 469 1053 q 542 1083 513 1075 q 578 1089 571 1092 q 764 960 679 1014 q 767 951 769 958 q 760 947 764 944 z "},"X":{"ha":869,"x_min":15,"x_max":854,"o":"m 849 17 q 854 8 854 17 q 849 0 854 0 q 792 1 813 0 l 719 3 l 614 1 q 549 0 589 0 q 542 8 542 0 q 549 17 542 17 q 619 43 619 17 q 608 71 619 53 l 408 396 l 231 131 q 203 61 203 90 q 282 17 203 17 q 286 8 286 17 q 282 0 286 0 q 219 1 242 0 l 126 3 l 69 1 q 21 0 54 0 q 15 8 15 0 q 21 17 15 17 q 113 47 65 17 q 200 136 160 78 l 393 421 l 188 753 q 124 829 156 807 q 44 851 92 851 q 40 860 40 851 q 44 868 40 868 q 94 865 61 868 l 143 864 q 257 867 190 864 l 324 868 q 331 860 331 868 q 324 851 331 851 q 257 825 257 851 q 268 796 257 811 l 456 493 l 608 728 q 639 804 639 775 q 564 851 639 851 q 558 860 558 851 q 563 868 557 868 l 625 867 q 719 864 681 864 q 772 867 742 864 l 822 868 q 829 860 829 868 q 822 851 829 851 q 729 818 776 851 q 640 721 682 785 l 469 469 l 689 115 q 758 38 724 60 q 849 17 793 17 z "},"Y":{"ha":792,"x_min":-11,"x_max":801,"o":"m 796 868 q 801 860 801 868 q 796 851 801 851 q 621 721 699 851 l 444 429 l 444 113 q 454 50 446 69 q 485 24 463 31 q 558 17 507 17 q 565 8 565 17 q 558 0 565 0 q 493 1 517 0 l 401 3 l 306 1 q 240 0 282 0 q 235 8 235 0 q 240 17 235 17 q 316 24 292 17 q 349 51 340 31 q 357 113 358 71 l 356 417 l 135 753 q 68 829 100 807 q -7 851 36 851 q -11 860 -11 851 q -7 868 -11 868 l 46 867 q 99 864 82 864 q 203 867 139 864 l 271 868 q 278 860 278 868 q 271 851 278 851 q 217 846 233 851 q 200 826 200 840 q 214 796 200 814 l 433 458 l 589 728 q 613 800 613 769 q 542 851 613 851 q 536 860 536 851 q 542 868 536 868 l 604 867 q 693 864 654 864 q 749 867 715 864 l 796 868 z "},"Ý":{"ha":792,"x_min":-11,"x_max":801,"o":"m 796 868 q 801 860 801 868 q 796 851 801 851 q 621 721 699 851 l 444 429 l 444 113 q 454 50 446 69 q 485 24 463 31 q 558 17 507 17 q 565 8 565 17 q 558 0 565 0 q 493 1 517 0 l 401 3 l 306 1 q 240 0 282 0 q 235 8 235 0 q 240 17 235 17 q 316 24 292 17 q 349 51 340 31 q 357 113 358 71 l 356 417 l 135 753 q 68 829 100 807 q -7 851 36 851 q -11 860 -11 851 q -7 868 -11 868 l 46 867 q 99 864 82 864 q 203 867 139 864 l 271 868 q 278 860 278 868 q 271 851 278 851 q 217 846 233 851 q 200 826 200 840 q 214 796 200 814 l 433 458 l 589 728 q 613 800 613 769 q 542 851 613 851 q 536 860 536 851 q 542 868 536 868 l 604 867 q 693 864 654 864 q 749 867 715 864 l 796 868 m 317 942 q 308 948 311 942 q 310 957 306 954 q 447 1046 365 989 q 474 1065 458 1054 q 511 1089 490 1076 q 546 1083 517 1092 q 597 1063 575 1074 q 608 1050 618 1051 q 319 943 460 1011 l 317 942 z "},"Ŷ":{"ha":792,"x_min":-11,"x_max":801,"o":"m 796 868 q 801 860 801 868 q 796 851 801 851 q 621 721 699 851 l 444 429 l 444 113 q 454 50 446 69 q 485 24 463 31 q 558 17 507 17 q 565 8 565 17 q 558 0 565 0 q 493 1 517 0 l 401 3 l 306 1 q 240 0 282 0 q 235 8 235 0 q 240 17 235 17 q 316 24 292 17 q 349 51 340 31 q 357 113 358 71 l 356 417 l 135 753 q 68 829 100 807 q -7 851 36 851 q -11 860 -11 851 q -7 868 -11 868 l 46 867 q 99 864 82 864 q 203 867 139 864 l 271 868 q 278 860 278 868 q 271 851 278 851 q 217 846 233 851 q 200 826 200 840 q 214 796 200 814 l 433 458 l 589 728 q 613 800 613 769 q 542 851 613 851 q 536 860 536 851 q 542 868 536 868 l 604 867 q 693 864 654 864 q 749 867 715 864 l 796 868 m 274 917 q 266 920 269 917 q 265 926 263 924 l 390 1061 q 401 1068 394 1068 q 415 1061 408 1068 l 543 926 l 543 924 q 540 917 543 919 q 535 917 538 914 l 400 996 l 275 917 l 274 917 z "},"Ÿ":{"ha":792,"x_min":-11,"x_max":801,"o":"m 796 868 q 801 860 801 868 q 796 851 801 851 q 621 721 699 851 l 444 429 l 444 113 q 454 50 446 69 q 485 24 463 31 q 558 17 507 17 q 565 8 565 17 q 558 0 565 0 q 493 1 517 0 l 401 3 l 306 1 q 240 0 282 0 q 235 8 235 0 q 240 17 235 17 q 316 24 292 17 q 349 51 340 31 q 357 113 358 71 l 356 417 l 135 753 q 68 829 100 807 q -7 851 36 851 q -11 860 -11 851 q -7 868 -11 868 l 46 867 q 99 864 82 864 q 203 867 139 864 l 271 868 q 278 860 278 868 q 271 851 278 851 q 217 846 233 851 q 200 826 200 840 q 214 796 200 814 l 433 458 l 589 728 q 613 800 613 769 q 542 851 613 851 q 536 860 536 851 q 542 868 536 868 l 604 867 q 693 864 654 864 q 749 867 715 864 l 796 868 m 296 996 q 251 1011 268 996 q 235 1053 235 1026 q 251 1094 235 1079 q 296 1110 268 1110 q 338 1095 324 1110 q 353 1053 353 1081 q 338 1011 353 1026 q 296 996 324 996 m 510 996 q 466 1011 482 996 q 450 1053 450 1026 q 466 1094 450 1079 q 510 1110 482 1110 q 552 1095 538 1110 q 567 1053 567 1081 q 552 1011 567 1026 q 510 996 538 996 z "},"Ẏ":{"ha":792,"x_min":-11,"x_max":801,"o":"m 796 868 q 801 860 801 868 q 796 851 801 851 q 621 721 699 851 l 444 429 l 444 113 q 454 50 446 69 q 485 24 463 31 q 558 17 507 17 q 565 8 565 17 q 558 0 565 0 q 493 1 517 0 l 401 3 l 306 1 q 240 0 282 0 q 235 8 235 0 q 240 17 235 17 q 316 24 292 17 q 349 51 340 31 q 357 113 358 71 l 356 417 l 135 753 q 68 829 100 807 q -7 851 36 851 q -11 860 -11 851 q -7 868 -11 868 l 46 867 q 99 864 82 864 q 203 867 139 864 l 271 868 q 278 860 278 868 q 271 851 278 851 q 217 846 233 851 q 200 826 200 840 q 214 796 200 814 l 433 458 l 589 728 q 613 800 613 769 q 542 851 613 851 q 536 860 536 851 q 542 868 536 868 l 604 867 q 693 864 654 864 q 749 867 715 864 l 796 868 m 401 982 q 357 998 374 982 q 340 1043 340 1014 q 357 1085 340 1069 q 401 1100 374 1100 q 445 1085 429 1100 q 461 1043 461 1069 q 445 998 461 1014 q 401 982 429 982 z "},"Ỵ":{"ha":792,"x_min":-11,"x_max":801,"o":"m 796 868 q 801 860 801 868 q 796 851 801 851 q 621 721 699 851 l 444 429 l 444 113 q 454 50 446 69 q 485 24 463 31 q 558 17 507 17 q 565 8 565 17 q 558 0 565 0 q 493 1 517 0 l 401 3 l 306 1 q 240 0 282 0 q 235 8 235 0 q 240 17 235 17 q 316 24 292 17 q 349 51 340 31 q 357 113 358 71 l 356 417 l 135 753 q 68 829 100 807 q -7 851 36 851 q -11 860 -11 851 q -7 868 -11 868 l 46 867 q 99 864 82 864 q 203 867 139 864 l 271 868 q 278 860 278 868 q 271 851 278 851 q 217 846 233 851 q 200 826 200 840 q 214 796 200 814 l 433 458 l 589 728 q 613 800 613 769 q 542 851 613 851 q 536 860 536 851 q 542 868 536 868 l 604 867 q 693 864 654 864 q 749 867 715 864 l 796 868 m 410 -264 q 364 -248 381 -264 q 347 -203 347 -232 q 364 -161 347 -176 q 410 -146 381 -146 q 452 -161 436 -146 q 468 -203 468 -176 q 453 -248 468 -232 q 410 -264 438 -264 z "},"Ỳ":{"ha":792,"x_min":-11,"x_max":801,"o":"m 796 868 q 801 860 801 868 q 796 851 801 851 q 621 721 699 851 l 444 429 l 444 113 q 454 50 446 69 q 485 24 463 31 q 558 17 507 17 q 565 8 565 17 q 558 0 565 0 q 493 1 517 0 l 401 3 l 306 1 q 240 0 282 0 q 235 8 235 0 q 240 17 235 17 q 316 24 292 17 q 349 51 340 31 q 357 113 358 71 l 356 417 l 135 753 q 68 829 100 807 q -7 851 36 851 q -11 860 -11 851 q -7 868 -11 868 l 46 867 q 99 864 82 864 q 203 867 139 864 l 271 868 q 278 860 278 868 q 271 851 278 851 q 217 846 233 851 q 200 826 200 840 q 214 796 200 814 l 433 458 l 589 728 q 613 800 613 769 q 542 851 613 851 q 536 860 536 851 q 542 868 536 868 l 604 867 q 693 864 654 864 q 749 867 715 864 l 796 868 m 536 947 q 396 1006 458 982 q 257 1050 333 1029 q 267 1064 246 1053 q 318 1083 289 1075 q 354 1089 347 1092 q 540 960 456 1014 q 543 951 546 958 q 536 947 540 944 z "},"Ỷ":{"ha":792,"x_min":-11,"x_max":801,"o":"m 796 868 q 801 860 801 868 q 796 851 801 851 q 621 721 699 851 l 444 429 l 444 113 q 454 50 446 69 q 485 24 463 31 q 558 17 507 17 q 565 8 565 17 q 558 0 565 0 q 493 1 517 0 l 401 3 l 306 1 q 240 0 282 0 q 235 8 235 0 q 240 17 235 17 q 316 24 292 17 q 349 51 340 31 q 357 113 358 71 l 356 417 l 135 753 q 68 829 100 807 q -7 851 36 851 q -11 860 -11 851 q -7 868 -11 868 l 46 867 q 99 864 82 864 q 203 867 139 864 l 271 868 q 278 860 278 868 q 271 851 278 851 q 217 846 233 851 q 200 826 200 840 q 214 796 200 814 l 433 458 l 589 728 q 613 800 613 769 q 542 851 613 851 q 536 860 536 851 q 542 868 536 868 l 604 867 q 693 864 654 864 q 749 867 715 864 l 796 868 m 408 903 q 401 900 410 900 q 392 903 393 900 q 386 935 386 918 q 392 969 386 954 q 413 1008 399 983 q 432 1046 426 1033 q 438 1075 438 1058 q 420 1120 438 1104 q 378 1136 403 1136 q 339 1128 356 1136 l 336 1126 q 329 1131 332 1126 q 331 1139 326 1136 q 419 1167 371 1167 q 485 1146 461 1167 q 510 1093 510 1125 q 496 1047 510 1068 q 456 999 482 1026 q 419 957 432 975 q 407 918 407 939 q 408 903 407 908 z "},"Ȳ":{"ha":792,"x_min":-11,"x_max":801,"o":"m 796 868 q 801 860 801 868 q 796 851 801 851 q 621 721 699 851 l 444 429 l 444 113 q 454 50 446 69 q 485 24 463 31 q 558 17 507 17 q 565 8 565 17 q 558 0 565 0 q 493 1 517 0 l 401 3 l 306 1 q 240 0 282 0 q 235 8 235 0 q 240 17 235 17 q 316 24 292 17 q 349 51 340 31 q 357 113 358 71 l 356 417 l 135 753 q 68 829 100 807 q -7 851 36 851 q -11 860 -11 851 q -7 868 -11 868 l 46 867 q 99 864 82 864 q 203 867 139 864 l 271 868 q 278 860 278 868 q 271 851 278 851 q 217 846 233 851 q 200 826 200 840 q 214 796 200 814 l 433 458 l 589 728 q 613 800 613 769 q 542 851 613 851 q 536 860 536 851 q 542 868 536 868 l 604 867 q 693 864 654 864 q 749 867 715 864 l 796 868 m 243 997 q 235 1017 235 997 q 243 1036 235 1036 l 574 1036 q 582 1017 582 1036 q 574 997 582 997 l 243 997 z "},"Ỹ":{"ha":792,"x_min":-11,"x_max":801,"o":"m 796 868 q 801 860 801 868 q 796 851 801 851 q 621 721 699 851 l 444 429 l 444 113 q 454 50 446 69 q 485 24 463 31 q 558 17 507 17 q 565 8 565 17 q 558 0 565 0 q 493 1 517 0 l 401 3 l 306 1 q 240 0 282 0 q 235 8 235 0 q 240 17 235 17 q 316 24 292 17 q 349 51 340 31 q 357 113 358 71 l 356 417 l 135 753 q 68 829 100 807 q -7 851 36 851 q -11 860 -11 851 q -7 868 -11 868 l 46 867 q 99 864 82 864 q 203 867 139 864 l 271 868 q 278 860 278 868 q 271 851 278 851 q 217 846 233 851 q 200 826 200 840 q 214 796 200 814 l 433 458 l 589 728 q 613 800 613 769 q 542 851 613 851 q 536 860 536 851 q 542 868 536 868 l 604 867 q 693 864 654 864 q 749 867 715 864 l 796 868 m 238 965 q 229 969 233 965 q 228 975 225 972 q 332 1061 276 1061 q 406 1046 357 1061 q 513 1026 472 1026 q 549 1035 536 1026 q 579 1064 563 1044 l 581 1064 q 588 1060 583 1064 q 590 1054 592 1057 q 540 987 561 1004 q 492 969 519 969 q 440 976 467 969 q 406 985 413 983 q 304 1003 346 1003 q 267 994 278 1003 q 239 965 256 986 l 238 965 z "}}}
